<?xml version="1.0" encoding="UTF-8"?>
<svg version="1.1" xmlns="http://www.w3.org/2000/svg" width="469" height="464">
<path d="M0 0 C4 4.4717608 4 4.4717608 4 7 C4.99 7.33 5.98 7.66 7 8 C8.29344529 10.21943454 9.41751618 12.36890475 10.5 14.6875 C10.94279297 15.60692383 10.94279297 15.60692383 11.39453125 16.54492188 C11.98441963 17.77017462 12.56973398 18.99764031 13.15039062 20.22729492 C13.94495471 21.88514832 14.7834683 23.5217365 15.625 25.15625 C16.8609335 27.71238518 17.74021134 30.08540143 18.5 32.8125 C19.41692313 36.00510281 20.3680192 39.16764834 21.4375 42.3125 C25.05168702 53.0985894 28.03146605 63.90272914 30.52880859 74.99316406 C30.99483008 76.97798097 31.51899143 78.94102778 32.046875 80.91015625 C33.18619179 85.44029682 33.68654732 89.98118292 34.125 94.625 C34.20991699 95.4922168 34.29483398 96.35943359 34.38232422 97.25292969 C35.04911252 104.52186128 35.21754895 111.70002415 35 119 C35.55236328 119.03963867 36.10472656 119.07927734 36.67382812 119.12011719 C63.27522992 121.11467134 86.99574504 128.83077932 110.734375 140.88671875 C112.62052463 141.81353365 114.55601714 142.63907847 116.5 143.4375 C124.37897926 146.95490145 131.3482252 151.82228232 138.2421875 156.96875 C139.96750966 158.23952553 141.71976711 159.47536021 143.5078125 160.65625 C150.11100682 165.09876605 155.66626594 170.34769978 161.3125 175.9375 C162.07763916 176.6888623 162.84277832 177.44022461 163.63110352 178.21435547 C169.79095265 184.42473382 174.9042383 190.75094416 178 199 C178.66 199 179.32 199 180 199 C186.06787614 210.86473052 191.79388214 222.57050791 195.625 235.375 C195.81924561 236.02202881 196.01349121 236.66905762 196.21362305 237.33569336 C199.60328506 249.11825633 201.51853926 260.76694967 202.25 273 C202.34023438 274.25039063 202.43046875 275.50078125 202.5234375 276.7890625 C203.07124799 285.32430335 202.82259915 293.49216179 202 302 C202.60851807 301.96890137 203.21703613 301.93780273 203.84399414 301.90576172 C213.80705747 301.47479238 221.49743179 305.51831643 229.10546875 311.71484375 C235.08829595 317.20377903 239.16243765 323.5236308 240.40625 331.65625 C240.7492134 341.3735462 239.31848287 352.43578903 232.8828125 360.01953125 C231.42983352 361.54787221 229.96371354 363.06372707 228.4921875 364.57421875 C222.71479645 370.61268724 219.81530778 374.90891389 218 383 C214.89201079 392.52234993 209.76027864 401.23213636 205 410 C204.34 410 203.68 410 203 410 C202.74734375 411.01578125 202.4946875 412.0315625 202.234375 413.078125 C201.11334595 416.99189309 199.33386153 420.24458951 197.25 423.75 C196.52476317 424.97710988 195.80081768 426.20498381 195.078125 427.43359375 C194.72298828 428.0354248 194.36785156 428.63725586 194.00195312 429.25732422 C192.57990058 431.73066999 191.29993892 434.2733336 190 436.8125 C182.6755007 449.93554771 182.6755007 449.93554771 176.15059686 451.82520831 C172.6727661 452.14739194 169.29727086 452.17586404 165.80496216 452.10920715 C164.46872442 452.11600405 163.13250196 452.12674293 161.79632366 452.14106196 C158.13878313 452.16885883 154.4835111 452.14076692 150.82613683 452.10322678 C146.87642977 452.07251691 142.92695447 452.09387202 138.97720337 452.10865784 C131.24489047 452.12939307 123.5134541 452.1022123 115.78126396 452.05881897 C106.77219687 452.01006482 97.76331146 452.00891906 88.75413547 452.00972112 C72.67525959 452.00953491 56.59678793 451.96626354 40.51806641 451.89868164 C24.92620924 451.83318512 9.33467265 451.79774504 -6.25732422 451.79614258 C-7.21735497 451.79603968 -8.17738571 451.79593678 -9.1665083 451.79583076 C-10.1248996 451.7957325 -11.08329091 451.79563424 -12.07072437 451.795533 C-29.83327808 451.79355064 -47.59570139 451.76528433 -65.35820403 451.72361616 C-71.63338454 451.70941927 -77.9085486 451.70262942 -84.18374252 451.69800758 C-91.83596707 451.69178085 -99.48798189 451.67013744 -107.14010416 451.62962428 C-111.04212621 451.6092242 -114.94389739 451.59494898 -118.84597778 451.59794617 C-122.4226683 451.60045868 -125.99878636 451.584323 -129.57534207 451.5536811 C-131.47232459 451.54206206 -133.36939557 451.54975547 -135.2663945 451.5582841 C-142.73762275 451.4699927 -148.25759689 450.14038332 -155 447 C-157.01277143 446.42910483 -159.03296249 445.88308229 -161.0625 445.375 C-166.91099665 443.63022176 -171.94070104 441.05403246 -177.1875 438 C-177.9307251 437.57251465 -178.6739502 437.1450293 -179.43969727 436.70458984 C-180.13377686 436.2864502 -180.82785645 435.86831055 -181.54296875 435.4375 C-182.16196045 435.06496094 -182.78095215 434.69242187 -183.41870117 434.30859375 C-185.300833 432.75104758 -185.94116231 431.17391657 -187 429 C-188.6635479 428.32558869 -190.33066942 427.6599679 -192 427 C-193.70613083 425.37375489 -195.36718853 423.69984772 -197 422 C-197.86238281 421.13503906 -198.72476563 420.27007812 -199.61328125 419.37890625 C-209.41945873 409.14699024 -215.50170922 398.52809096 -219.98046875 385.046875 C-220.76147687 382.71282774 -221.5917724 380.53791328 -222.625 378.3125 C-227.9402556 365.50756604 -229.39407097 351.6281806 -229.375 337.875 C-229.37411377 336.70791504 -229.37322754 335.54083008 -229.37231445 334.33837891 C-229.05109236 310.58098829 -221.24415652 287.3970644 -206 269 C-205.46117187 268.33355469 -204.92234375 267.66710937 -204.3671875 266.98046875 C-203.62855469 266.09294922 -203.62855469 266.09294922 -202.875 265.1875 C-202.37742188 264.58292969 -201.87984375 263.97835938 -201.3671875 263.35546875 C-200 262 -200 262 -198 262 C-197.6596875 261.1646875 -197.6596875 261.1646875 -197.3125 260.3125 C-195.04399551 256.31561114 -192.38100054 253.46033351 -188 252 C-187.9175 251.071875 -187.835 250.14375 -187.75 249.1875 C-186.59770707 241.26548608 -183.23748536 234.00775354 -179.23828125 227.1484375 C-177.33281621 223.84242561 -175.68114369 220.42455195 -174 217 C-173.34 217 -172.68 217 -172 217 C-171.7525 216.13375 -171.505 215.2675 -171.25 214.375 C-169.61697747 209.96583916 -167.45658076 206.44753367 -164.11328125 203.125 C-161.90693412 200.90641804 -159.99638816 198.58352713 -158.0625 196.125 C-157.37027344 195.25359375 -156.67804688 194.3821875 -155.96484375 193.484375 C-154.78814656 191.99654317 -153.61309747 190.5074023 -152.44140625 189.015625 C-151.33817231 187.64067469 -150.17545428 186.31374301 -149 185 C-148.34 185 -147.68 185 -147 185 C-147 184.34 -147 183.68 -147 183 C-146.34 183 -145.68 183 -145 183 C-145 182.34 -145 181.68 -145 181 C-143.609375 179.6328125 -143.609375 179.6328125 -141.75 178.125 C-139.74695188 176.46978659 -137.87253355 174.86842173 -136.0625 173 C-133.45588507 170.4723734 -130.57429616 168.45561737 -127.609375 166.3671875 C-127.07828125 165.91601562 -126.5471875 165.46484375 -126 165 C-126 161.72245086 -128.40969297 159.75524931 -130.39453125 157.265625 C-132.25954671 154.63372971 -133.58146054 151.89542501 -135 149 C-136.153467 147.03386307 -137.32035956 145.07554582 -138.5 143.125 C-140.83860599 139.1439768 -142.85355576 135.34632257 -144.328125 130.9765625 C-145.10493785 128.6912875 -146.01674146 126.48106876 -146.9375 124.25 C-150.88766879 114.37457801 -153.8943399 104.42803095 -156 94 C-156.29390625 92.5459375 -156.29390625 92.5459375 -156.59375 91.0625 C-157.84544079 83.99412848 -158.35822202 76.90858152 -158.75 69.75 C-158.80687988 68.82711182 -158.86375977 67.90422363 -158.92236328 66.95336914 C-159.19752544 60.94458291 -158.52304069 55.79776416 -157 50 C-156.70091005 48.52231645 -156.40839508 47.04327368 -156.125 45.5625 C-153.59576268 34.39494445 -148.62920595 24.60827859 -139 18 C-136.06061834 16.66948444 -133.12749072 15.77793047 -130 15 C-129.34644531 14.80921875 -128.69289063 14.6184375 -128.01953125 14.421875 C-118.73134383 12.481596 -106.86699682 16.94396173 -98.9375 21.6875 C-97.968125 22.450625 -96.99875 23.21375 -96 24 C-96 24.66 -96 25.32 -96 26 C-95.195625 26.268125 -94.39125 26.53625 -93.5625 26.8125 C-92.716875 27.204375 -91.87125 27.59625 -91 28 C-90.67 28.99 -90.34 29.98 -90 31 C-89.071875 31.4640625 -89.071875 31.4640625 -88.125 31.9375 C-85.56387995 33.21806002 -84.50520688 34.59166899 -83 37 C-83 37.66 -83 38.32 -83 39 C-82.34 39 -81.68 39 -81 39 C-76.60726891 44.18255713 -73.31092105 49.8863539 -70.82421875 56.1875 C-70.03951553 58.19446541 -70.03951553 58.19446541 -68 60 C-68.02356567 59.10414185 -68.02356567 59.10414185 -68.04760742 58.19018555 C-68.52323004 37.20057798 -68.52539524 15.5705453 -54.625 -1.5625 C-37.84070878 -18.60672493 -17.32030325 -13.63783408 0 0 Z " fill="#ECC8CF" transform="translate(229,13)"/>
<path d="M0 0 C17.87370036 17.06248855 23.68435177 45.41498933 28.32421875 68.984375 C28.92685948 71.97254129 28.92685948 71.97254129 29.95703125 74.640625 C33.10412051 84.777317 33.35748446 95.15275738 33.5625 105.6875 C33.62034695 108.37912183 33.68565086 111.07031508 33.75390625 113.76171875 C33.77783447 114.93694092 33.8017627 116.11216309 33.82641602 117.32299805 C33.69910128 119.91905805 33.69910128 119.91905805 35 121 C36.4322868 121.17959886 37.87210131 121.29991176 39.3125 121.39453125 C48.47580057 122.06744964 57.4830373 122.79731847 66.4375 124.9375 C67.10330078 125.09516846 67.76910156 125.25283691 68.45507812 125.4152832 C71.6659393 126.23149983 74.69026778 127.24481791 77.71484375 128.578125 C80.34648858 129.71714845 82.34162753 130.38992321 85.125 130.8125 C90.43452923 131.88348196 95.04099437 134.20525315 99.8984375 136.54296875 C102.47386509 137.75283587 105.00924445 138.80043667 107.6875 139.75 C111 141 111 141 113 143 C114.27316774 143.5263529 115.56826431 144.00109959 116.875 144.4375 C120.07067752 145.58496051 122.3443897 146.85837879 125 149 C126.69149236 149.97012062 128.38360587 150.9391918 130.08032227 151.90014648 C147.42214422 161.83590992 169.35822889 178.27976037 178 196.875 C179.23548519 199.45173176 180.51036814 201.88902838 181.9375 204.375 C182.62840705 205.58138847 183.31568098 206.78986233 184 208 C184.391875 208.69222656 184.78375 209.38445312 185.1875 210.09765625 C188.92527022 217.09429488 191.20633187 224.43107213 193.41357422 232.01123047 C193.95238107 233.838508 194.52349381 235.65617793 195.09765625 237.47265625 C199.45952997 251.65289212 201.25673123 265.56088303 201.3125 280.375 C201.32071777 281.98918823 201.32071777 281.98918823 201.32910156 283.63598633 C201.28340949 288.59712137 201.19968887 292.4621906 199 297 C197.1953125 298.3984375 197.1953125 298.3984375 195.125 299.375 C194.44695312 299.71273438 193.76890625 300.05046875 193.0703125 300.3984375 C190.59247599 301.11841264 189.39036311 300.92164516 187 300 C186.195625 299.319375 185.39125 298.63875 184.5625 297.9375 C179.85797178 294.64433025 173.44107031 295.07386037 168 296 C164.50988412 298.23977817 162.50033917 300.26272059 160.875 304.0625 C159.61480845 306.96763185 158.35510648 308.86443734 156 311 C153.83762315 305.18861221 153.24176768 299.49488507 152.5625 293.36328125 C152.2161278 289.88018818 152.2161278 289.88018818 150 287 C149.66993641 285.19734502 149.4073726 283.38188533 149.1875 281.5625 C148.31498087 275.73151853 146.47722395 270.83627061 144.0234375 265.49609375 C143 263 143 263 143 260 C144.11375 259.1646875 144.11375 259.1646875 145.25 258.3125 C149.33257753 254.87942344 151.47460335 251.04093212 152.38671875 245.76171875 C152.67036069 240.09866068 151.43408165 235.53557954 148 231 C141.47409774 224.48738879 133.14644924 220.29273523 124 219 C122.04072337 219.17737184 120.08242676 219.36576118 118.125 219.5625 C109.52997321 219.66957281 104.28392188 215.18622595 97.69677734 210.24365234 C94.68052468 208.03289104 91.46802537 206.17731016 88.23828125 204.30078125 C86.78018513 203.45340602 85.33855643 202.57682503 83.91796875 201.66796875 C78.09643883 198.09296614 72.03475956 196.48577006 65.453125 194.89453125 C62 194 62 194 59.6484375 193.015625 C47.08841226 188.19909615 32.54129703 187.32111008 19.20947266 187.046875 C17.09005016 187.00191046 14.97376614 186.92485256 12.85546875 186.84375 C-13.58738721 186.22095457 -39.40932829 196.22384891 -59 214 C-59.87269531 214.76570312 -60.74539062 215.53140625 -61.64453125 216.3203125 C-78.13440587 230.90655842 -92.34210227 247.64881072 -99 269 C-100.66675781 269.25523437 -100.66675781 269.25523437 -102.3671875 269.515625 C-109.83875982 270.71269059 -116.87070965 271.90430775 -123.8125 275.046875 C-126.01958874 276.00853509 -128.17913138 276.62143141 -130.5 277.25 C-144.82667093 281.94975449 -154.98757016 297.39193737 -162 310 C-163.31755886 313.29389714 -164.21499771 316.54726634 -165 320 C-165.37125 321.093125 -165.7425 322.18625 -166.125 323.3125 C-171.74182021 340.56416209 -168.58857254 363.4457379 -160.453125 379.49609375 C-154.49694997 389.75928782 -147.18792889 396.7494248 -138 404 C-136.700625 405.05960937 -136.700625 405.05960937 -135.375 406.140625 C-131.41221877 409.32691531 -127.64831593 411.87794273 -123 414 C-121.39318359 414.95132813 -121.39318359 414.95132813 -119.75390625 415.921875 C-106.51747655 423.5124424 -90.86180405 424.50525693 -76 426 C-77.12804171 428.38585813 -78.11182629 430.12673646 -79.875 432.125 C-82.80235698 436.08554179 -84.32012355 440.3982108 -86 445 C-88.10353495 445.0810206 -90.20795952 445.13919907 -92.3125 445.1875 C-94.07013672 445.23970703 -94.07013672 445.23970703 -95.86328125 445.29296875 C-99.4314617 444.95970158 -99.70243821 444.48486302 -102 442 C-104.64174758 441.26664491 -104.64174758 441.26664491 -107.6875 440.9375 C-108.84765625 440.77894531 -110.0078125 440.62039063 -111.203125 440.45703125 C-113.77425563 440.1475433 -116.34731288 439.85372798 -118.921875 439.57421875 C-137.34907139 437.55128203 -155.93050163 432.10740554 -171 421 C-172.5159375 420.13375 -172.5159375 420.13375 -174.0625 419.25 C-174.701875 418.8375 -175.34125 418.425 -176 418 C-176 417.34 -176 416.68 -176 416 C-176.56074219 415.7628125 -177.12148437 415.525625 -177.69921875 415.28125 C-195.14612525 405.56548543 -204.52752214 381.4866118 -210.08764648 363.47705078 C-212.6735749 354.01425106 -213.5760421 345.29332949 -213.41162109 335.49853516 C-213.37478581 333.23684845 -213.37060615 330.97680181 -213.37109375 328.71484375 C-213.31784964 317.33587128 -212.43497118 306.4653876 -208.1875 295.8125 C-207.92324219 295.13179443 -207.65898437 294.45108887 -207.38671875 293.74975586 C-205.33094637 288.57140853 -202.97541616 283.71802749 -200 279 C-199.39478516 277.96939453 -199.39478516 277.96939453 -198.77734375 276.91796875 C-188.232724 259.85597469 -172.55145023 247.41722218 -153.0390625 242.33984375 C-145.55906341 240.685937 -138.31661195 240.66200159 -130.6875 240.8125 C-129.34962475 240.82760164 -128.01173266 240.84128019 -126.67382812 240.85351562 C-123.44877252 240.88844403 -120.22461852 240.93748876 -117 241 C-117 239.68 -117 238.36 -117 237 C-131.17455032 233.35883111 -145.92074488 233.74973642 -159.83203125 238.04296875 C-163.58702832 239.17733901 -167.10245871 239.68183336 -171 240 C-169.48600796 234.90529663 -167.30474933 230.41560746 -164.8125 225.75 C-164.4110376 224.99638184 -164.0095752 224.24276367 -163.59594727 223.46630859 C-160.4539608 217.65928334 -156.9639473 212.28229381 -153 207 C-152.37480469 206.12214844 -151.74960938 205.24429688 -151.10546875 204.33984375 C-144.81561868 195.51916643 -138.48803898 186.70819736 -130.109375 179.75390625 C-127.61064218 177.67625618 -125.2161659 175.49926705 -122.8125 173.3125 C-113.83867233 165.15052103 -113.83867233 165.15052103 -109 163 C-108.65614808 158.1930905 -109.34184334 155.76492649 -112.0625 151.8125 C-112.701875 150.85859375 -113.34125 149.9046875 -114 148.921875 C-114.66 147.95765625 -115.32 146.9934375 -116 146 C-129.54006083 125.57318409 -137.1550086 103.84118132 -141.5703125 79.828125 C-141.83261265 77.9918683 -141.83261265 77.9918683 -143 77 C-144.06695558 62.81022656 -144.11276107 48.4099408 -139 35 C-138.69964844 34.12601563 -138.39929688 33.25203125 -138.08984375 32.3515625 C-135.95132124 26.77844322 -132.79659931 22.58471965 -128 19 C-121.29394559 16.03386055 -113.73090663 15.76544209 -106.7890625 18.0625 C-87.32484301 26.56942728 -75.04557511 41.77748307 -67.0859375 61.234375 C-66.62588597 62.49825282 -66.17716902 63.76633879 -65.7421875 65.0390625 C-64.51263199 68.28767757 -62.88002459 71.33046546 -61.28125 74.41015625 C-59.72451265 77.55685401 -58.36479553 80.76557386 -57 84 C-56.505 85.155 -56.01 86.31 -55.5 87.5 C-54 91 -52.5 94.5 -51 98 C-50.50371094 99.14082031 -50.00742188 100.28164062 -49.49609375 101.45703125 C-47.92769839 105.17122078 -46.47178507 108.91087544 -45.0625 112.6875 C-44.80452637 113.37650391 -44.54655273 114.06550781 -44.28076172 114.77539062 C-42.04085735 120.80236418 -39.97059353 126.87956834 -38 133 C-36.35 133.33 -34.7 133.66 -33 134 C-33.43734899 128.20512583 -34.81506652 123.47120774 -36.89453125 118.05859375 C-38.48420276 113.66031535 -39.67188969 109.16937845 -40.875 104.65234375 C-41.74272587 101.83524761 -42.70461276 99.39245412 -43.890625 96.71875 C-46.72656567 89.74662406 -47.95035382 82.42841256 -49.29248047 75.05395508 C-49.7440575 72.5948603 -50.22443257 70.14262203 -50.70703125 67.68945312 C-54.70424829 46.57804314 -55.94753308 21.16313093 -44.25 2.25 C-39.98658159 -3.68681013 -35.48056644 -8.7363439 -28.1875 -10.5625 C-16.28823993 -12.1248456 -8.74640915 -7.81568621 0 0 Z " fill="#FDFDFD" transform="translate(222,19)"/>
<path d="M0 0 C4 4.4717608 4 4.4717608 4 7 C4.99 7.33 5.98 7.66 7 8 C8.29344529 10.21943454 9.41751618 12.36890475 10.5 14.6875 C10.94279297 15.60692383 10.94279297 15.60692383 11.39453125 16.54492188 C11.98441963 17.77017462 12.56973398 18.99764031 13.15039062 20.22729492 C13.94495471 21.88514832 14.7834683 23.5217365 15.625 25.15625 C16.8609335 27.71238518 17.74021134 30.08540143 18.5 32.8125 C19.41692313 36.00510281 20.3680192 39.16764834 21.4375 42.3125 C25.05168702 53.0985894 28.03146605 63.90272914 30.52880859 74.99316406 C30.99483008 76.97798097 31.51899143 78.94102778 32.046875 80.91015625 C33.18619179 85.44029682 33.68654732 89.98118292 34.125 94.625 C34.20991699 95.4922168 34.29483398 96.35943359 34.38232422 97.25292969 C35.04911252 104.52186128 35.21754895 111.70002415 35 119 C35.55236328 119.03963867 36.10472656 119.07927734 36.67382812 119.12011719 C63.27522992 121.11467134 86.99574504 128.83077932 110.734375 140.88671875 C112.62052463 141.81353365 114.55601714 142.63907847 116.5 143.4375 C124.37897926 146.95490145 131.3482252 151.82228232 138.2421875 156.96875 C139.96750966 158.23952553 141.71976711 159.47536021 143.5078125 160.65625 C150.11100682 165.09876605 155.66626594 170.34769978 161.3125 175.9375 C162.07763916 176.6888623 162.84277832 177.44022461 163.63110352 178.21435547 C169.79095265 184.42473382 174.9042383 190.75094416 178 199 C178.66 199 179.32 199 180 199 C186.06787614 210.86473052 191.79388214 222.57050791 195.625 235.375 C195.81924561 236.02202881 196.01349121 236.66905762 196.21362305 237.33569336 C199.60328506 249.11825633 201.51853926 260.76694967 202.25 273 C202.34023438 274.25039063 202.43046875 275.50078125 202.5234375 276.7890625 C203.07124799 285.32430335 202.82259915 293.49216179 202 302 C202.60851807 301.96890137 203.21703613 301.93780273 203.84399414 301.90576172 C213.80705747 301.47479238 221.49743179 305.51831643 229.10546875 311.71484375 C235.08829595 317.20377903 239.16243765 323.5236308 240.40625 331.65625 C240.7492134 341.3735462 239.31848287 352.43578903 232.8828125 360.01953125 C231.42983352 361.54787221 229.96371354 363.06372707 228.4921875 364.57421875 C222.71479645 370.61268724 219.81530778 374.90891389 218 383 C214.89201079 392.52234993 209.76027864 401.23213636 205 410 C204.34 410 203.68 410 203 410 C202.74734375 411.01578125 202.4946875 412.0315625 202.234375 413.078125 C201.11334595 416.99189309 199.33386153 420.24458951 197.25 423.75 C196.52476317 424.97710988 195.80081768 426.20498381 195.078125 427.43359375 C194.72298828 428.0354248 194.36785156 428.63725586 194.00195312 429.25732422 C192.57990058 431.73066999 191.29993892 434.2733336 190 436.8125 C184.03679793 447.55901923 184.03679793 447.55901923 179 451 C174.88479007 451.71788675 171.12718292 451.55716969 167 451 C167.86625 450.030625 168.7325 449.06125 169.625 448.0625 C172.67889924 444.52373998 175.21271063 440.77016325 177.703125 436.8203125 C179 435 179 435 181 434 C181.72937641 432.04394509 182.45473656 430.08617702 183.1484375 428.1171875 C184.35089411 425.12759354 186.19099815 422.65697147 188 420 C189.10260935 417.69666776 190.05072737 415.37318158 191 413 C191.66 413 192.32 413 193 413 C193.08636719 412.31808594 193.17273438 411.63617188 193.26171875 410.93359375 C194.18418784 407.26812132 195.90237804 404.28301416 197.8125 401.0625 C198.15603516 400.46759766 198.49957031 399.87269531 198.85351562 399.25976562 C200.52715685 396.38662919 202.24703257 393.64907106 204.1640625 390.92578125 C206.05211396 387.91695031 206.83394045 385.57993021 207.5625 382.125 C207.80871094 381.08085937 208.05492187 380.03671875 208.30859375 378.9609375 C208.65083984 377.49527344 208.65083984 377.49527344 209 376 C210.58777487 369.2548542 213.66615922 366.02845966 219.0390625 361.6640625 C221.09245954 360.14225361 221.09245954 360.14225361 222 358 C222.66 358 223.32 358 224 358 C224.1340625 357.4328125 224.268125 356.865625 224.40625 356.28125 C225.20726503 353.20366594 226.25137657 350.22598042 227.28125 347.21875 C228.68289246 342.89194068 229.18647006 339.1419499 229.25 334.5625 C229.27578125 333.45003906 229.3015625 332.33757812 229.328125 331.19140625 C228.96666759 327.67580259 227.9425083 325.89842686 226 323 C226 322.34 226 321.68 226 321 C225.401875 320.731875 224.80375 320.46375 224.1875 320.1875 C222 319 222 319 220.5625 317.55859375 C214.54856689 311.55969547 206.89946873 311.19758893 198.87890625 310.94921875 C194.24230691 311.00991945 190.42264688 311.65741077 186 313 C186.33 314.98 186.66 316.96 187 319 C188.051875 319.103125 189.10375 319.20625 190.1875 319.3125 C197.35505978 320.60501078 201.75052278 325.2455107 207 330 C206.125 334.875 206.125 334.875 205 336 C202.75 336.375 202.75 336.375 200 336 C197.5 333.6875 197.5 333.6875 195 331 C192.07039674 328.94135987 189.312468 327.76873975 185.9375 326.6875 C181.6651542 325.13757004 180.11684797 323.07689239 178 319 C177.505 317.783125 177.01 316.56625 176.5 315.3125 C174.97685871 311.94889632 174.28321865 310.5947062 171 309 C166.89718519 308.58134543 165.48868651 308.67420899 162 311 C157.50824679 318.3515738 157.70601084 325.37240897 158.4375 333.6875 C159.38480744 345.03503382 157.23115242 351.44423272 151.1875 360.9375 C150.74535156 361.63681641 150.30320312 362.33613281 149.84765625 363.05664062 C146.77200207 367.88146071 143.66772197 372.59873364 140 377 C139.34 377 138.68 377 138 377 C137.67 377.99 137.34 378.98 137 380 C133.5647952 382.29013653 132.014669 382.17842973 128 382 C127.21484375 379.796875 127.21484375 379.796875 127 377 C128.87890625 374.640625 128.87890625 374.640625 131.5625 372.25 C136.25669755 367.80424187 139.78943661 363.59259429 143 358 C143.96679688 356.40671875 143.96679688 356.40671875 144.953125 354.78125 C149.71272027 346.52379247 150.45061414 340.46466276 149 331 C148.46304486 321.02797594 150.17839283 313.27360192 156 305 C158.72673687 302.30147075 160.31306574 301.11692498 164.12109375 300.46875 C170.81005271 300.53177906 174.85152774 300.6436004 180 305 C182.42126365 305.94049084 183.59978783 306.12102891 186.10546875 305.36328125 C186.79253906 305.01652344 187.47960937 304.66976563 188.1875 304.3125 C188.88230469 303.97863281 189.57710938 303.64476562 190.29296875 303.30078125 C192.49217409 301.62495659 192.51307972 300.69021259 193 298 C194.73626066 271.62725279 190.52121605 243.95292334 179 220 C178.50371094 218.95328125 178.00742187 217.9065625 177.49609375 216.828125 C174.96410538 211.62453988 172.33997411 206.72203236 169 202 C168.57460938 201.25234375 168.14921875 200.5046875 167.7109375 199.734375 C165.67442093 196.47966815 163.30419913 193.59562477 160.8125 190.6875 C160.07676758 189.82656738 160.07676758 189.82656738 159.32617188 188.94824219 C147.44601221 175.16570402 133.7883408 164.93679668 118 156 C116.62227405 155.12929844 115.24736301 154.25413012 113.875 153.375 C110.99094115 151.55231926 108.19696507 150.20966246 105 149 C104.23429687 148.52691406 103.46859375 148.05382812 102.6796875 147.56640625 C100.08079567 146.04722895 97.65273035 145.04000912 94.8125 144.0625 C91.16000053 142.78143593 87.57117999 141.42976341 84 139.9375 C79.62846374 138.16394488 75.22339469 136.89967247 70.66015625 135.71875 C68.18803987 135.05080666 65.79277309 134.27846455 63.375 133.4375 C54.22107478 130.33339706 45.15644866 129.46273324 35.55664062 128.7890625 C34.13834961 128.67691406 34.13834961 128.67691406 32.69140625 128.5625 C31.83748291 128.50191406 30.98355957 128.44132813 30.10375977 128.37890625 C28 128 28 128 26 126 C25.72875977 123.27294922 25.72875977 123.27294922 25.69140625 119.8046875 C25.66828369 118.53810303 25.64516113 117.27151855 25.62133789 115.96655273 C25.60757614 114.96288162 25.60757614 114.96288162 25.59353638 113.93893433 C25.49249588 95.31290499 25.49249588 95.31290499 20.953125 77.390625 C19.99245233 74.98106897 19.56269218 72.87287739 19.1875 70.3125 C17.76277572 62.04242079 15.37968045 54.03670187 13 46 C12.80535156 45.33387695 12.61070312 44.66775391 12.41015625 43.98144531 C7.1292857 26.1630597 -0.36337445 9.84739568 -16.3984375 -0.65234375 C-23.12421641 -4.13641841 -30.32879343 -4.78680165 -37.65234375 -2.94140625 C-46.45477006 0.58835205 -51.14473949 8.85020814 -54.96484375 17.078125 C-61.93307479 35.24406065 -59.89108906 57.50409694 -56.22900391 76.11938477 C-55.74466151 78.58972848 -55.29058983 81.06434338 -54.83984375 83.54101562 C-53.44751177 90.99060779 -51.96762165 98.04150019 -48.87939453 105.00610352 C-47.63707789 107.82287198 -46.85531015 110.71720208 -46.0625 113.6875 C-45.01399892 117.52081995 -43.92123615 121.30695758 -42.6015625 125.0546875 C-42.36687256 125.72411377 -42.13218262 126.39354004 -41.89038086 127.08325195 C-41.22160474 128.96646418 -40.53890342 130.84471407 -39.85546875 132.72265625 C-38.99274969 136.0277763 -39.0072035 137.77797946 -40 141 C-42.25 141.0625 -42.25 141.0625 -45 140 C-48.07979861 135.4080981 -49.38611451 129.80618297 -50.9375 124.5625 C-52.40048897 119.6327395 -54.22971119 115.33668394 -56.640625 110.8125 C-58.70632653 106.53863476 -60.27394578 102.09162882 -61.85693359 97.61987305 C-63.23657526 93.78454475 -64.8541495 90.45429593 -67 87 C-67.68182728 85.41079801 -68.32829973 83.80593332 -68.9375 82.1875 C-70.45435365 78.28536503 -72.15485605 74.57501791 -74.0703125 70.85546875 C-74.92760062 69.14449457 -75.68758047 67.38568062 -76.4375 65.625 C-76.953125 64.42875 -77.46875 63.2325 -78 62 C-78.433125 60.96166016 -78.433125 60.96166016 -78.875 59.90234375 C-84.35720217 47.82940588 -93.04803737 35.2040722 -105 29 C-105.95777344 28.49984375 -106.91554688 27.9996875 -107.90234375 27.484375 C-116.00942035 23.68646524 -123.55351595 22.45795082 -132.25 25 C-138.05290795 27.58039144 -141.74886828 32.13136154 -144.25390625 37.875 C-145.30056683 40.90297748 -146.20609291 43.89586089 -147 47 C-147.17805176 47.62841797 -147.35610352 48.25683594 -147.53955078 48.90429688 C-149.32342031 55.78651932 -149.29634605 62.54950308 -149.25 69.625 C-149.25773437 70.81351562 -149.26546875 72.00203125 -149.2734375 73.2265625 C-149.26007299 79.21386424 -148.95921403 84.28681749 -147 90 C-146.52118088 92.4335587 -146.06322922 94.87130545 -145.625 97.3125 C-144.61416726 102.6447245 -143.21789012 107.49911336 -141.03125 112.46875 C-139.80869224 115.4695736 -138.94872541 118.50891712 -138.0625 121.625 C-136.650136 126.34949605 -134.9954738 130.13726538 -132.2109375 134.1875 C-130.99279034 136.01079123 -130.05980745 137.83102779 -129.125 139.8125 C-126.14559406 145.95224746 -122.30255498 151.6555389 -118.4375 157.26953125 C-117.98375 157.94371094 -117.53 158.61789063 -117.0625 159.3125 C-116.66160156 159.88613281 -116.26070313 160.45976562 -115.84765625 161.05078125 C-114.60376947 163.91114763 -114.56283269 165.91977529 -115 169 C-116.984375 170.94921875 -116.984375 170.94921875 -119.75 172.6875 C-125.03688066 176.21894428 -129.55292344 180.10074933 -134.11425781 184.49487305 C-137.8022987 188 -137.8022987 188 -140 188 C-140.33 188.99 -140.66 189.98 -141 191 C-142.64074219 192.69219403 -144.31195325 194.35499127 -146 196 C-147.73205524 197.97949171 -149.44011874 199.9802035 -151.125 202 C-151.97320312 203.010625 -152.82140625 204.02125 -153.6953125 205.0625 C-155.96771982 207.83312943 -155.96771982 207.83312943 -157.4387207 210.39892578 C-158.93791134 212.89656097 -160.56551045 215.20525969 -162.28515625 217.5546875 C-166.22670881 223.14399776 -169.34913525 229.03352023 -172.4375 235.125 C-173.24864258 236.7028125 -173.24864258 236.7028125 -174.07617188 238.3125 C-175.39068507 240.87172924 -176.69846869 243.43415148 -178 246 C-177.09378906 245.73445313 -176.18757813 245.46890625 -175.25390625 245.1953125 C-173.42666016 244.66550781 -173.42666016 244.66550781 -171.5625 244.125 C-170.36753906 243.77695312 -169.17257813 243.42890625 -167.94140625 243.0703125 C-160.22141488 240.93957921 -153.16364827 239.66306213 -145.125 239.75 C-144.25456055 239.75386719 -143.38412109 239.75773438 -142.48730469 239.76171875 C-136.17583756 239.84640485 -130.13244108 240.42469403 -124 242 C-123.61781233 243.65614657 -123.28604898 245.32457024 -123 247 C-124 248 -124 248 -126.53759766 248.05004883 C-127.65183105 248.01935303 -128.76606445 247.98865723 -129.9140625 247.95703125 C-149.34030162 247.29543884 -149.34030162 247.29543884 -168 252 C-168.64678711 252.26312988 -169.29357422 252.52625977 -169.95996094 252.79736328 C-188.04490716 260.35914747 -202.23407979 274.33022939 -210.05078125 292.43359375 C-210.72672079 294.10647888 -211.38556753 295.78636974 -212.02734375 297.47265625 C-212.66950136 299.14123446 -213.34882464 300.79603573 -214.06640625 302.43359375 C-218.97797256 313.76100683 -219.3274186 325.26637524 -219.26074219 337.41943359 C-219.24995229 339.76035062 -219.26073383 342.10051134 -219.2734375 344.44140625 C-219.27211676 345.95573083 -219.26955615 347.47005495 -219.265625 348.984375 C-219.26967346 349.67102234 -219.27372192 350.35766968 -219.27789307 351.06512451 C-219.23048326 356.0389131 -218.33489086 360.24712237 -217 365 C-216.57460937 366.53333984 -216.57460937 366.53333984 -216.140625 368.09765625 C-210.16408712 387.99323631 -202.00207697 407.04941015 -185.16796875 420.21484375 C-184.45253906 420.80394531 -183.73710937 421.39304687 -183 422 C-183 422.66 -183 423.32 -183 424 C-182.25234375 424.27457031 -181.5046875 424.54914063 -180.734375 424.83203125 C-178.21029816 425.91017264 -176.42489804 427.04733929 -174.25 428.6875 C-157.54746741 440.05411536 -135.38478612 444.86997193 -115.49853516 446.16259766 C-114.30236572 446.24646729 -114.30236572 446.24646729 -113.08203125 446.33203125 C-112.36893799 446.36659424 -111.65584473 446.40115723 -110.92114258 446.43676758 C-108.25833795 447.21743733 -107.45310045 448.7141952 -106 451 C-111.37104009 451.09964824 -116.74152986 451.17183292 -122.11328125 451.21972656 C-123.93661892 451.23971364 -125.75989356 451.26691286 -127.58300781 451.30175781 C-146.02434219 451.64513425 -146.02434219 451.64513425 -155 447 C-157.01277143 446.42910483 -159.03296249 445.88308229 -161.0625 445.375 C-166.91099665 443.63022176 -171.94070104 441.05403246 -177.1875 438 C-177.9307251 437.57251465 -178.6739502 437.1450293 -179.43969727 436.70458984 C-180.13377686 436.2864502 -180.82785645 435.86831055 -181.54296875 435.4375 C-182.16196045 435.06496094 -182.78095215 434.69242187 -183.41870117 434.30859375 C-185.300833 432.75104758 -185.94116231 431.17391657 -187 429 C-188.6635479 428.32558869 -190.33066942 427.6599679 -192 427 C-193.70613083 425.37375489 -195.36718853 423.69984772 -197 422 C-197.86238281 421.13503906 -198.72476563 420.27007812 -199.61328125 419.37890625 C-209.41945873 409.14699024 -215.50170922 398.52809096 -219.98046875 385.046875 C-220.76147687 382.71282774 -221.5917724 380.53791328 -222.625 378.3125 C-227.9402556 365.50756604 -229.39407097 351.6281806 -229.375 337.875 C-229.37411377 336.70791504 -229.37322754 335.54083008 -229.37231445 334.33837891 C-229.05109236 310.58098829 -221.24415652 287.3970644 -206 269 C-205.46117187 268.33355469 -204.92234375 267.66710937 -204.3671875 266.98046875 C-203.62855469 266.09294922 -203.62855469 266.09294922 -202.875 265.1875 C-202.37742188 264.58292969 -201.87984375 263.97835938 -201.3671875 263.35546875 C-200 262 -200 262 -198 262 C-197.6596875 261.1646875 -197.6596875 261.1646875 -197.3125 260.3125 C-195.04399551 256.31561114 -192.38100054 253.46033351 -188 252 C-187.9175 251.071875 -187.835 250.14375 -187.75 249.1875 C-186.59770707 241.26548608 -183.23748536 234.00775354 -179.23828125 227.1484375 C-177.33281621 223.84242561 -175.68114369 220.42455195 -174 217 C-173.34 217 -172.68 217 -172 217 C-171.7525 216.13375 -171.505 215.2675 -171.25 214.375 C-169.61697747 209.96583916 -167.45658076 206.44753367 -164.11328125 203.125 C-161.90693412 200.90641804 -159.99638816 198.58352713 -158.0625 196.125 C-157.37027344 195.25359375 -156.67804688 194.3821875 -155.96484375 193.484375 C-154.78814656 191.99654317 -153.61309747 190.5074023 -152.44140625 189.015625 C-151.33817231 187.64067469 -150.17545428 186.31374301 -149 185 C-148.34 185 -147.68 185 -147 185 C-147 184.34 -147 183.68 -147 183 C-146.34 183 -145.68 183 -145 183 C-145 182.34 -145 181.68 -145 181 C-143.609375 179.6328125 -143.609375 179.6328125 -141.75 178.125 C-139.74695188 176.46978659 -137.87253355 174.86842173 -136.0625 173 C-133.45588507 170.4723734 -130.57429616 168.45561737 -127.609375 166.3671875 C-127.07828125 165.91601562 -126.5471875 165.46484375 -126 165 C-126 161.72245086 -128.40969297 159.75524931 -130.39453125 157.265625 C-132.25954671 154.63372971 -133.58146054 151.89542501 -135 149 C-136.153467 147.03386307 -137.32035956 145.07554582 -138.5 143.125 C-140.83860599 139.1439768 -142.85355576 135.34632257 -144.328125 130.9765625 C-145.10493785 128.6912875 -146.01674146 126.48106876 -146.9375 124.25 C-150.88766879 114.37457801 -153.8943399 104.42803095 -156 94 C-156.29390625 92.5459375 -156.29390625 92.5459375 -156.59375 91.0625 C-157.84544079 83.99412848 -158.35822202 76.90858152 -158.75 69.75 C-158.80687988 68.82711182 -158.86375977 67.90422363 -158.92236328 66.95336914 C-159.19752544 60.94458291 -158.52304069 55.79776416 -157 50 C-156.70091005 48.52231645 -156.40839508 47.04327368 -156.125 45.5625 C-153.59576268 34.39494445 -148.62920595 24.60827859 -139 18 C-136.06061834 16.66948444 -133.12749072 15.77793047 -130 15 C-129.34644531 14.80921875 -128.69289063 14.6184375 -128.01953125 14.421875 C-118.73134383 12.481596 -106.86699682 16.94396173 -98.9375 21.6875 C-97.968125 22.450625 -96.99875 23.21375 -96 24 C-96 24.66 -96 25.32 -96 26 C-95.195625 26.268125 -94.39125 26.53625 -93.5625 26.8125 C-92.716875 27.204375 -91.87125 27.59625 -91 28 C-90.67 28.99 -90.34 29.98 -90 31 C-89.071875 31.4640625 -89.071875 31.4640625 -88.125 31.9375 C-85.56387995 33.21806002 -84.50520688 34.59166899 -83 37 C-83 37.66 -83 38.32 -83 39 C-82.34 39 -81.68 39 -81 39 C-76.60726891 44.18255713 -73.31092105 49.8863539 -70.82421875 56.1875 C-70.03951553 58.19446541 -70.03951553 58.19446541 -68 60 C-68.02356567 59.10414185 -68.02356567 59.10414185 -68.04760742 58.19018555 C-68.52323004 37.20057798 -68.52539524 15.5705453 -54.625 -1.5625 C-37.84070878 -18.60672493 -17.32030325 -13.63783408 0 0 Z " fill="#674C43" transform="translate(229,13)"/>
<path d="M0 0 C9.26822709 -0.2314742 18.97199295 0.10181311 26.53515625 6.15234375 C31.13573394 11.53934497 32.8883989 15.81529705 32.7421875 23.01953125 C31.91870104 31.50299552 26.58487515 39.70736475 20.20703125 45.1328125 C17.70441701 46.91533491 15.15767403 48.55209677 12.53515625 50.15234375 C11.70628906 50.68730469 10.87742188 51.22226562 10.0234375 51.7734375 C-2.71684452 59.79361504 -19.23944891 65.58930122 -34.46484375 63.15234375 C-37.48888709 61.85632518 -39.89649222 60.18588116 -42.46484375 58.15234375 C-43.60953125 57.53359375 -43.60953125 57.53359375 -44.77734375 56.90234375 C-48.4807654 53.06175833 -49.62264182 47.30845569 -49.77734375 42.08984375 C-48.6843923 28.31865551 -42.41319218 20.22878234 -32.46484375 11.15234375 C-31.87703125 10.61222656 -31.28921875 10.07210938 -30.68359375 9.515625 C-22.1910787 2.64795339 -10.60693059 0.46637012 0 0 Z " fill="#ED8D9D" transform="translate(121.46484375,301.84765625)"/>
<path d="M0 0 C5.50959247 4.79658639 10.59104389 9.60599237 15.15625 15.3125 C15.775 16.0446875 16.39375 16.776875 17.03125 17.53125 C20.96726373 22.32006671 23.20173809 26.44896428 25.15625 32.3125 C25.713125 33.22 26.27 34.1275 26.84375 35.0625 C28.15625 37.3125 28.15625 37.3125 28.15625 41.3125 C18.98750821 46.52201238 10.38961239 49.03381607 0.15625 51.3125 C-1.16950349 51.66971055 -2.49502241 52.02779276 -3.8203125 52.38671875 C-15.23662946 55.24079799 -25.71416638 54.16767832 -35.9296875 48.390625 C-40.87439418 44.86437305 -43.92871125 41.05761626 -45.84375 35.3125 C-46.65120536 27.2379464 -43.17442445 20.3388288 -38.3828125 14.00390625 C-30.53144817 5.37537642 -11.67959979 -6.93075153 0 0 Z " fill="#ED8D9D" transform="translate(335.84375,239.6875)"/>
<path d="M0 0 C5.07873127 3.14881339 6.99624452 6.40262846 9.140625 11.9140625 C10.02033699 14.24276453 10.02033699 14.24276453 12 17 C14.43909263 18.05611486 14.43909263 18.05611486 17.25 18.875 C22.17751084 20.55851224 25.37039861 22.27230127 29 26 C29 26.66 29 27.32 29 28 C30.98 27.34 32.96 26.68 35 26 C34.78130073 22.17276285 34.08530916 21.08143147 31.25 18.375 C26.3691537 14.67668653 21.98691454 12.52607626 16 11 C15.67 9.02 15.34 7.04 15 5 C23.71319336 1.11018154 33.77625211 0.75876115 42.8203125 4.015625 C45.03739653 5.20308017 46.99750813 6.48205113 49 8 C49.57105469 8.39445312 50.14210938 8.78890625 50.73046875 9.1953125 C54.58150224 12.06694735 57.5685508 15.39658951 59 20 C59.45312965 24.38402937 59.30863794 28.60989141 59 33 C58.98710937 33.86753906 58.97421875 34.73507812 58.9609375 35.62890625 C58.72263082 38.2370405 58.38617178 39.76772337 57 42 C50.43464314 46.85083692 42.95900239 48.85511751 35 50 C34.23429687 50.21398437 33.46859375 50.42796875 32.6796875 50.6484375 C29.06617193 51.12251389 26.01286247 50.2791519 22.5625 49.3125 C21.91990234 49.15072266 21.27730469 48.98894531 20.61523438 48.82226562 C14.25016572 47.09691199 9.56175217 44.06453344 5.3125 39.0625 C4.72210938 38.36769531 4.13171875 37.67289062 3.5234375 36.95703125 C2 35 2 35 0.4375 32.25 C-2.20199571 28.11861542 -5.66930097 26.2957109 -10.375 25.25 C-11.24125 25.1675 -12.1075 25.085 -13 25 C-15.3809155 17.85725349 -13.93318202 11.94221011 -11.265625 5.19921875 C-8.55610867 0.49101599 -5.30660041 -0.84905607 0 0 Z " fill="#FBFAFA" transform="translate(400,321)"/>
<path d="M0 0 C3.4375 1.8125 3.4375 1.8125 6 4 C6.53625 4.41121094 7.0725 4.82242187 7.625 5.24609375 C10.25019118 8.59470409 9.57477854 12.67097009 9.48828125 16.75 C8.87026718 20.86350163 7.56676998 22.90662861 4.703125 25.828125 C2.81505748 27.12725403 1.24112474 27.59075113 -1 28 C-0.59007812 28.81082031 -0.18015625 29.62164062 0.2421875 30.45703125 C6.68741842 43.70213499 7.65104782 55.48011947 7 70 C6.67 70.66 6.34 71.32 6 72 C2.125 71.125 2.125 71.125 1 70 C0.550298 66.26633969 0.17966897 62.53376439 -0.16210938 58.7890625 C-0.59121526 54.50498102 -1.1645169 50.94523378 -3 47 C-3.46861893 45.5658201 -3.92721313 44.12832012 -4.375 42.6875 C-7.8577742 32.4082441 -13.50625111 25.70633751 -21 18 C-21.86109375 17.1028125 -22.7221875 16.205625 -23.609375 15.28125 C-25.64504416 13.33871603 -27.34965872 11.99135715 -29.8125 10.6875 C-30.864375 10.130625 -31.91625 9.57375 -33 9 C-33 7.35 -33 5.7 -33 4 C-30.625 3.375 -30.625 3.375 -28 3 C-27.34 3.66 -26.68 4.32 -26 5 C-24.33927151 5.68132451 -22.672233 6.34742127 -21 7 C-20.01 7.66 -19.02 8.32 -18 9 C-17.79375 8.2575 -17.5875 7.515 -17.375 6.75 C-13.81876006 -0.36247988 -7.19951317 -1.18235907 0 0 Z " fill="#583A31" transform="translate(173,276)"/>
<path d="M0 0 C9.93858503 2.04749797 20.24975852 6.37208194 26.32421875 14.84765625 C29.11994876 19.78187448 29.95954598 24.39938469 29 30 C27.09754187 35.94250966 23.98103796 39.37742694 19 43 C15.85000042 38.95000055 13.39641804 35.23098233 11.8125 30.3125 C9.79735565 24.67222824 5.83267091 20.50186741 2 16 C0.824375 14.453125 0.824375 14.453125 -0.375 12.875 C-4.1643246 8.72478734 -8.54525774 5.40809408 -13 2 C-8.69646981 -0.86902013 -5.05191042 -0.46577897 0 0 Z " fill="#FEB1C1" transform="translate(346,237)"/>
<path d="M0 0 C5.03990667 5.36717334 9 11.4942972 9 19 C6.36 19 3.72 19 1 19 C0.76925781 18.40832031 0.53851563 17.81664062 0.30078125 17.20703125 C-2.99201584 9.22883118 -7.79852432 4.59154489 -15 0 C-15.57234375 -0.37125 -16.1446875 -0.7425 -16.734375 -1.125 C-20.01331194 -2.39134806 -23.22189746 -2.34025378 -26.6875 -2.3125 C-27.76161133 -2.30512817 -27.76161133 -2.30512817 -28.85742188 -2.29760742 C-37.45878977 -2.10752733 -43.35463351 0.20650659 -50.37109375 5.01171875 C-52 6 -52 6 -54 6 C-54.2475 6.515625 -54.495 7.03125 -54.75 7.5625 C-55.80526582 9.62026835 -56.91156026 11.62027223 -58.0625 13.625 C-59.07903244 15.39573392 -60.08689137 17.17378275 -61 19 C-63.64 19 -66.28 19 -69 19 C-68.53784553 12.83794034 -65.89147106 7.80991675 -61.4765625 3.51953125 C-60.0122902 2.31169242 -58.50689867 1.15422026 -57 0 C-56.29875 -0.70125 -55.5975 -1.4025 -54.875 -2.125 C-39.7369172 -17.2630828 -15.16742932 -12.0687072 0 0 Z " fill="#5A3C33" transform="translate(205,445)"/>
<path d="M0 0 C4.12515131 2.06257565 6.30526469 3.74399052 8 8 C8.55760357 12.45358699 8.47815116 16.62531542 7 20.875 C3.1649482 24.94974254 -1.14666547 26.71241361 -6.625 27.5625 C-11.04927063 26.82512156 -12.92558554 25.21741048 -16 22 C-18.41327809 17.94130504 -18.59987386 13.6115303 -18 9 C-14.43283068 0.73918683 -8.47697069 -1.35631531 0 0 Z " fill="#57392F" transform="translate(275,247)"/>
<path d="M0 0 C0.763125 0.226875 1.52625 0.45375 2.3125 0.6875 C3.26407895 11.63065791 -2.96198472 21.45907627 -9.6875 29.6875 C-13.60348165 32.44406715 -15.88527866 33.32175565 -20.6875 32.6875 C-30.57928527 29.54778659 -39.057746 24.66791324 -46.6875 17.6875 C-46.3575 16.3675 -46.0275 15.0475 -45.6875 13.6875 C-44.0078125 12.98828125 -44.0078125 12.98828125 -41.6875 12.6875 C-39.2421875 13.98046875 -39.2421875 13.98046875 -36.5625 15.875 C-28.02869966 21.65013182 -28.02869966 21.65013182 -18.1484375 23.65625 C-13.5062724 21.82885802 -12.04558985 17.48160145 -10.08984375 13.14453125 C-9.11021569 10.70721665 -8.13105187 8.2697154 -7.15234375 5.83203125 C-4.2076425 -0.48926076 -4.2076425 -0.48926076 0 0 Z " fill="#5B3D33" transform="translate(251.6875,284.3125)"/>
<path d="M0 0 C3.78142087 3.22272445 6.89281189 7.07916394 8 12 C7.45454545 18.54545455 7.45454545 18.54545455 6 20 C-1.0570551 21.10616538 -5.53531336 19.69806342 -11.28515625 15.60546875 C-13 14 -13 14 -14 11 C-12.35 10.34 -10.7 9.68 -9 9 C-9.21869927 5.17276285 -9.91469084 4.08143147 -12.75 1.375 C-16.58719964 -1.5533892 -20.65459649 -3.90776868 -25 -6 C-15.5021443 -9.03931382 -7.94288456 -4.87987998 0 0 Z " fill="#EAC7CD" transform="translate(444,338)"/>
<path d="M0 0 C4.33061737 -0.419092 7.69142428 0.77996737 11.70703125 2.19921875 C14.77172733 3.26951295 17.87196685 4.13479934 21 5 C20.67 6.32 20.34 7.64 20 9 C12.08882721 9.57535802 6.55509708 7.37006472 0 3 C0 2.01 0 1.02 0 0 Z " fill="#5F4239" transform="translate(403,370)"/>
<path d="M0 0 C0.66 0.33 1.32 0.66 2 1 C1.38125 1.2475 0.7625 1.495 0.125 1.75 C-2.11218222 2.80359839 -2.11218222 2.80359839 -2.89916992 4.83227539 C-4.18504876 7.36439297 -5.71639291 8.94331641 -7.73828125 10.93359375 C-8.47626953 11.66513672 -9.21425781 12.39667969 -9.97460938 13.15039062 C-10.74611328 13.90513672 -11.51761719 14.65988281 -12.3125 15.4375 C-13.07240234 16.18837891 -13.83230469 16.93925781 -14.61523438 17.71289062 C-16.08348712 19.16328452 -17.55362174 20.61177652 -19.02587891 22.05810547 C-21.36444872 24.35849927 -23.68508061 26.67583941 -26 29 C-26.66 28.67 -27.32 28.34 -28 28 C-26.38201759 25.99394062 -24.75623702 23.99523205 -23.125 22 C-22.66480469 21.42765625 -22.20460938 20.8553125 -21.73046875 20.265625 C-20.53150078 18.80601181 -19.26958455 17.3986243 -18 16 C-17.34 16 -16.68 16 -16 16 C-16 15.34 -16 14.68 -16 14 C-15.34 14 -14.68 14 -14 14 C-14 13.34 -14 12.68 -14 12 C-12.609375 10.6328125 -12.609375 10.6328125 -10.75 9.125 C-8.64832022 7.38772438 -6.68146773 5.68146773 -4.75 3.75 C-3 2 -3 2 0 0 Z " fill="#A2918B" transform="translate(98,182)"/>
<path d="M0 0 C0.66 0.33 1.32 0.66 2 1 C-2.29 5.29 -6.58 9.58 -11 14 C-11.66 13.67 -12.32 13.34 -13 13 C-9.57338216 8.28840047 -5.40481284 4.74963472 -1 1 C-0.67 0.67 -0.34 0.34 0 0 Z " fill="#E3DEDD" transform="translate(95,196)"/>
</svg>
