<?xml version="1.0" encoding="UTF-8"?>
<svg version="1.1" xmlns="http://www.w3.org/2000/svg" width="432" height="464">
<path d="M0 0 C0.66 0.04640625 1.32 0.0928125 2 0.140625 C12.54689849 1.61408876 22.83464068 9.69579824 29.3984375 17.75390625 C31.95874577 21.34458249 34.03554767 25.0576402 36 29 C36.39703125 29.73476563 36.7940625 30.46953125 37.203125 31.2265625 C44.25947294 44.58003106 48.37317764 59.05860994 52.32714844 73.56103516 C52.92807849 75.73929756 53.5545429 77.90742003 54.1953125 80.07421875 C56.85739565 89.3520715 58.05011338 98.43530003 59 108 C59.18019923 109.32450511 59.36249944 110.64872604 59.546875 111.97265625 C60.08140225 116.1591885 60.11323636 120.28497944 60.0625 124.5 C60.05798828 125.22703125 60.05347656 125.9540625 60.04882812 126.703125 C60.03721193 128.46878681 60.01928441 130.2344053 60 132 C61.03253906 132.01417969 62.06507813 132.02835938 63.12890625 132.04296875 C83.24494816 132.58993061 102.35920704 137.60961365 121 145 C121.77714355 145.30808594 122.55428711 145.61617187 123.35498047 145.93359375 C142.45643956 153.65588629 161.67705331 165.02459803 176 180 C176 180.66 176 181.32 176 182 C176.58265625 182.2475 177.1653125 182.495 177.765625 182.75 C180.33114236 184.18525446 181.83724798 185.77663013 183.75 188 C184.36359375 188.70125 184.9771875 189.4025 185.609375 190.125 C187 192 187 192 187 194 C187.58394531 194.23332031 188.16789062 194.46664062 188.76953125 194.70703125 C204.92577056 204.07255701 216.87384348 237.79698471 222.28125 254.75390625 C222.75336557 256.22926739 223.25271868 257.69623996 223.78125 259.15234375 C228.5909905 273.22083471 229.70567572 291.06253727 227.3125 305.6875 C226.63202742 310.5906312 228.02289647 314.93141814 229.23046875 319.66796875 C230.40554197 324.75597613 230.7754573 329.79341612 231 335 C231.061875 336.37285156 231.061875 336.37285156 231.125 337.7734375 C231.28409915 344.71413781 230.28978277 351.19639589 229 358 C228.55915069 360.45773491 228.12199835 362.91613436 227.6875 365.375 C227.56165527 366.0659375 227.43581055 366.756875 227.30615234 367.46875 C226.43931162 372.28568529 225.68206421 377.1098101 224.9765625 381.953125 C221.66624979 404.13694715 216.11628205 423.61801114 205.02539062 443.14697266 C202.94512788 446.90630462 201.13618517 450.80181009 199.2890625 454.6796875 C198 457 198 457 196.3984375 458.5703125 C194.69655587 460.31022501 194.50560919 461.65864053 194 464 C154.21955206 464.06871545 114.43911188 464.12155383 74.65861641 464.15319599 C69.95869014 464.15694796 65.25876399 464.16083094 60.55883789 464.16479492 C59.15537339 464.16597532 59.15537339 464.16597532 57.72355606 464.16717956 C42.58771525 464.18022188 27.45190873 464.20386925 12.31608824 464.23145839 C-3.22277292 464.25954527 -18.76161615 464.2761832 -34.30050164 464.28226548 C-43.88339482 464.28637512 -53.46619104 464.29933984 -63.04905436 464.3237494 C-69.62664578 464.33964713 -76.20418731 464.34439124 -82.78179654 464.34050413 C-86.5727473 464.33858885 -90.36352901 464.34145714 -94.15444946 464.35761642 C-98.2750877 464.3750518 -102.39536997 464.36893029 -106.51603699 464.36076355 C-107.69992781 464.36950207 -108.88381864 464.3782406 -110.10358495 464.38724393 C-129.88882204 464.28169487 -148.48516124 456.11947949 -162.73046875 442.36328125 C-163.47941406 441.58339844 -164.22835937 440.80351562 -165 440 C-166.11375 438.9171875 -166.11375 438.9171875 -167.25 437.8125 C-174.2143778 430.68984089 -180.28883846 423.81768203 -185 415 C-185.56460938 413.97390625 -186.12921875 412.9478125 -186.7109375 411.890625 C-201.79262547 383.30786264 -204.92226549 351.16875823 -195.68505859 320.2109375 C-192.85956735 311.09203203 -189.28369518 302.95106787 -184 295 C-183.38382813 294.06285156 -182.76765625 293.12570312 -182.1328125 292.16015625 C-178.61460163 286.95583187 -178.61460163 286.95583187 -177 285 C-176.34 285 -175.68 285 -175 285 C-174.7525 284.278125 -174.505 283.55625 -174.25 282.8125 C-172.31232584 278.45273313 -169.96276074 275.6418405 -166 273 C-165.25980369 270.80037927 -165.25980369 270.80037927 -164.8125 268.125 C-161.37370427 253.20564143 -154.54301432 239.24039748 -147 226 C-146.34 226 -145.68 226 -145 226 C-144.773125 225.31550781 -144.54625 224.63101563 -144.3125 223.92578125 C-142.66571281 220.25481814 -140.46488786 217.34607773 -138 214.1875 C-137.54882812 213.59001953 -137.09765625 212.99253906 -136.6328125 212.37695312 C-135.47362397 210.87652419 -134.24186081 209.43275496 -133 208 C-132.34 208 -131.68 208 -131 208 C-130.74025391 207.41573242 -130.48050781 206.83146484 -130.21289062 206.22949219 C-128.915344 203.84438836 -127.50658878 202.24809363 -125.59375 200.328125 C-124.93246094 199.66425781 -124.27117187 199.00039062 -123.58984375 198.31640625 C-122.90019531 197.63449219 -122.21054688 196.95257813 -121.5 196.25 C-120.46552734 195.20392578 -120.46552734 195.20392578 -119.41015625 194.13671875 C-118.74886719 193.47800781 -118.08757812 192.81929687 -117.40625 192.140625 C-116.80103516 191.53766602 -116.19582031 190.93470703 -115.57226562 190.31347656 C-114 189 -114 189 -112 189 C-112 188.34 -112 187.68 -112 187 C-110.5390625 185.7109375 -110.5390625 185.7109375 -108.625 184.375 C-107.99851562 183.92898437 -107.37203125 183.48296875 -106.7265625 183.0234375 C-105 182 -105 182 -103 182 C-103 181.34 -103 180.68 -103 180 C-102.34 180 -101.68 180 -101 180 C-101.67531535 176.55106804 -103.03812708 173.87004622 -104.75 170.8125 C-105.56404297 169.34490234 -105.56404297 169.34490234 -106.39453125 167.84765625 C-107.34363211 166.16421457 -108.29744258 164.4833892 -109.26171875 162.80859375 C-114.31099396 153.96816838 -118.91706566 144.60404114 -122.26171875 134.98046875 C-122.82884261 133.4591365 -123.4712956 131.96572331 -124.14453125 130.48828125 C-133.921087 108.83808378 -137.35507079 81.2280459 -132 58 C-131.74283203 56.72962891 -131.74283203 56.72962891 -131.48046875 55.43359375 C-128.74323691 44.14913474 -120.71855772 35.07790679 -111 29 C-99.49008088 24.57082906 -90.35101304 26.33364874 -79.2421875 30.98828125 C-76.67372791 32.14722033 -74.27673668 33.3303931 -72 35 C-72 35.66 -72 36.32 -72 37 C-71.40832031 37.2784375 -70.81664062 37.556875 -70.20703125 37.84375 C-62.81206861 41.71792512 -58.41555701 48.12717139 -54 55 C-53.30261719 56.08539063 -52.60523438 57.17078125 -51.88671875 58.2890625 C-48.45602888 63.72519526 -45.42661014 69.04581772 -43 75 C-43.11859375 73.84628906 -43.2371875 72.69257812 -43.359375 71.50390625 C-45.19169054 50.14319868 -43.18419095 27.81848331 -28.9375 10.875 C-20.9831314 2.67774991 -11.41238696 -0.92035379 0 0 Z " fill="#ECC8CF" transform="translate(201,0)"/>
<path d="M0 0 C24.26094318 15.40377345 30.22388055 47.19629513 37 73 C37.20625 73.75925781 37.4125 74.51851563 37.625 75.30078125 C40.71816686 86.97265306 41.48086802 98.69371628 42.0625 110.6875 C42.17817809 113.02198493 42.29587683 115.3562949 42.41929626 117.69038391 C42.49525074 119.13023787 42.56667172 120.57033971 42.6330719 122.01066589 C42.54110549 125.29040769 42.54110549 125.29040769 44 128 C47.08346962 128.30773758 50.16128017 128.56994754 53.25 128.8125 C64.33851179 129.76873593 75.12144685 131.69420744 86 134 C87.19713623 134.24097412 87.19713623 134.24097412 88.41845703 134.48681641 C92.68385651 135.37385677 96.44589237 136.42903818 100.375 138.375 C103.91190079 140.11537975 107.44098815 141.50853191 111.1640625 142.78515625 C117.16261625 144.93552387 122.51450939 147.84618716 128 151.0625 C128.92683594 151.59166016 129.85367187 152.12082031 130.80859375 152.66601562 C134.62766191 154.87486709 137.90198899 156.85438488 141 160 C142.65805545 160.92851105 144.31636134 161.856581 145.9765625 162.78125 C152.41115131 166.65690967 157.65022686 171.42091329 162.453125 177.16015625 C164.91102468 180.08356723 167.60690885 182.77643846 170.4765625 185.296875 C185.06540987 198.7103176 196.85747316 220.40459088 203 239 C203.32871094 239.94101563 203.65742188 240.88203125 203.99609375 241.8515625 C206.43491508 249.19482673 207.75418926 256.22925293 208.60546875 263.8828125 C208.90057754 267.02607234 208.90057754 267.02607234 210 270 C210.0806622 271.48123547 210.10761193 272.96582204 210.09765625 274.44921875 C210.09443359 275.29677734 210.09121094 276.14433594 210.08789062 277.01757812 C210.07951172 277.89865234 210.07113281 278.77972656 210.0625 279.6875 C210.05573242 281.02651367 210.05573242 281.02651367 210.04882812 282.39257812 C210.03704983 284.59511987 210.02060164 286.79752599 210 289 C209.18692383 288.37073608 209.18692383 288.37073608 208.35742188 287.72875977 C204.05782058 284.41712637 199.80143583 281.53166617 195 279 C193.96875 278.4225 192.9375 277.845 191.875 277.25 C185.48197571 274.61757824 177.75596776 275.21914247 171.25 277.0625 C163.55774316 281.44311448 163.55774316 281.44311448 158 288 C157.01 288 156.02 288 155 288 C154.93941406 287.18015625 154.87882812 286.3603125 154.81640625 285.515625 C154.73261719 284.43796875 154.64882813 283.3603125 154.5625 282.25 C154.48128906 281.18265625 154.40007812 280.1153125 154.31640625 279.015625 C154.05909227 276.56320038 153.68187782 274.36078709 153 272 C153.721875 271.54625 154.44375 271.0925 155.1875 270.625 C159.83463906 266.28767021 163.14545464 260.37751507 163.6875 253.9375 C162.41326812 246.63962652 157.78098055 240.86935523 152.05859375 236.28125 C144.83514022 231.78543832 136.59475026 229.75054749 128.1875 230.3125 C121.67414521 230.38451498 118.60332919 228.37746491 114 224 C108.43238458 219.46822 102.59629541 216.2277094 96.1875 213.0625 C94.82682292 212.38671875 93.46614583 211.7109375 92.10546875 211.03515625 C91.43112793 210.7014502 90.75678711 210.36774414 90.06201172 210.02392578 C87.96068814 208.98047905 85.86513172 207.92597867 83.76953125 206.87109375 C76.67231324 203.32638574 69.55984594 200.75685861 61.875 198.8125 C61.21822266 198.64556641 60.56144531 198.47863281 59.88476562 198.30664062 C52.62656155 196.54465902 45.48937052 195.84498944 38.02734375 195.8671875 C36.9372274 195.86575241 36.9372274 195.86575241 35.8250885 195.86428833 C34.30160433 195.86361314 32.77811718 195.86542085 31.25463867 195.86962891 C28.93987502 195.87499449 26.62530467 195.86965732 24.31054688 195.86328125 C22.82031208 195.863942 21.3300774 195.86522309 19.83984375 195.8671875 C19.15736069 195.86516327 18.47487762 195.86313904 17.77171326 195.86105347 C11.09524504 195.89321535 5.29325008 196.86029497 -1 199 C-2.41329648 199.32740459 -3.83039415 199.63863561 -5.25 199.9375 C-13.08607114 201.64671015 -19.9916065 203.72180123 -26.92578125 207.82421875 C-29 209 -29 209 -32.375 210.3125 C-43.00355942 215.26027766 -52.09802501 223.83297018 -60.1640625 232.2265625 C-62 234 -62 234 -64.87109375 236.28125 C-68.2791436 239.09765393 -70.84804337 242.30871606 -73.4375 245.875 C-73.91050537 246.52484863 -74.38351074 247.17469727 -74.87084961 247.84423828 C-80.48904046 255.80134905 -85.40605523 264.63375693 -87.125 274.3125 C-87.41375 275.529375 -87.7025 276.74625 -88 278 C-91.35148979 279.81003804 -94.23908768 280.20357114 -98 280.3125 C-108.0052839 281.09353158 -116.76006172 285.4611203 -125.07421875 290.86328125 C-127 292 -127 292 -129 292 C-129.2784375 292.8353125 -129.2784375 292.8353125 -129.5625 293.6875 C-131.64110826 297.03134807 -134.60813602 299.04807828 -138 301 C-138.66 301 -139.32 301 -140 301 C-140.26296875 301.74121094 -140.5259375 302.48242188 -140.796875 303.24609375 C-142.00212828 306.00487154 -143.30382794 307.78758266 -145.25 310.0625 C-151.20465039 317.56187141 -155.56452412 325.32742408 -155.89453125 335.0390625 C-156 337 -156 337 -157 339 C-158.6898105 349.88988988 -159.51044863 362.41380335 -156 373 C-155.67 374.00417969 -155.34 375.00835937 -155 376.04296875 C-152.25164627 383.75463234 -148.66990694 390.30096509 -144 397 C-143.36964844 397.95132812 -142.73929688 398.90265625 -142.08984375 399.8828125 C-138.30736711 405.40237086 -134.53913121 409.61799173 -129.0859375 413.5078125 C-127.24436929 414.82518901 -125.65085434 416.20859456 -124 417.75 C-120.78911465 420.15816401 -118.19384534 421.07548069 -114.3984375 422.19140625 C-111.87264993 423.04293398 -109.71203275 424.16028443 -107.375 425.4375 C-101.95277621 428.26352558 -96.31917543 429.66838733 -90.41796875 431.10546875 C-87 432 -87 432 -84.4453125 433.04296875 C-81.5428775 434.17890577 -78.76510442 434.6515224 -75.6875 435.125 C-74.61886719 435.29257812 -73.55023438 435.46015625 -72.44921875 435.6328125 C-71.64097656 435.75398438 -70.83273438 435.87515625 -70 436 C-71.8125 440.765625 -71.8125 440.765625 -73.5 442.875 C-75.51139498 445.72447622 -76.16058268 448.64233073 -77 452 C-79.26979665 452.10794277 -81.54105196 452.18556176 -83.8125 452.25 C-85.07707031 452.29640625 -86.34164062 452.3428125 -87.64453125 452.390625 C-88.75183594 452.26171875 -89.85914062 452.1328125 -91 452 C-91.45785889 451.35208496 -91.91571777 450.70416992 -92.38745117 450.03662109 C-93.84020395 447.79960148 -93.84020395 447.79960148 -96.36914062 447.30224609 C-97.28888672 447.21023926 -98.20863281 447.11823242 -99.15625 447.0234375 C-100.17976563 446.91 -101.20328125 446.7965625 -102.2578125 446.6796875 C-103.32773438 446.57914062 -104.39765625 446.47859375 -105.5 446.375 C-107.59407676 446.15675875 -109.68783295 445.93541863 -111.78125 445.7109375 C-113.3293335 445.54694458 -113.3293335 445.54694458 -114.90869141 445.37963867 C-118.83485775 444.89747245 -122.70014935 444.2012673 -126.58154297 443.4440918 C-128.92538127 443.01370195 -131.25905914 442.7157355 -133.625 442.4375 C-150.88276684 438.91999338 -166.82060471 425.62692596 -177 412 C-177.52980469 411.34515625 -178.05960938 410.6903125 -178.60546875 410.015625 C-186.65808205 399.91207801 -193.01908894 387.924374 -196.0625 375.375 C-196.38347656 374.10398437 -196.70445312 372.83296875 -197.03515625 371.5234375 C-199.39270661 360.99514906 -200.34213056 350.71709916 -200.3125 339.9375 C-200.32861328 338.76123047 -200.34472656 337.58496094 -200.36132812 336.37304688 C-200.36569185 328.47906947 -199.29881266 321.54241828 -197 314 C-196.74903564 313.16621826 -196.49807129 312.33243652 -196.23950195 311.47338867 C-195.52411429 309.17890498 -194.77083985 306.90138644 -194 304.625 C-193.7525 303.87089844 -193.505 303.11679687 -193.25 302.33984375 C-190.85257136 295.18501765 -187.61156263 289.14995033 -183.1875 283.0625 C-182.73810059 282.4435083 -182.28870117 281.8245166 -181.82568359 281.18676758 C-180.55774118 279.45232669 -179.28030432 277.72532414 -178 276 C-177.48308594 275.29101562 -176.96617187 274.58203125 -176.43359375 273.8515625 C-166.84151381 261.65387279 -152.06610548 254.41976506 -137 252 C-130.02066206 251.31128232 -123.0093849 251.11748138 -116 251 C-115.67 249.35 -115.34 247.7 -115 246 C-132.56782841 245.40471323 -146.7394646 246.80710434 -163 254 C-162.30671464 243.83181466 -157.09274703 234.63151385 -152 226 C-151.58363281 225.24589844 -151.16726562 224.49179688 -150.73828125 223.71484375 C-146.63542937 216.48488986 -141.57641075 210.07628708 -136.33935547 203.64648438 C-135.42287002 202.51983876 -134.51605217 201.38527856 -133.61767578 200.24414062 C-132.45657229 198.79244216 -131.23303671 197.39111834 -130 196 C-129.34 196 -128.68 196 -128 196 C-127.66935547 195.16275391 -127.66935547 195.16275391 -127.33203125 194.30859375 C-125.57577378 191.26475748 -123.32449464 189.37834509 -120.6875 187.0625 C-117.87691835 184.58167281 -115.11554107 182.11661421 -112.4765625 179.453125 C-109.99905963 176.99906853 -107.42691303 174.84250492 -104.6875 172.6875 C-103.36298828 171.64142578 -103.36298828 171.64142578 -102.01171875 170.57421875 C-101.34785156 170.05472656 -100.68398437 169.53523437 -100 169 C-100.54361977 164.45032072 -102.33847116 161.72725401 -104.9375 158 C-122.09101118 132.41775846 -133.63674156 100.24588329 -133.44604492 69.35302734 C-133.43744186 67.23569052 -133.46661957 65.12098601 -133.49804688 63.00390625 C-133.56566101 50.08576137 -130.99429649 39.62798556 -122 30 C-117.10004411 25.10004411 -111.32764143 23.98026368 -104.625 23.625 C-92.60471588 24.07550469 -84.1581315 31.938399 -76 40 C-71.5724413 44.86956541 -68.00788034 50.1462021 -65 56 C-64.56171875 56.83789062 -64.1234375 57.67578125 -63.671875 58.5390625 C-60.32466651 65.0749275 -57.30875879 71.7205564 -54.44799805 78.48022461 C-52.86722527 82.17948259 -51.06739387 85.55809904 -49 89 C-48.20762106 90.89953856 -47.46059669 92.81837802 -46.75 94.75 C-44.75358762 100.05973534 -42.66835868 105.32064209 -40.5 110.5625 C-40.20013184 111.28751709 -39.90026367 112.01253418 -39.59130859 112.75952148 C-38.72910018 114.84033345 -37.86498231 116.9203398 -37 119 C-36.31550781 120.64742187 -36.31550781 120.64742187 -35.6171875 122.328125 C-33.9497312 126.33421498 -32.28118438 130.33925543 -30.58203125 134.33203125 C-30.12183594 135.41871094 -29.66164062 136.50539062 -29.1875 137.625 C-28.76855469 138.60726562 -28.34960938 139.58953125 -27.91796875 140.6015625 C-27 143 -27 143 -27 145 C-25.35 144.67 -23.7 144.34 -22 144 C-22.42971132 142.14401281 -22.86919505 140.29028736 -23.3125 138.4375 C-23.55613281 137.40496094 -23.79976562 136.37242187 -24.05078125 135.30859375 C-24.9420798 131.93918716 -24.9420798 131.93918716 -26.44921875 128.62890625 C-28.44463672 123.95952768 -29.75102963 119.20112539 -31.10546875 114.31640625 C-32.08930188 110.85105772 -33.14955395 107.6544788 -34.5859375 104.3359375 C-35.91954855 101.18979431 -36.61275855 98.48716663 -37.125 95.125 C-37.40893425 91.75616269 -37.40893425 91.75616269 -39 89 C-42.44374601 75.38417336 -43.42027867 61.36143493 -43.5 47.375 C-43.51812744 46.07361084 -43.53625488 44.77222168 -43.55493164 43.43139648 C-43.4703858 29.7027204 -40.82054556 15.65231941 -31.4375 5.125 C-22.07796841 -3.03459165 -11.48731293 -6.29441804 0 0 Z " fill="#FDFDFD" transform="translate(210,12)"/>
<path d="M0 0 C0.66 0.04640625 1.32 0.0928125 2 0.140625 C12.54689849 1.61408876 22.83464068 9.69579824 29.3984375 17.75390625 C31.95874577 21.34458249 34.03554767 25.0576402 36 29 C36.39703125 29.73476563 36.7940625 30.46953125 37.203125 31.2265625 C44.25947294 44.58003106 48.37317764 59.05860994 52.32714844 73.56103516 C52.92807849 75.73929756 53.5545429 77.90742003 54.1953125 80.07421875 C56.85739565 89.3520715 58.05011338 98.43530003 59 108 C59.18019923 109.32450511 59.36249944 110.64872604 59.546875 111.97265625 C60.08140225 116.1591885 60.11323636 120.28497944 60.0625 124.5 C60.05798828 125.22703125 60.05347656 125.9540625 60.04882812 126.703125 C60.03721193 128.46878681 60.01928441 130.2344053 60 132 C61.03253906 132.01417969 62.06507813 132.02835938 63.12890625 132.04296875 C83.24494816 132.58993061 102.35920704 137.60961365 121 145 C121.77714355 145.30808594 122.55428711 145.61617187 123.35498047 145.93359375 C142.45643956 153.65588629 161.67705331 165.02459803 176 180 C176 180.66 176 181.32 176 182 C176.58265625 182.2475 177.1653125 182.495 177.765625 182.75 C180.33114236 184.18525446 181.83724798 185.77663013 183.75 188 C184.36359375 188.70125 184.9771875 189.4025 185.609375 190.125 C187 192 187 192 187 194 C187.58394531 194.23332031 188.16789062 194.46664062 188.76953125 194.70703125 C204.92577056 204.07255701 216.87384348 237.79698471 222.28125 254.75390625 C222.75336557 256.22926739 223.25271868 257.69623996 223.78125 259.15234375 C228.5909905 273.22083471 229.70567572 291.06253727 227.3125 305.6875 C226.63202742 310.5906312 228.02289647 314.93141814 229.23046875 319.66796875 C230.40554197 324.75597613 230.7754573 329.79341612 231 335 C231.061875 336.37285156 231.061875 336.37285156 231.125 337.7734375 C231.28409915 344.71413781 230.28978277 351.19639589 229 358 C228.55915069 360.45773491 228.12199835 362.91613436 227.6875 365.375 C227.56165527 366.0659375 227.43581055 366.756875 227.30615234 367.46875 C226.43931162 372.28568529 225.68206421 377.1098101 224.9765625 381.953125 C221.66624979 404.13694715 216.11628205 423.61801114 205.02539062 443.14697266 C202.94512788 446.90630462 201.13618517 450.80181009 199.2890625 454.6796875 C198 457 198 457 196.3984375 458.5703125 C194.60032738 460.16788584 194.60032738 460.16788584 194 464 C190.37 464 186.74 464 183 464 C184.38179988 459.34700039 186.30571829 455.43749038 188.75 451.25 C189.10344482 450.63946777 189.45688965 450.02893555 189.82104492 449.39990234 C191.92883855 445.77253657 194.10786046 442.1944164 196.3125 438.625 C198.38742549 435.19102629 199.98567526 431.86501242 201.28515625 428.07421875 C202.13138511 425.61876779 203.09122556 423.22111829 204.0625 420.8125 C204.38347656 420.01457031 204.70445312 419.21664063 205.03515625 418.39453125 C205.68923221 416.77125772 206.34555426 415.14888776 207.00390625 413.52734375 C212.68880672 399.10330217 214.57949103 383.88379289 216.58984375 368.58984375 C216.74582031 367.40519531 216.90179688 366.22054688 217.0625 365 C217.17722656 364.030625 217.29195313 363.06125 217.41015625 362.0625 C217.91790772 359.42622746 218.61755367 357.2345154 219.5390625 354.73046875 C221.21865096 349.85338863 221.42231275 345.43609222 221.3125 340.3125 C221.2966687 339.0119165 221.2966687 339.0119165 221.28051758 337.68505859 C221.08021631 327.87664085 220.50208152 318.85614941 216 310 C216 309.01 216 308.02 216 307 C215.01 306.67 214.02 306.34 213 306 C212.443125 305.4225 211.88625 304.845 211.3125 304.25 C205.20603045 298.30857017 198.18822496 295.03129531 189.6875 294.5 C182.62184927 294.63458382 178.38481805 297.84191618 173.3671875 302.5234375 C171.23783098 304.82314254 169.95148754 307.11642991 168.75 310 C168.69467315 312.98501419 168.69467315 312.98501419 170.44140625 314.60546875 C171.67314731 315.64691996 172.93938576 316.6490812 174.23828125 317.60546875 C176 319 176 319 178 322 C178.07905064 324.33199388 178.08798769 326.66832622 178 329 C174.05023297 328.77429903 173.08405267 328.09405894 170.375 325.0625 C169.199375 323.5465625 169.199375 323.5465625 168 322 C164.47089647 319.64726432 163.15685632 319.59246507 159 320 C154.70455279 321.59784326 154.70455279 321.59784326 152 325 C150.9254172 334.87527994 152.02466589 342.88803127 158 351 C160.32040786 353.05252337 162.60966037 354.77330468 165.2421875 356.40234375 C167 358 167 358 167.2578125 360.69140625 C167.17273438 361.45324219 167.08765625 362.21507812 167 363 C161.25 363.125 161.25 363.125 159 362 C158.835 363.155 158.67 364.31 158.5 365.5 C156.02620511 376.62330469 149.01859537 389.16900785 142 398 C141.01 398.33 140.02 398.66 139 399 C139 399.66 139 400.32 139 401 C137.02 401.33 135.04 401.66 133 402 C132.3046875 399.80078125 132.3046875 399.80078125 132 397 C133.2578125 394.60546875 133.2578125 394.60546875 135.125 392.1875 C135.77082031 391.32125 136.41664063 390.455 137.08203125 389.5625 C137.71496094 388.716875 138.34789062 387.87125 139 387 C141.81595973 382.80880412 144.28785509 378.76954653 146 374 C146.495 372.865625 146.99 371.73125 147.5 370.5625 C151.11120833 362.07192263 151.11120833 362.07192263 151 353 C149.63582812 350.09590403 148.08095989 347.36149698 146.47265625 344.5859375 C142.49632404 337.60362471 142.24529916 330.73710194 144 323 C146.2014842 318.51098009 148.89616979 315.72086871 153.0625 313 C155.93464318 312.02224913 157.99485168 311.73483985 161 312 C161.10570312 311.11054688 161.21140625 310.22109375 161.3203125 309.3046875 C163.17727705 300.27599779 170.23347124 294.56854992 177.44921875 289.49609375 C183.42364939 285.99194837 190.25492055 286.32854413 197 287 C205.02690907 289.41223174 212.09619566 294.09619566 218 300 C218.40835993 287.07814551 218.40835993 287.07814551 216.5625 274.34765625 C215.90453855 271.60158103 215.5247881 268.85744719 215.125 266.0625 C214.298699 260.96697714 212.87903355 256.37065603 211 251.5703125 C210 249 210 249 209.16015625 246.2421875 C207.62369087 241.9483617 205.57309275 238.02315246 203.4375 234 C202.99422363 233.163479 202.55094727 232.32695801 202.09423828 231.46508789 C195.34111914 218.88563046 187.79099978 206.52589206 177.5 196.5 C176.675 195.675 175.85 194.85 175 194 C175 193.34 175 192.68 175 192 C174.40316406 191.74476563 173.80632812 191.48953125 173.19140625 191.2265625 C170.76781564 189.87004298 169.63523529 188.55470106 167.9375 186.375 C162.43681699 179.85259186 155.30153331 175.29707463 148 171 C147.25621094 170.55140625 146.51242187 170.1028125 145.74609375 169.640625 C144.08939227 168.64267961 142.42876168 167.65124597 140.765625 166.6640625 C138.96755017 165.58217002 137.18497435 164.47393799 135.421875 163.3359375 C123.98005217 156.1766255 110.9691865 151.58256177 98 148 C97.10152344 147.67128906 96.20304687 147.34257812 95.27734375 147.00390625 C90.44908419 145.52492805 85.53991616 144.7553125 80.5625 143.9375 C79.49950684 143.75977051 78.43651367 143.58204102 77.34130859 143.39892578 C70.09254952 142.22835286 62.96884571 141.4867897 55.6328125 141.2734375 C53 141 53 141 51 139 C50.70813652 136.56767897 50.53277479 134.23047909 50.4375 131.7890625 C50.40068115 131.06568695 50.3638623 130.3423114 50.32592773 129.59701538 C50.20836354 127.27334416 50.10304794 124.9493571 50 122.625 C49.12997991 103.44796844 45.88093895 85.64633327 40.0546875 67.33203125 C39.30466624 64.96251962 38.58370519 62.58372429 37.8828125 60.19921875 C32.34119948 41.42455642 25.2791729 23.0378663 8 12 C1.76908628 9.3296084 -5.2629754 8.70249648 -11.72265625 10.9453125 C-16.60991309 13.23418978 -19.95209426 15.42814139 -23 20 C-23.66 20.33 -24.32 20.66 -25 21 C-32.49630586 32.57845261 -33.53765734 45.81331781 -33.4375 59.25 C-33.43578796 59.93722137 -33.43407593 60.62444275 -33.43231201 61.33248901 C-33.35925131 78.55120595 -31.24149896 95.64466565 -25.6875 112 C-25.43355469 112.7528125 -25.17960938 113.505625 -24.91796875 114.28125 C-24.61503906 115.1784375 -24.31210938 116.075625 -24 117 C-23.16585041 119.49973166 -22.33249889 121.99971907 -21.5 124.5 C-21.0651525 125.80470361 -20.63025767 127.10939144 -20.1953125 128.4140625 C-17.375 136.875 -17.375 136.875 -16.69140625 138.94921875 C-16.19673288 140.41647027 -15.68130146 141.87678815 -15.15234375 143.33203125 C-13.58810781 147.71916739 -12.63580519 151.26546751 -13 156 C-14.65 156.33 -16.3 156.66 -18 157 C-20.55347493 151.50020785 -22.79030345 145.94248688 -24.875 140.25 C-27.15067215 134.05667849 -29.73877847 128.10054562 -32.5703125 122.13671875 C-33.99794545 119.00450766 -35.23552805 115.8498986 -36.4375 112.625 C-38.44915954 107.27552321 -40.74411949 102.10743882 -43.19848633 96.95117188 C-45.23708569 92.66215637 -47.18510051 88.34186371 -49.08862305 83.99121094 C-57.17075591 65.53843551 -67.43349042 46.33029616 -87 38 C-93.63976925 35.9650216 -101.59925235 36.25682243 -108 39 C-116.72730411 44.73508556 -120.59387576 53.0933916 -123 63 C-123.5524987 68.34534658 -123.57890412 73.63605473 -123.5 79 C-123.49512573 79.72344604 -123.49025146 80.44689209 -123.48522949 81.19226074 C-123.39093556 93.14648936 -122.23941809 104.4657511 -119 116 C-118.67644531 117.21171875 -118.35289063 118.4234375 -118.01953125 119.671875 C-115.90664062 127.01955996 -113.11312793 134.0245957 -110 141 C-109.59056152 141.93537598 -109.59056152 141.93537598 -109.17285156 142.88964844 C-104.98940189 152.39832908 -100.23479271 161.29258319 -94.59326172 170.02392578 C-89.87518721 177.41787297 -89.87518721 177.41787297 -90 181 C-91.73046875 183.1328125 -91.73046875 183.1328125 -94.1875 185.125 C-94.98542969 185.78757813 -95.78335938 186.45015625 -96.60546875 187.1328125 C-97.39566406 187.74898437 -98.18585938 188.36515625 -99 189 C-99.71800781 189.57492188 -100.43601562 190.14984375 -101.17578125 190.7421875 C-103 192 -103 192 -105 192 C-105.21527344 192.55429688 -105.43054688 193.10859375 -105.65234375 193.6796875 C-107.46710827 196.80423859 -109.84684786 198.75278757 -112.5625 201.125 C-116.28587934 204.16488178 -116.28587934 204.16488178 -119 208 C-119.66 208 -120.32 208 -121 208 C-121.25652344 208.57878906 -121.51304688 209.15757812 -121.77734375 209.75390625 C-123.1147796 212.2108571 -124.63738445 213.91126727 -126.5625 215.9375 C-136.9860315 227.45824534 -144.66181544 240.66210148 -149.921875 255.25 C-151 258 -151 258 -153 261 C-153 262.32 -153 263.64 -153 265 C-152.18917969 264.67386719 -151.37835938 264.34773438 -150.54296875 264.01171875 C-147.04376772 262.63077678 -143.52800044 261.30551558 -140 260 C-139.13890625 259.67 -138.2778125 259.34 -137.390625 259 C-128.35834667 256.00841737 -115.14575972 254.95141343 -106 258 C-105.957279 259.66611905 -105.95936168 261.33382885 -106 263 C-107.54377698 264.54377698 -109.0156179 264.14489875 -111.1640625 264.17578125 C-126.80877816 264.55200979 -140.57118015 266.19895807 -154 275 C-154.81726563 275.52851563 -155.63453125 276.05703125 -156.4765625 276.6015625 C-170.41114735 286.64331095 -179.5573703 303.07690147 -185 319 C-185.23428711 319.6595166 -185.46857422 320.3190332 -185.70996094 320.99853516 C-194.70128555 347.02701692 -191.70469055 377.83534032 -180.359375 402.65234375 C-176.58414917 410.3585693 -172.30789699 417.23815749 -167 424 C-166.32324219 424.92683594 -165.64648438 425.85367187 -164.94921875 426.80859375 C-159.33303484 434.21127857 -152.92952916 439.23664026 -145 444 C-144.08976074 444.55179932 -144.08976074 444.55179932 -143.16113281 445.11474609 C-134.69510912 450.1603549 -126.81630988 453.40849431 -117 455 C-115.9996875 455.17917969 -114.999375 455.35835938 -113.96875 455.54296875 C-109.01366361 456.3750729 -104.06566235 457.00905127 -99.0625 457.4609375 C-98.20543457 457.54077881 -97.34836914 457.62062012 -96.46533203 457.70288086 C-94.76428063 457.85695347 -93.06206776 457.99878938 -91.35888672 458.12719727 C-90.57787598 458.19737061 -89.79686523 458.26754395 -88.9921875 458.33984375 C-88.29464355 458.39519287 -87.59709961 458.45054199 -86.87841797 458.50756836 C-84.49808574 459.13157799 -83.51150822 460.08567868 -82 462 C-82 462.66 -82 463.32 -82 464 C-87.17371573 464.07504832 -92.34710361 464.12901911 -97.52124023 464.16479492 C-99.27552827 464.17973392 -101.02977994 464.20009262 -102.78393555 464.22631836 C-125.7490269 464.56066596 -145.83130279 458.68221834 -162.73046875 442.36328125 C-163.47941406 441.58339844 -164.22835937 440.80351562 -165 440 C-166.11375 438.9171875 -166.11375 438.9171875 -167.25 437.8125 C-174.2143778 430.68984089 -180.28883846 423.81768203 -185 415 C-185.56460938 413.97390625 -186.12921875 412.9478125 -186.7109375 411.890625 C-201.79262547 383.30786264 -204.92226549 351.16875823 -195.68505859 320.2109375 C-192.85956735 311.09203203 -189.28369518 302.95106787 -184 295 C-183.38382813 294.06285156 -182.76765625 293.12570312 -182.1328125 292.16015625 C-178.61460163 286.95583187 -178.61460163 286.95583187 -177 285 C-176.34 285 -175.68 285 -175 285 C-174.7525 284.278125 -174.505 283.55625 -174.25 282.8125 C-172.31232584 278.45273313 -169.96276074 275.6418405 -166 273 C-165.25980369 270.80037927 -165.25980369 270.80037927 -164.8125 268.125 C-161.37370427 253.20564143 -154.54301432 239.24039748 -147 226 C-146.34 226 -145.68 226 -145 226 C-144.773125 225.31550781 -144.54625 224.63101563 -144.3125 223.92578125 C-142.66571281 220.25481814 -140.46488786 217.34607773 -138 214.1875 C-137.54882812 213.59001953 -137.09765625 212.99253906 -136.6328125 212.37695312 C-135.47362397 210.87652419 -134.24186081 209.43275496 -133 208 C-132.34 208 -131.68 208 -131 208 C-130.74025391 207.41573242 -130.48050781 206.83146484 -130.21289062 206.22949219 C-128.915344 203.84438836 -127.50658878 202.24809363 -125.59375 200.328125 C-124.93246094 199.66425781 -124.27117187 199.00039062 -123.58984375 198.31640625 C-122.90019531 197.63449219 -122.21054688 196.95257813 -121.5 196.25 C-120.46552734 195.20392578 -120.46552734 195.20392578 -119.41015625 194.13671875 C-118.74886719 193.47800781 -118.08757812 192.81929687 -117.40625 192.140625 C-116.80103516 191.53766602 -116.19582031 190.93470703 -115.57226562 190.31347656 C-114 189 -114 189 -112 189 C-112 188.34 -112 187.68 -112 187 C-110.5390625 185.7109375 -110.5390625 185.7109375 -108.625 184.375 C-107.99851562 183.92898437 -107.37203125 183.48296875 -106.7265625 183.0234375 C-105 182 -105 182 -103 182 C-103 181.34 -103 180.68 -103 180 C-102.34 180 -101.68 180 -101 180 C-101.67531535 176.55106804 -103.03812708 173.87004622 -104.75 170.8125 C-105.56404297 169.34490234 -105.56404297 169.34490234 -106.39453125 167.84765625 C-107.34363211 166.16421457 -108.29744258 164.4833892 -109.26171875 162.80859375 C-114.31099396 153.96816838 -118.91706566 144.60404114 -122.26171875 134.98046875 C-122.82884261 133.4591365 -123.4712956 131.96572331 -124.14453125 130.48828125 C-133.921087 108.83808378 -137.35507079 81.2280459 -132 58 C-131.74283203 56.72962891 -131.74283203 56.72962891 -131.48046875 55.43359375 C-128.74323691 44.14913474 -120.71855772 35.07790679 -111 29 C-99.49008088 24.57082906 -90.35101304 26.33364874 -79.2421875 30.98828125 C-76.67372791 32.14722033 -74.27673668 33.3303931 -72 35 C-72 35.66 -72 36.32 -72 37 C-71.40832031 37.2784375 -70.81664062 37.556875 -70.20703125 37.84375 C-62.81206861 41.71792512 -58.41555701 48.12717139 -54 55 C-53.30261719 56.08539063 -52.60523438 57.17078125 -51.88671875 58.2890625 C-48.45602888 63.72519526 -45.42661014 69.04581772 -43 75 C-43.11859375 73.84628906 -43.2371875 72.69257812 -43.359375 71.50390625 C-45.19169054 50.14319868 -43.18419095 27.81848331 -28.9375 10.875 C-20.9831314 2.67774991 -11.41238696 -0.92035379 0 0 Z " fill="#674C43" transform="translate(201,0)"/>
<path d="M0 0 C2.97802928 2.41135974 4.50936425 3.73903026 5.7421875 7.4375 C6.69408019 18.7041643 4.98155787 25.81915312 -2.1953125 34.5 C-15.78122492 48.81848613 -36.27801844 55.89471354 -55.6328125 57 C-63.11949549 56.79820261 -67.69857436 53.06071909 -72.7578125 47.875 C-76.41448216 41.9329118 -75.81887904 34.17029852 -75.2578125 27.4375 C-72.13232341 15.2367956 -61.75967358 5.68949182 -51.2578125 -0.5625 C-35.34080815 -8.39681502 -15.06594351 -10.42625849 0 0 Z " fill="#ED8D9D" transform="translate(146.2578125,312.5625)"/>
<path d="M0 0 C4.89692144 4.86618762 9.55023129 9.68295575 10.5 16.6875 C10.22235083 22.80735054 7.51256639 28.4428648 3.23828125 32.79296875 C1.23228707 34.37579175 -0.79833465 35.70398423 -3 37 C-3.70640625 37.42796875 -4.4128125 37.8559375 -5.140625 38.296875 C-20.41009867 46.71066662 -39.843488 50.42647638 -57 47 C-64.54187106 44.56288883 -71.10912909 40.02254749 -75 33 C-76.05877379 27.61616986 -75.66392536 22.9180066 -73.875 17.75 C-73.25625 16.8425 -72.6375 15.935 -72 15 C-71.5978125 14.37738281 -71.195625 13.75476563 -70.78125 13.11328125 C-64.05011808 3.2970472 -54.02273239 -3.56318027 -42.359375 -5.7734375 C-41.45703125 -5.93070313 -40.5546875 -6.08796875 -39.625 -6.25 C-38.73039062 -6.42273438 -37.83578125 -6.59546875 -36.9140625 -6.7734375 C-23.85406286 -9.16523976 -11.09802889 -7.9905808 0 0 Z " fill="#ED8D9D" transform="translate(364,249)"/>
<path d="M0 0 C4.38299083 2.19149542 7.20074724 4.40190962 9 9 C9.55044588 13.63291951 9.59048488 17.61236053 7.75 21.9375 C5.95881318 24.04854161 4.38198174 25.58569834 2 27 C1.01 27 0.02 27 -1 27 C-0.071875 28.5778125 -0.071875 28.5778125 0.875 30.1875 C6.3814421 39.54845157 9.67308315 53.13582372 8 64 C7.34 64.99 6.68 65.98 6 67 C4.68 67 3.36 67 2 67 C1.65388672 65.07800781 1.65388672 65.07800781 1.30078125 63.1171875 C-2.98276853 40.09756947 -10.16830899 22.9746631 -30 9 C-30.73992187 8.65066406 -31.47984375 8.30132812 -32.2421875 7.94140625 C-34 7 -34 7 -34.8125 4.4375 C-34.874375 3.633125 -34.93625 2.82875 -35 2 C-34.67 1.67 -34.34 1.34 -34 1 C-28.23207745 1.19889388 -25.00958142 2.19407124 -20.54296875 5.84375 C-18.88309824 7.21443578 -18.88309824 7.21443578 -16 8 C-15.6596875 7.13375 -15.6596875 7.13375 -15.3125 6.25 C-11.65084989 -0.02711448 -6.80999256 -1.18904632 0 0 Z " fill="#583A30" transform="translate(171,280)"/>
<path d="M0 0 C8.37591382 3.74782131 15.3225284 9.08503915 18.89453125 17.625 C22.77700601 29.25590312 24.18305897 46.44271691 20.8125 58.375 C20.1525 58.375 19.4925 58.375 18.8125 58.375 C18.76351562 57.13105469 18.71453125 55.88710938 18.6640625 54.60546875 C18.49646477 35.60638433 18.49646477 35.60638433 9.8125 19.375 C3.91985533 14.20834851 -2.09442181 13.726528 -9.73046875 14.0078125 C-15.25704533 14.59481611 -21.13989748 15.32739748 -25.1875 19.375 C-27.6875 19.625 -27.6875 19.625 -30.1875 19.375 C-32.1875 17.375 -32.1875 17.375 -32.3125 14.8125 C-30.27119009 8.57516417 -25.27685487 3.48785404 -19.875 -0.1875 C-13.11290306 -2.82357169 -6.78506246 -2.48437672 0 0 Z " fill="#F9F8F7" transform="translate(401.1875,295.625)"/>
<path d="M0 0 C9.32820417 0.21097715 20.33092172 3.54890234 27.0546875 10.23046875 C35.89842233 20.00995146 35.89842233 20.00995146 35.6015625 27.12109375 C34.49612493 33.13842845 31.96699199 38.08956844 27.0078125 41.671875 C26.07710938 42.23390625 25.14640625 42.7959375 24.1875 43.375 C23.76339844 42.48039062 23.33929688 41.58578125 22.90234375 40.6640625 C19.59717866 33.81140422 16.15345176 27.47755896 11.5703125 21.36328125 C10.1875 19.375 10.1875 19.375 9.1875 16.375 C8.5275 16.375 7.8675 16.375 7.1875 16.375 C5.92578125 14.8359375 5.92578125 14.8359375 4.5 12.75 C1.52460805 8.62118451 -1.81583398 5.4966563 -5.8125 2.375 C-3.8125 0.375 -3.8125 0.375 0 0 Z " fill="#FEB2C1" transform="translate(338.8125,240.625)"/>
<path d="M0 0 C0.95777344 0.15210938 1.91554687 0.30421875 2.90234375 0.4609375 C12.19519176 2.30276323 19.41631255 6.97320584 25.9375 13.8125 C28.8130916 18.2565961 30.39989186 22.9761968 32 28 C29.03 28 26.06 28 23 28 C22.74347656 27.34773438 22.48695313 26.69546875 22.22265625 26.0234375 C18.51158344 17.55169552 13.48676172 13.96418114 5.25 10.1875 C-4.3592442 6.67643 -13.45759025 7.57913613 -23 11 C-29.91077234 14.81363691 -35.66047864 20.85280008 -39 28 C-41.31 28 -43.62 28 -46 28 C-45.22257385 18.67088616 -39.82816558 12.89325244 -33 7 C-23.13036413 -0.27605258 -11.92819964 -2.14889703 0 0 Z " fill="#593B32" transform="translate(179,436)"/>
<path d="M0 0 C3.61637258 1.32480976 6.32878647 3.26383032 8.9375 6.125 C11.01692147 11.75166986 10.91572748 16.98539953 8.4375 22.4375 C5.08627114 25.96058675 1.90701249 27.86736065 -3.0546875 28.09375 C-7.82984824 27.73336051 -10.6542204 26.3457796 -14 23 C-17.11513955 18.32729068 -16.72226083 13.46751452 -16 8 C-12.72615697 1.38935542 -7.1039439 -1.05581552 0 0 Z " fill="#573930" transform="translate(272,250)"/>
<path d="M0 0 C2.5625 0.1875 2.5625 0.1875 4.5625 2.1875 C3.49158826 12.24025213 -2.86290686 25.3256888 -10.484375 31.97265625 C-13.34809444 33.75388974 -15.09079192 33.56637261 -18.4375 33.1875 C-27.56742933 30.92692249 -38.35477578 26.66336428 -44.4375 19.1875 C-44.9375 16.375 -44.9375 16.375 -44.4375 14.1875 C-43.4375 13.1875 -43.4375 13.1875 -41.171875 12.91796875 C-37.75503508 13.25477154 -36.36483549 14.38700484 -33.6875 16.5 C-28.52764556 20.2910704 -23.49106744 23.28235727 -16.93359375 23.12890625 C-13.2484017 21.73902944 -12.27670718 19.47955776 -10.3125 16.125 C-9.96630615 15.53879883 -9.6201123 14.95259766 -9.26342773 14.34863281 C-6.79583074 10.07749803 -4.96566268 5.86187997 -3.4375 1.1875 C-2.4375 0.1875 -2.4375 0.1875 0 0 Z " fill="#5A3C33" transform="translate(248.4375,287.8125)"/>
<path d="M0 0 C2.875 1.8125 2.875 1.8125 5 4 C5 4.99 5 5.98 5 7 C3.2421875 7.91145833 1.484375 8.82291667 -0.2734375 9.734375 C-2.42725287 11.31318988 -3.09694685 12.49201575 -4 15 C-4.65583627 21.29795708 -4.11485669 27.05196556 -2 33 C-3.485 33.495 -3.485 33.495 -5 34 C-10.51078518 29.50973059 -13.57812956 23.34611766 -14.45703125 16.375 C-14.72402724 6.88180915 -14.72402724 6.88180915 -12.08203125 3.6640625 C-8.07010262 0.45753043 -5.22174602 -0.63939747 0 0 Z " fill="#F9F7F7" transform="translate(366,319)"/>
<path d="M0 0 C0.85609863 0.23771118 0.85609863 0.23771118 1.72949219 0.48022461 C3.97210188 0.99361343 6.03317915 1.20165896 8.328125 1.31640625 C9.52695312 1.37924805 9.52695312 1.37924805 10.75 1.44335938 C11.9875 1.50233398 11.9875 1.50233398 13.25 1.5625 C14.09046875 1.60568359 14.9309375 1.64886719 15.796875 1.69335938 C17.86440671 1.79908543 19.93218281 1.90001295 22 2 C21.75 4.375 21.75 4.375 21 7 C17.83969551 9.45388349 14.45264779 9.33002719 10.5625 9.375 C8.89380859 9.41753906 8.89380859 9.41753906 7.19140625 9.4609375 C3.391355 8.91209289 1.75321585 7.60397612 -1 5 C-0.67 3.35 -0.34 1.7 0 0 Z " fill="#5D3F36" transform="translate(385,365)"/>
<path d="M0 0 C4.61524194 6.92286291 5.28007914 16.00156853 6.3125 24.125 C6.41304688 24.87152832 6.51359375 25.61805664 6.6171875 26.38720703 C6.83336046 28.24998314 6.9266393 30.12615801 7 32 C6.34 32.66 5.68 33.32 5 34 C4.88406494 33.21761963 4.76812988 32.43523926 4.64868164 31.62915039 C4.12422227 28.10628266 3.59344823 24.58439534 3.0625 21.0625 C2.88009766 19.83080078 2.69769531 18.59910156 2.50976562 17.33007812 C2.24389648 15.5753418 2.24389648 15.5753418 1.97265625 13.78515625 C1.81031494 12.70113525 1.64797363 11.61711426 1.48071289 10.50024414 C1.25555083 8.06859045 1.25555083 8.06859045 0 7 C-0.04092937 4.66702567 -0.04241723 2.33294775 0 0 Z " fill="#D1C8C6" transform="translate(253,76)"/>
<path d="M0 0 C0.33 0.66 0.66 1.32 1 2 C-1.38957269 5.24299151 -3.2047869 7.50902342 -7 9 C-5.64978174 4.58110387 -3.73884332 2.65654657 0 0 Z " fill="#B4A7A2" transform="translate(35,273)"/>
</svg>
