<?xml version="1.0" encoding="UTF-8"?>
<svg version="1.1" xmlns="http://www.w3.org/2000/svg" width="432" height="461">
<path d="M0 0 C3.53865017 3.05999218 6.1357153 5.95217019 8.4375 10.0625 C9.45542132 11.75175816 10.47651208 13.43910871 11.5 15.125 C12.4799442 16.7703705 13.45911399 18.41620248 14.4375 20.0625 C14.94410156 20.83980469 15.45070312 21.61710937 15.97265625 22.41796875 C17.73295657 25.59589759 18.78760322 28.8480422 19.8125 32.3125 C20.12840088 33.35434448 20.12840088 33.35434448 20.45068359 34.41723633 C20.89421051 35.88541235 21.33441549 37.35459555 21.77148438 38.82470703 C22.42790541 41.03026247 23.09583149 43.23206745 23.765625 45.43359375 C27.01444862 56.19426049 29.87629572 66.91104089 31.4375 78.0625 C31.75460937 79.06925781 32.07171875 80.07601562 32.3984375 81.11328125 C33.76317436 85.79799708 34.10659736 90.52756577 34.5 95.375 C34.58233887 96.33035645 34.66467773 97.28571289 34.74951172 98.27001953 C35.4964979 107.19095745 36.01801249 116.12079248 36.4375 125.0625 C36.98535156 125.03929687 37.53320312 125.01609375 38.09765625 124.9921875 C61.93982549 124.44943893 88.2556608 132.41062732 108.4375 145.0625 C109.2625 145.3925 110.0875 145.7225 110.9375 146.0625 C113.65085342 147.14784137 115.93650664 148.55035539 118.4375 150.0625 C120.36987053 151.13430066 122.30742945 152.1967991 124.25 153.25 C125.22582031 153.77980469 126.20164062 154.30960938 127.20703125 154.85546875 C127.94308594 155.25378906 128.67914063 155.65210938 129.4375 156.0625 C129.4375 156.7225 129.4375 157.3825 129.4375 158.0625 C130.30568359 158.48208984 130.30568359 158.48208984 131.19140625 158.91015625 C139.10363185 162.96947199 145.73462167 168.70106734 152.421875 174.4765625 C154.28557622 176.07471043 156.17693487 177.64194019 158.109375 179.15625 C160.30781208 180.95631258 162.09908579 182.77823048 163.9375 184.9375 C164.4840625 185.57429687 165.030625 186.21109375 165.59375 186.8671875 C166.2021875 187.59164062 166.810625 188.31609375 167.4375 189.0625 C168.23414063 189.990625 169.03078125 190.91875 169.8515625 191.875 C172.58075893 195.15808096 174.96502618 198.62499972 177.3125 202.1875 C177.74594727 202.84419678 178.17939453 203.50089355 178.62597656 204.17749023 C185.34588225 214.43517011 190.78800923 224.70280234 195.4375 236.0625 C195.89253906 237.09632813 196.34757812 238.13015625 196.81640625 239.1953125 C201.32120751 249.49584315 203.59031926 260.01300064 205.4375 271.0625 C205.60862305 271.97652588 205.77974609 272.89055176 205.95605469 273.83227539 C206.43515254 277.04674986 206.56685291 280.06858818 206.5703125 283.31640625 C206.57160156 284.50169922 206.57289063 285.68699219 206.57421875 286.90820312 C206.57035156 288.13474609 206.56648438 289.36128906 206.5625 290.625 C206.56636719 291.82447266 206.57023437 293.02394531 206.57421875 294.25976562 C206.56664703 301.27496382 206.27624641 308.1815371 205.59692383 315.16479492 C205.43374174 318.1308105 205.63999117 320.86770263 206 323.8125 C207.16891925 335.33470402 204.545748 346.83783771 202.15234375 358.0546875 C201.25556163 362.67037495 200.89745673 367.31968084 200.5 372 C199.530114 383.14411775 197.01226118 393.45446887 193.4375 404.0625 C192.97322361 405.64410087 192.51463034 407.22738422 192.0625 408.8125 C190.76302177 413.17456762 189.20313374 417.36171235 187.46484375 421.56640625 C186.78807448 423.21072397 186.13373819 424.86448202 185.50390625 426.52734375 C182.23875433 435.10344818 178.04456256 445.45543744 171.4375 452.0625 C169.68029703 452.16710433 167.91886075 452.20094659 166.15856075 452.20789433 C165.00646616 452.21481896 163.85437157 452.2217436 162.66736501 452.22887808 C161.38550599 452.2314222 160.10364696 452.23396631 158.78294373 452.23658752 C157.41992334 452.24274556 156.05690478 452.24932122 154.69388825 452.25628132 C150.93032132 452.27413449 147.16675777 452.28554499 143.40316355 452.295838 C140.17901475 452.30545602 136.9548855 452.31877223 133.73075026 452.33210696 C122.17339398 452.37977929 110.61600997 452.41236413 99.05859375 452.44140625 C98.14615029 452.44371383 97.23370684 452.44602141 96.29361358 452.44839892 C78.17273819 452.49385568 60.05185073 452.53238058 41.93093777 452.55912876 C37.94329755 452.56511791 33.95565749 452.57120352 29.96801758 452.57739258 C28.4813492 452.57969205 28.4813492 452.57969205 26.96464712 452.58203798 C10.93516764 452.60771128 -5.09404775 452.66455019 -21.12339164 452.73385788 C-37.58551695 452.80444722 -54.04750614 452.8445817 -70.50978035 452.85587829 C-79.7504372 452.86302494 -88.99063634 452.88365833 -98.23114204 452.93890572 C-106.1077356 452.98596447 -113.98380259 453.00556716 -121.86053164 452.99002422 C-125.87500905 452.98294806 -129.8883608 452.98848895 -133.90265846 453.02960205 C-164.70477344 453.32849912 -164.70477344 453.32849912 -177.5625 444.0625 C-178.69757118 443.28066015 -179.83348308 442.50003943 -180.97023869 441.72065067 C-187.5268367 437.0900039 -194.01014995 431.87281321 -199.5625 426.0625 C-199.5625 425.4025 -199.5625 424.7425 -199.5625 424.0625 C-200.2225 424.0625 -200.8825 424.0625 -201.5625 424.0625 C-204.17252952 420.93751871 -206.32708207 417.46138107 -208.5625 414.0625 C-209.25472656 413.01578125 -209.94695312 411.9690625 -210.66015625 410.890625 C-220.5816572 395.38712072 -224.94459943 377.41929599 -225.5625 359.0625 C-225.6140625 358.11246094 -225.665625 357.16242188 -225.71875 356.18359375 C-225.93723457 349.05553458 -225.17612758 342.16866787 -224.1875 335.125 C-224.06149414 334.22467041 -223.93548828 333.32434082 -223.80566406 332.39672852 C-223.1084111 327.74678152 -222.15167066 323.50436225 -220.5625 319.0625 C-220.24147167 317.50576736 -219.94837871 315.94293431 -219.6875 314.375 C-217.7485697 304.41188124 -213.65595214 295.78249007 -208.5625 287.0625 C-208.04816406 286.13179688 -207.53382813 285.20109375 -207.00390625 284.2421875 C-206.52824219 283.52289063 -206.05257812 282.80359375 -205.5625 282.0625 C-204.9025 282.0625 -204.2425 282.0625 -203.5625 282.0625 C-203.335625 281.36125 -203.10875 280.66 -202.875 279.9375 C-201.22408712 276.32121465 -199.2716165 273.97480024 -196.5625 271.0625 C-195.9025 271.0625 -195.2425 271.0625 -194.5625 271.0625 C-194.253125 270.2271875 -194.253125 270.2271875 -193.9375 269.375 C-192.5625 267.0625 -192.5625 267.0625 -189.5625 265 C-185.76919559 261.9946767 -185.67086208 258.66909452 -185.02734375 254.06640625 C-182.20516801 235.82898484 -170.48801824 219.4432305 -159.29296875 205.33203125 C-157.54026246 203.03333519 -155.96475803 200.66350675 -154.375 198.25 C-151.37396451 193.89918371 -147.96643943 190.17273446 -144.25 186.4375 C-143.72188721 185.90406982 -143.19377441 185.37063965 -142.6496582 184.82104492 C-138.82067532 181.0625 -138.82067532 181.0625 -136.5625 181.0625 C-136.2325 180.0725 -135.9025 179.0825 -135.5625 178.0625 C-133.83498041 177.08465872 -132.104888 176.11046524 -130.3515625 175.1796875 C-127.80914985 173.59206737 -126.25584038 171.50091014 -124.5625 169.0625 C-124.92601563 168.52882812 -125.28953125 167.99515625 -125.6640625 167.4453125 C-129.00428044 162.49493822 -132.15510879 157.47011447 -135.19140625 152.328125 C-136.26727273 150.55033993 -137.43092843 148.82564738 -138.625 147.125 C-141.4520257 142.65647551 -143.44319997 137.89825091 -145.5625 133.0625 C-146.11164063 131.87398437 -146.66078125 130.68546875 -147.2265625 129.4609375 C-158.8096291 104.18732969 -167.28677973 73.35173898 -158.5625 45.91796875 C-154.49699886 35.28614833 -147.55182059 27.01016429 -137.23828125 21.9140625 C-126.88334901 18.61862421 -114.12404632 20.96166989 -104.63183594 25.84521484 C-101.21440698 27.85551461 -98.32415232 30.36647602 -95.375 33 C-94.49038086 33.76860352 -94.49038086 33.76860352 -93.58789062 34.55273438 C-85.40947918 41.71225585 -78.29422144 49.18760309 -73.5625 59.0625 C-72.59959344 60.53162029 -71.61867276 61.98901185 -70.625 63.4375 C-67.85901788 67.5002518 -65.66185533 71.62155604 -63.5625 76.0625 C-63.63178711 75.42723389 -63.70107422 74.79196777 -63.77246094 74.13745117 C-66.25528329 49.53232827 -67.29697061 22.20402564 -51.10546875 1.8046875 C-37.16063219 -13.23260169 -15.50344919 -11.86093543 0 0 Z " fill="#ECC8CF" transform="translate(225.5625,8.9375)"/>
<path d="M0 0 C0.825 0.639375 1.65 1.27875 2.5 1.9375 C2.5 2.5975 2.5 3.2575 2.5 3.9375 C3.0775 4.185 3.655 4.4325 4.25 4.6875 C13.73264144 9.95563414 17.63763867 21.09179654 20.79199219 30.80615234 C21.56761635 33.14104853 22.3943113 35.45423571 23.2265625 37.76953125 C27.34853011 49.41521853 30.17737676 60.91843517 32.13037109 73.1159668 C32.43557783 75.02566183 32.43557783 75.02566183 33.5 76.9375 C35.62033478 88.61434363 35.87088299 100.25394064 36.03173828 112.08422852 C36.06529511 114.33371781 36.11033017 116.58276594 36.15625 118.83203125 C36.17494141 120.15050049 36.19363281 121.46896973 36.21289062 122.82739258 C36.17524527 126.03882045 36.17524527 126.03882045 38.5 127.9375 C40.98110345 128.44693779 40.98110345 128.44693779 43.890625 128.68359375 C44.98640869 128.79703125 46.08219238 128.91046875 47.21118164 129.02734375 C48.3789917 129.14207031 49.54680176 129.25679687 50.75 129.375 C72.49195432 131.69745959 90.92940185 137.41151619 110.37109375 147.38671875 C113.37813856 148.93178869 113.37813856 148.93178869 116.11328125 149.96875 C118.67952046 151.01036592 120.89656648 152.29256323 123.25 153.75 C126.41450594 155.69164376 129.58664261 157.52809649 132.875 159.25 C148.22893774 167.83643556 160.56912216 180.93374269 171.95751953 194.15454102 C173.46655694 195.89884304 175.01032379 197.60662191 176.5625 199.3125 C181.99101772 205.70067653 185.73263011 213.27790807 189.6875 220.625 C190.18709229 221.55119141 190.18709229 221.55119141 190.69677734 222.49609375 C192.85604342 226.5605946 194.71244839 230.69268048 196.5 234.9375 C197.33095463 236.66781101 198.16415297 238.39704701 199 240.125 C206.46669242 256.58311482 206.82099528 274.21142751 206.5 291.9375 C203.5546875 289.1953125 203.5546875 289.1953125 203.0625 286.875 C202.876875 286.235625 202.69125 285.59625 202.5 284.9375 C201.17294976 284.25841246 199.83859725 283.59353325 198.5 282.9375 C197.3899781 281.98869557 196.30664121 281.00791261 195.25 280 C188.55638998 274.22429009 182.35875533 273.49460155 173.62890625 273.70703125 C168.79661403 274.06296788 164.54091179 274.88946421 160.1875 277.125 C158.5 277.9375 158.5 277.9375 155.5 276.9375 C156.180625 275.8546875 156.180625 275.8546875 156.875 274.75 C160.10201104 269.16478859 161.65522538 264.39626007 160.5 257.9375 C156.75434115 248.98626015 149.21781831 244.80364437 140.625 241.1875 C137.31225761 240.00533185 134.11201274 239.64584711 130.625 239.25 C123.51583549 238.16313525 119.7353513 234.60622029 114.5 229.9375 C102.12185857 220.17654539 88.78774438 211.27541151 73.578125 206.65234375 C71.41363706 205.90779245 69.51455226 204.95762356 67.5 203.875 C63.95575741 202.02184731 60.57322452 201.12954438 56.66015625 200.37109375 C54.7072825 199.97910643 52.78641287 199.4352417 50.875 198.875 C26.39086388 192.07385108 -4.70020335 197.46988148 -27.40771484 207.97216797 C-29.30493036 208.84749938 -31.23331272 209.65447797 -33.1640625 210.453125 C-41.75684841 214.27661287 -49.5785646 219.69111213 -56.79296875 225.6875 C-58.5 226.9375 -58.5 226.9375 -60.5 226.9375 C-60.76683594 227.5459375 -61.03367188 228.154375 -61.30859375 228.78125 C-62.5 230.9375 -62.5 230.9375 -65.5625 233.4375 C-79.13842447 244.68050163 -88.83185241 263.3059612 -93.5 279.9375 C-94.62277344 280.04707031 -95.74554688 280.15664063 -96.90234375 280.26953125 C-114.96113329 282.13392472 -128.48185449 288.0071634 -142.5 299.9375 C-143.36625 300.576875 -144.2325 301.21625 -145.125 301.875 C-147.8952548 304.28074759 -149.54293826 306.84407983 -151.5 309.9375 C-152.43585938 311.08025391 -152.43585938 311.08025391 -153.390625 312.24609375 C-159.07085408 319.4936453 -163.25991558 327.07057611 -163.33203125 336.40234375 C-163.5 338.9375 -163.5 338.9375 -164.48828125 341.54296875 C-169.57686263 358.61623988 -165.11588871 378.70830611 -157 394 C-155.53493615 396.66672098 -154.02368035 399.30396588 -152.5 401.9375 C-152.14301025 402.57421631 -151.78602051 403.21093262 -151.41821289 403.86694336 C-144.79055312 415.67591667 -134.49009953 422.94245023 -122.5 428.9375 C-122.5 429.5975 -122.5 430.2575 -122.5 430.9375 C-121.78328125 431.06253906 -121.0665625 431.18757813 -120.328125 431.31640625 C-117.49110018 431.93945452 -114.95609231 432.82658704 -112.25 433.875 C-108.80032292 435.16516073 -105.48918488 436.23368505 -101.875 436.9375 C-97.77980113 437.75213634 -94.28487728 439.2769142 -90.51953125 441.05078125 C-88.21447791 442.06286463 -85.99535124 442.6155192 -83.5 442.9375 C-84.375 446.8125 -84.375 446.8125 -85.5 447.9375 C-89.8449398 448.15666236 -94.19549832 448.12328941 -98.54541016 448.12280273 C-100.72708998 448.12497717 -102.90825431 448.14309394 -105.08984375 448.16210938 C-106.48176911 448.16504571 -107.87369686 448.1670289 -109.265625 448.16796875 C-110.53180664 448.17207764 -111.79798828 448.17618652 -113.10253906 448.18041992 C-116.40285911 447.94444562 -118.50817069 447.25505196 -121.5 445.9375 C-123.66012487 445.52815666 -123.66012487 445.52815666 -125.8203125 445.375 C-126.60277344 445.30023438 -127.38523437 445.22546875 -128.19140625 445.1484375 C-129.82155646 445.00714037 -131.45176562 444.86652171 -133.08203125 444.7265625 C-133.86191406 444.65179688 -134.64179688 444.57703125 -135.4453125 444.5 C-136.15187988 444.43941406 -136.85844727 444.37882812 -137.58642578 444.31640625 C-139.5 443.9375 -139.5 443.9375 -142.5 441.9375 C-143.758125 441.545625 -145.01625 441.15375 -146.3125 440.75 C-168.11904636 433.69494088 -184.24900509 418.51411991 -195.5 398.9375 C-196.47259766 397.31328125 -196.47259766 397.31328125 -197.46484375 395.65625 C-211.46235237 371.27158381 -209.7187666 340.49222226 -202.67578125 314.01171875 C-199.65446372 303.3289305 -195.73244833 293.79117181 -190 284.25 C-189.54939209 283.49533447 -189.09878418 282.74066895 -188.63452148 281.96313477 C-185.74576246 277.34726995 -182.833531 274.22833161 -178.5 270.9375 C-177.2934375 269.7309375 -177.2934375 269.7309375 -176.0625 268.5 C-175.216875 267.654375 -174.37125 266.80875 -173.5 265.9375 C-173.04625 265.47472656 -172.5925 265.01195312 -172.125 264.53515625 C-161.81023521 254.81349043 -148.39048 250.84660626 -134.625 249.8125 C-133.02011719 249.68294922 -133.02011719 249.68294922 -131.3828125 249.55078125 C-128.75566301 249.33967102 -126.12816789 249.13545597 -123.5 248.9375 C-123.5 247.6175 -123.5 246.2975 -123.5 244.9375 C-125.21282593 243.22467407 -127.38159755 243.77288572 -129.66699219 243.74682617 C-142.46549355 243.76575887 -152.73671588 245.65414704 -164.5 250.9375 C-165.49 251.2675 -166.48 251.5975 -167.5 251.9375 C-166.80866017 247.62485627 -165.38197259 243.71682966 -163.75 239.6875 C-163.34575806 238.68843628 -163.34575806 238.68843628 -162.93334961 237.66918945 C-159.574715 229.51873112 -155.30901824 222.44229448 -150.1484375 215.296875 C-148.47803765 212.99782949 -148.47803765 212.99782949 -147.234375 210.62109375 C-144.72662325 206.74085624 -141.56733526 203.57454309 -138.375 200.25 C-137.09952817 198.91470064 -135.82599213 197.5775487 -134.5546875 196.23828125 C-133.99249512 195.65216064 -133.43030273 195.06604004 -132.85107422 194.4621582 C-131.4046737 192.96225838 -131.4046737 192.96225838 -130.5 190.9375 C-129.84 190.9375 -129.18 190.9375 -128.5 190.9375 C-128.26925781 190.37289062 -128.03851563 189.80828125 -127.80078125 189.2265625 C-126.16191556 186.34255261 -124.15488986 184.52464263 -121.6875 182.3125 C-120.83542969 181.53648437 -119.98335938 180.76046875 -119.10546875 179.9609375 C-116.59654739 178.01247983 -114.43958749 177.0539287 -111.5 175.9375 C-110.80062468 174.62102881 -110.13270867 173.28727849 -109.5 171.9375 C-107.375 170.6875 -107.375 170.6875 -105.5 169.9375 C-104.83362992 164.07524427 -106.85034686 161.17694236 -110.125 156.625 C-110.58503418 155.95839355 -111.04506836 155.29178711 -111.51904297 154.60498047 C-113.38826569 151.90016716 -115.29328024 149.22361894 -117.21875 146.55859375 C-121.93988016 139.85721178 -125.13940091 132.45865174 -128.5246582 125.02563477 C-129.51351548 122.90856436 -130.55474066 120.82518548 -131.61328125 118.7421875 C-134.02858365 113.95097541 -135.80455377 109.02383869 -137.5 103.9375 C-137.9021875 102.761875 -137.9021875 102.761875 -138.3125 101.5625 C-142.54698253 87.80043177 -144.2410761 72.27832407 -143.5 57.9375 C-143.50580078 56.58398438 -143.50580078 56.58398438 -143.51171875 55.203125 C-143.26095581 46.07007463 -139.35450834 37.43321199 -133.43359375 30.52734375 C-127.01214421 24.59329076 -120.92956766 24.62237598 -112.5 24.9375 C-106.0256917 25.4118083 -106.0256917 25.4118083 -103.5 27.9375 C-102.6028125 28.0921875 -102.6028125 28.0921875 -101.6875 28.25 C-99.07777782 29.0701984 -97.87208276 30.46355821 -96.03515625 32.4296875 C-94.2258759 34.20674149 -92.28079562 35.66881806 -90.25 37.1875 C-77.69392595 46.91169002 -71.38687038 57.91779957 -64.5 71.9375 C-63.79894279 73.15006932 -63.09062642 74.3584716 -62.375 75.5625 C-60.63479086 78.69487644 -59.60681179 81.5478889 -58.5 84.9375 C-57.57109099 86.7621427 -56.64111929 88.58626109 -55.703125 90.40625 C-53.84601892 94.31340824 -52.30012145 98.34254197 -50.71630859 102.36572266 C-49.05603989 106.57475091 -47.29687939 110.71577028 -45.4296875 114.8359375 C-44.03631922 117.98565236 -42.77304603 121.18378505 -41.5078125 124.38671875 C-40.47806645 126.99301399 -39.42649588 129.58991572 -38.375 132.1875 C-36.95400872 135.73438374 -35.65120136 139.29202903 -34.5 142.9375 C-32.85 142.9375 -31.2 142.9375 -29.5 142.9375 C-29.11184387 139.15297778 -29.52373692 136.59088971 -31.1875 133.25 C-34.4945026 126.30880021 -36.04486727 118.7781001 -37.89306641 111.34912109 C-38.45437484 109.11878934 -39.03974179 106.89678666 -39.63671875 104.67578125 C-41.68519095 96.96086523 -43.13898932 89.38102621 -44.0078125 81.4375 C-44.43175024 77.87620885 -44.43175024 77.87620885 -45.51416016 74.26293945 C-46.62700654 69.8775111 -46.78978034 65.73763257 -46.765625 61.23046875 C-46.76753845 60.42442703 -46.7694519 59.61838531 -46.77142334 58.78791809 C-46.77277584 57.09290248 -46.76914525 55.39787618 -46.76074219 53.70288086 C-46.75007156 51.14217194 -46.76064759 48.58217123 -46.7734375 46.02148438 C-46.78061591 37.4670035 -46.57232832 29.29163227 -44.5 20.9375 C-44.30841309 20.14520996 -44.11682617 19.35291992 -43.91943359 18.53662109 C-41.67104634 9.86772711 -35.70463652 2.11331088 -28.5 -3.0625 C-18.44349087 -7.00622907 -8.98490471 -5.60506906 0 0 Z " fill="#FEFDFD" transform="translate(216.5,13.0625)"/>
<path d="M0 0 C3.53865017 3.05999218 6.1357153 5.95217019 8.4375 10.0625 C9.45542132 11.75175816 10.47651208 13.43910871 11.5 15.125 C12.4799442 16.7703705 13.45911399 18.41620248 14.4375 20.0625 C14.94410156 20.83980469 15.45070312 21.61710937 15.97265625 22.41796875 C17.73295657 25.59589759 18.78760322 28.8480422 19.8125 32.3125 C20.12840088 33.35434448 20.12840088 33.35434448 20.45068359 34.41723633 C20.89421051 35.88541235 21.33441549 37.35459555 21.77148438 38.82470703 C22.42790541 41.03026247 23.09583149 43.23206745 23.765625 45.43359375 C27.01444862 56.19426049 29.87629572 66.91104089 31.4375 78.0625 C31.75460937 79.06925781 32.07171875 80.07601562 32.3984375 81.11328125 C33.76317436 85.79799708 34.10659736 90.52756577 34.5 95.375 C34.58233887 96.33035645 34.66467773 97.28571289 34.74951172 98.27001953 C35.4964979 107.19095745 36.01801249 116.12079248 36.4375 125.0625 C36.98535156 125.03929687 37.53320312 125.01609375 38.09765625 124.9921875 C61.93982549 124.44943893 88.2556608 132.41062732 108.4375 145.0625 C109.2625 145.3925 110.0875 145.7225 110.9375 146.0625 C113.65085342 147.14784137 115.93650664 148.55035539 118.4375 150.0625 C120.36987053 151.13430066 122.30742945 152.1967991 124.25 153.25 C125.22582031 153.77980469 126.20164062 154.30960938 127.20703125 154.85546875 C127.94308594 155.25378906 128.67914063 155.65210938 129.4375 156.0625 C129.4375 156.7225 129.4375 157.3825 129.4375 158.0625 C130.30568359 158.48208984 130.30568359 158.48208984 131.19140625 158.91015625 C139.10363185 162.96947199 145.73462167 168.70106734 152.421875 174.4765625 C154.28557622 176.07471043 156.17693487 177.64194019 158.109375 179.15625 C160.30781208 180.95631258 162.09908579 182.77823048 163.9375 184.9375 C164.4840625 185.57429687 165.030625 186.21109375 165.59375 186.8671875 C166.2021875 187.59164062 166.810625 188.31609375 167.4375 189.0625 C168.23414063 189.990625 169.03078125 190.91875 169.8515625 191.875 C172.58075893 195.15808096 174.96502618 198.62499972 177.3125 202.1875 C177.74594727 202.84419678 178.17939453 203.50089355 178.62597656 204.17749023 C185.34588225 214.43517011 190.78800923 224.70280234 195.4375 236.0625 C195.89253906 237.09632813 196.34757812 238.13015625 196.81640625 239.1953125 C201.32120751 249.49584315 203.59031926 260.01300064 205.4375 271.0625 C205.60862305 271.97652588 205.77974609 272.89055176 205.95605469 273.83227539 C206.43515254 277.04674986 206.56685291 280.06858818 206.5703125 283.31640625 C206.57160156 284.50169922 206.57289063 285.68699219 206.57421875 286.90820312 C206.57035156 288.13474609 206.56648438 289.36128906 206.5625 290.625 C206.56636719 291.82447266 206.57023437 293.02394531 206.57421875 294.25976562 C206.56664703 301.27496382 206.27624641 308.1815371 205.59692383 315.16479492 C205.43374174 318.1308105 205.63999117 320.86770263 206 323.8125 C207.16891925 335.33470402 204.545748 346.83783771 202.15234375 358.0546875 C201.25556163 362.67037495 200.89745673 367.31968084 200.5 372 C199.530114 383.14411775 197.01226118 393.45446887 193.4375 404.0625 C192.97322361 405.64410087 192.51463034 407.22738422 192.0625 408.8125 C190.76302177 413.17456762 189.20313374 417.36171235 187.46484375 421.56640625 C186.78807448 423.21072397 186.13373819 424.86448202 185.50390625 426.52734375 C182.23875433 435.10344818 178.04456256 445.45543744 171.4375 452.0625 C169.75141034 452.13455511 168.06249341 452.14636068 166.375 452.125 C165.45589844 452.11597656 164.53679687 452.10695313 163.58984375 452.09765625 C162.87957031 452.08605469 162.16929687 452.07445312 161.4375 452.0625 C163.64660068 447.55933323 165.93736823 443.13395791 168.375 438.75 C173.50055723 429.37241408 177.42880951 419.67674835 181.10546875 409.6640625 C181.88468879 407.55719776 182.68762492 405.45832501 183.546875 403.3828125 C184.44918548 401.03205625 185.00751925 398.77904226 185.5 396.3125 C186.32983954 392.17016046 186.32983954 392.17016046 187.4375 391.0625 C188.9994689 384.232436 189.6735172 377.18947293 190.49707031 370.24169922 C191.60194376 360.94734388 192.86375599 352.07060404 195.4375 343.0625 C196.61455891 338.47356086 196.58630469 334.01789372 196.5625 329.3125 C196.56636719 328.53261719 196.57023437 327.75273437 196.57421875 326.94921875 C196.92810684 323.20192961 196.92810684 323.20192961 195.4375 320.0625 C195.31375 318.9075 195.19 317.7525 195.0625 316.5625 C193.94967667 307.10350172 190.22601442 297.19248507 183.0625 290.6875 C176.87731391 285.88864873 171.13705112 284.26873184 163.4375 285.0625 C160.70109164 285.58464152 158.12248948 286.28885896 155.4375 287.0625 C154.72335937 287.21074219 154.00921875 287.35898437 153.2734375 287.51171875 C151.25096101 287.88777194 151.25096101 287.88777194 150.375 289.9375 C150.065625 290.63875 149.75625 291.34 149.4375 292.0625 C148.963125 292.495625 148.48875 292.92875 148 293.375 C144.56375797 297.08614139 143.1821466 302.14783247 142.4375 307.0625 C143.118125 306.918125 143.79875 306.77375 144.5 306.625 C148.58077931 307.23277564 150.3496361 309.22682713 153.12109375 312.171875 C154.4375 314.0625 154.4375 314.0625 154.375 317 C154.065625 317.680625 153.75625 318.36125 153.4375 319.0625 C151.1875 319.3125 151.1875 319.3125 148.4375 319.0625 C147.86 318.44375 147.2825 317.825 146.6875 317.1875 C143.36498215 314.04956647 139.94027383 313.37697944 135.4375 313.0625 C132.34065188 313.45545354 129.41904098 314.14618717 126.4375 315.0625 C125.6767834 324.68616879 125.48431932 331.76299327 131.49609375 339.8515625 C134.98314006 343.8227259 138.49828926 346.97283392 143.4375 349.0625 C142.5625 352.9375 142.5625 352.9375 141.4375 354.0625 C134.91207627 354.29978814 134.91207627 354.29978814 132.4375 353.0625 C131.85742188 354.67318359 131.85742188 354.67318359 131.265625 356.31640625 C130.73991354 357.75272507 130.21385317 359.18891622 129.6875 360.625 C129.43484375 361.32947266 129.1821875 362.03394531 128.921875 362.75976562 C124.69673948 374.22044573 117.51874356 383.99573893 109.4375 393.0625 C107.7875 392.7325 106.1375 392.4025 104.4375 392.0625 C103.95580865 387.43660207 105.22881103 385.46752329 108.0625 381.875 C113.7034155 374.41667687 118.22656786 367.00756369 121.8125 358.375 C122.20719482 357.4483252 122.20719482 357.4483252 122.60986328 356.50292969 C124.3146497 352.21287537 124.91841218 348.65548146 124.4375 344.0625 C123.23176858 341.65240478 123.23176858 341.65240478 121.5 339.625 C118.40048034 335.30755144 117.50577403 332.30984715 117.4375 327.0625 C117.37691406 326.24523437 117.31632812 325.42796875 117.25390625 324.5859375 C116.94872114 318.46373914 117.70507888 314.97358042 121.4375 310.0625 C124.88354594 307.00805019 127.281843 305.83651408 131.8125 305.8125 C133.00875 305.895 134.205 305.9775 135.4375 306.0625 C135.50066406 305.38445312 135.56382812 304.70640625 135.62890625 304.0078125 C136.63542994 296.35823248 139.17848421 290.78043934 144.4375 285.0625 C145.0975 285.0625 145.7575 285.0625 146.4375 285.0625 C146.4375 284.4025 146.4375 283.7425 146.4375 283.0625 C147.80567297 282.23855584 149.18244911 281.42889103 150.5625 280.625 C151.32820313 280.17253906 152.09390625 279.72007812 152.8828125 279.25390625 C159.86159742 275.99927414 169.52153124 275.85277101 176.9296875 277.67578125 C185.33259259 281.06983722 192.75791742 286.73002591 196.4375 295.0625 C196.94439871 278.29729468 196.29225497 261.63671339 189.4375 246.0625 C189.15261719 245.37027344 188.86773437 244.67804688 188.57421875 243.96484375 C185.26062472 236.15527192 181.29515032 228.61343959 177.4375 221.0625 C176.90769531 220.01964844 176.37789063 218.97679687 175.83203125 217.90234375 C171.39946064 209.45312738 166.01804483 202.41231487 159.16796875 195.7890625 C157.42824265 194.05326355 155.84108168 192.24731404 154.25 190.375 C143.10668654 177.60095774 131.28400048 168.02734354 116.28125 160.078125 C114.4375 159.0625 114.4375 159.0625 111.375 156.9375 C108.57346367 155.14928532 105.89100593 154.06415379 102.765625 152.97265625 C99.93016273 151.86416177 97.27270285 150.511373 94.5625 149.125 C74.7808831 139.12333566 53.513932 134.32760416 31.3984375 133.46875 C28.74973979 132.92001581 28.03929508 132.25686184 26.4375 130.0625 C26.03686523 126.83886719 26.03686523 126.83886719 25.99609375 122.859375 C25.97628197 121.78710663 25.97628197 121.78710663 25.95606995 120.69317627 C25.91520073 118.39958043 25.89357683 116.10637652 25.875 113.8125 C25.72541472 99.84516288 25.08193493 86.26871454 21.4375 72.6875 C21.08242065 71.33878162 20.72824508 69.98982496 20.375 68.640625 C20.065625 67.45984375 19.75625 66.2790625 19.4375 65.0625 C19.09331319 63.52322008 18.75782457 61.98192203 18.4375 60.4375 C16.50391464 51.56675312 13.97230369 42.85831569 10.4296875 34.49609375 C9.34843547 31.84404645 8.46468935 29.15525221 7.5625 26.4375 C5.92456173 21.81851409 3.75184198 18.36249627 0.609375 14.62109375 C-0.5625 13.0625 -0.5625 13.0625 -0.5625 11.0625 C-1.14 10.815 -1.7175 10.5675 -2.3125 10.3125 C-4.5625 9.0625 -4.5625 9.0625 -6.3125 7.1875 C-12.43166171 1.40829172 -19.77777703 -0.25271029 -27.96484375 -0.15625 C-34.31189044 0.37823814 -38.83305286 2.87334964 -43.5625 7.0625 C-52.45621148 18.42467018 -54.68475443 30.51767188 -54.765625 44.59375 C-54.77132507 45.38793335 -54.77702515 46.1821167 -54.78289795 47.00036621 C-54.7922878 48.67438451 -54.79885779 50.34842079 -54.80273438 52.02246094 C-54.81236867 54.52834189 -54.84341986 57.03337574 -54.875 59.5390625 C-54.94435002 70.11376462 -53.85199546 79.73526073 -51.5625 90.0625 C-51.22431079 91.84104559 -50.89251191 93.62083206 -50.5703125 95.40234375 C-48.77308755 104.86347074 -46.57224288 114.06109103 -43.7265625 123.26171875 C-42.43879954 127.46639444 -41.31394834 131.69786426 -40.23828125 135.9609375 C-39.58262993 138.32844473 -39.58262993 138.32844473 -37.5625 141.0625 C-37.375 144.1875 -37.375 144.1875 -37.5625 147.0625 C-38.5625 148.0625 -38.5625 148.0625 -41 148.25 C-43.5625 148.0625 -43.5625 148.0625 -45.5625 146.0625 C-46.24457995 144.03918719 -46.86037423 141.99321244 -47.4375 139.9375 C-48.79066362 135.36180226 -50.30469509 131.32473671 -52.56640625 127.14453125 C-53.80455956 124.55654805 -54.63475824 121.92221994 -55.5 119.1875 C-57.02908834 114.41507194 -58.93446984 110.1475341 -61.265625 105.72265625 C-63.31377496 101.52148118 -64.85946352 97.14124571 -66.44921875 92.75 C-67.4000858 89.96980801 -67.4000858 89.96980801 -69.5625 88.0625 C-70.24275637 86.06708132 -70.90740497 84.06632009 -71.5625 82.0625 C-72.53659722 80.04975695 -73.54195488 78.05209485 -74.5625 76.0625 C-74.88935791 75.41990234 -75.21621582 74.77730469 -75.55297852 74.11523438 C-81.57908462 61.95642103 -81.57908462 61.95642103 -89.5625 51.0625 C-90.14257812 50.41410156 -90.72265625 49.76570313 -91.3203125 49.09765625 C-95.89971338 44.26796423 -100.94587186 40.47221104 -106.4375 36.7265625 C-107.13875 36.17742188 -107.84 35.62828125 -108.5625 35.0625 C-108.5625 34.4025 -108.5625 33.7425 -108.5625 33.0625 C-109.366875 32.918125 -110.17125 32.77375 -111 32.625 C-113.5625 32.0625 -113.5625 32.0625 -114.5625 31.0625 C-122.85704656 29.47418257 -131.77597211 28.63295601 -139.26953125 33.07421875 C-145.98325514 37.94495961 -149.48707614 45.9330112 -151.15625 53.89453125 C-151.44486186 56.63233541 -151.51392552 59.31009759 -151.5625 62.0625 C-151.58683105 63.02808838 -151.61116211 63.99367676 -151.63623047 64.98852539 C-151.7457482 72.82396507 -151.07359777 80.2725945 -149.8125 88 C-149.62913086 89.13808105 -149.44576172 90.27616211 -149.25683594 91.44873047 C-146.9688402 105.17081811 -143.11351394 116.74002808 -136.62695312 129.01269531 C-135.56257925 131.0623474 -134.54784573 133.12966274 -133.546875 135.2109375 C-129.02529506 144.58849432 -123.8583391 153.14886618 -117.7265625 161.58984375 C-115.37524566 164.90707714 -113.7174788 167.37801028 -112.8125 171.375 C-113.90328246 175.28363715 -116.12500553 176.07933012 -119.5625 178.0625 C-120.91823748 179.37304623 -122.24862831 180.70998503 -123.5625 182.0625 C-127.12280856 185.27656291 -130.73095388 188.40787859 -134.5 191.375 C-136.65230875 192.90123758 -136.65230875 192.90123758 -137.5625 195.0625 C-138.2225 195.0625 -138.8825 195.0625 -139.5625 195.0625 C-139.82675781 195.65546875 -140.09101563 196.2484375 -140.36328125 196.859375 C-141.60620425 199.14279054 -142.86651646 200.53676723 -144.75 202.3125 C-150.60330022 208.03194097 -155.62453769 213.52771679 -159.32421875 220.88671875 C-160.5625 223.0625 -160.5625 223.0625 -162.52734375 225.46484375 C-169.22646428 234.01554461 -172.62905529 245.97781728 -176.5625 256.0625 C-175.36753906 255.44761719 -175.36753906 255.44761719 -174.1484375 254.8203125 C-173.08882812 254.28148437 -172.02921875 253.74265625 -170.9375 253.1875 C-169.89335937 252.65382813 -168.84921875 252.12015625 -167.7734375 251.5703125 C-159.09590548 247.4954617 -150.60205779 246.97492907 -141.1875 246.8125 C-140.48512207 246.79106934 -139.78274414 246.76963867 -139.05908203 246.74755859 C-134.01614462 246.71464602 -134.01614462 246.71464602 -131.5859375 248.578125 C-131.24820313 249.06796875 -130.91046875 249.5578125 -130.5625 250.0625 C-131.2644043 252.02172852 -131.2644043 252.02172852 -132.5625 254.0625 C-134.69458008 254.62084961 -134.69458008 254.62084961 -137.33203125 254.71484375 C-138.29737793 254.76608398 -139.26272461 254.81732422 -140.25732422 254.87011719 C-141.28615723 254.91297852 -142.31499023 254.95583984 -143.375 255 C-156.76076804 255.86333144 -166.69626874 258.93860035 -177.5625 267.0625 C-178.27277344 267.57039063 -178.98304688 268.07828125 -179.71484375 268.6015625 C-187.26477116 274.08475 -192.46230148 280.28660846 -197.5625 288.0625 C-198.15417969 288.9596875 -198.74585938 289.856875 -199.35546875 290.78125 C-213.85495221 314.08284814 -220.37317025 349.59137093 -214.33154297 376.56982422 C-208.62588089 399.16166965 -194.88537642 422.85300603 -174.625 435.4375 C-161.46477882 442.62353354 -148.44048958 447.92997106 -133.39453125 448.71875 C-130.48145514 449.07233717 -128.22464795 449.85552981 -125.5625 451.0625 C-125.5625 451.3925 -125.5625 451.7225 -125.5625 452.0625 C-130.39624924 452.26364834 -135.227451 452.40696094 -140.06445312 452.50195312 C-141.70160444 452.54163388 -143.33848318 452.5958013 -144.97460938 452.66601562 C-167.30357176 453.59867499 -181.62210456 442.33011669 -197.796875 427.91015625 C-199.5625 426.0625 -199.5625 426.0625 -199.5625 424.0625 C-200.2225 424.0625 -200.8825 424.0625 -201.5625 424.0625 C-204.17252952 420.93751871 -206.32708207 417.46138107 -208.5625 414.0625 C-209.25472656 413.01578125 -209.94695312 411.9690625 -210.66015625 410.890625 C-220.5816572 395.38712072 -224.94459943 377.41929599 -225.5625 359.0625 C-225.6140625 358.11246094 -225.665625 357.16242188 -225.71875 356.18359375 C-225.93723457 349.05553458 -225.17612758 342.16866787 -224.1875 335.125 C-224.06149414 334.22467041 -223.93548828 333.32434082 -223.80566406 332.39672852 C-223.1084111 327.74678152 -222.15167066 323.50436225 -220.5625 319.0625 C-220.24147167 317.50576736 -219.94837871 315.94293431 -219.6875 314.375 C-217.7485697 304.41188124 -213.65595214 295.78249007 -208.5625 287.0625 C-208.04816406 286.13179688 -207.53382813 285.20109375 -207.00390625 284.2421875 C-206.52824219 283.52289063 -206.05257812 282.80359375 -205.5625 282.0625 C-204.9025 282.0625 -204.2425 282.0625 -203.5625 282.0625 C-203.335625 281.36125 -203.10875 280.66 -202.875 279.9375 C-201.22408712 276.32121465 -199.2716165 273.97480024 -196.5625 271.0625 C-195.9025 271.0625 -195.2425 271.0625 -194.5625 271.0625 C-194.253125 270.2271875 -194.253125 270.2271875 -193.9375 269.375 C-192.5625 267.0625 -192.5625 267.0625 -189.5625 265 C-185.76919559 261.9946767 -185.67086208 258.66909452 -185.02734375 254.06640625 C-182.20516801 235.82898484 -170.48801824 219.4432305 -159.29296875 205.33203125 C-157.54026246 203.03333519 -155.96475803 200.66350675 -154.375 198.25 C-151.37396451 193.89918371 -147.96643943 190.17273446 -144.25 186.4375 C-143.72188721 185.90406982 -143.19377441 185.37063965 -142.6496582 184.82104492 C-138.82067532 181.0625 -138.82067532 181.0625 -136.5625 181.0625 C-136.2325 180.0725 -135.9025 179.0825 -135.5625 178.0625 C-133.83498041 177.08465872 -132.104888 176.11046524 -130.3515625 175.1796875 C-127.80914985 173.59206737 -126.25584038 171.50091014 -124.5625 169.0625 C-124.92601563 168.52882812 -125.28953125 167.99515625 -125.6640625 167.4453125 C-129.00428044 162.49493822 -132.15510879 157.47011447 -135.19140625 152.328125 C-136.26727273 150.55033993 -137.43092843 148.82564738 -138.625 147.125 C-141.4520257 142.65647551 -143.44319997 137.89825091 -145.5625 133.0625 C-146.11164063 131.87398437 -146.66078125 130.68546875 -147.2265625 129.4609375 C-158.8096291 104.18732969 -167.28677973 73.35173898 -158.5625 45.91796875 C-154.49699886 35.28614833 -147.55182059 27.01016429 -137.23828125 21.9140625 C-126.88334901 18.61862421 -114.12404632 20.96166989 -104.63183594 25.84521484 C-101.21440698 27.85551461 -98.32415232 30.36647602 -95.375 33 C-94.49038086 33.76860352 -94.49038086 33.76860352 -93.58789062 34.55273438 C-85.40947918 41.71225585 -78.29422144 49.18760309 -73.5625 59.0625 C-72.59959344 60.53162029 -71.61867276 61.98901185 -70.625 63.4375 C-67.85901788 67.5002518 -65.66185533 71.62155604 -63.5625 76.0625 C-63.63178711 75.42723389 -63.70107422 74.79196777 -63.77246094 74.13745117 C-66.25528329 49.53232827 -67.29697061 22.20402564 -51.10546875 1.8046875 C-37.16063219 -13.23260169 -15.50344919 -11.86093543 0 0 Z " fill="#674C43" transform="translate(225.5625,8.9375)"/>
<path d="M0 0 C0.79019531 -0.00773437 1.58039063 -0.01546875 2.39453125 -0.0234375 C13.01654625 0.01133178 21.35752936 2.31227838 29.140625 9.8359375 C33.13861042 14.36239226 33.99538737 18.73044804 33.8984375 24.625 C32.42412211 34.33813667 25.96314779 42.28178166 18.5 48.25 C4.07699976 58.3767874 -12.28309705 62.57562902 -29.6875 62.75 C-30.72841797 62.79125 -31.76933594 62.8325 -32.84179688 62.875 C-38.03575104 62.92776398 -41.54539952 62.80517526 -45.62109375 59.3828125 C-50.56856736 54.42998697 -52.61436798 49.56483816 -52.75 42.625 C-52.56442979 32.06296244 -48.70804913 23.95100082 -41.5 16.25 C-29.30263383 5.58757489 -16.23414254 -0.15889862 0 0 Z " fill="#ED8D9D" transform="translate(123.5,315.75)"/>
<path d="M0 0 C2.63120883 -0.37660432 4.24800865 -0.30823564 6.796875 0.51953125 C10.75648366 4.06743748 13.77354496 8.18367769 16.796875 12.51953125 C17.77527344 13.88271484 17.77527344 13.88271484 18.7734375 15.2734375 C25.08157776 24.59670206 30.98860162 34.99950725 29.796875 46.51953125 C12.92903862 55.05300665 -7.65486547 61.34529005 -26.578125 56.45703125 C-33.3068054 54.04743624 -38.92455797 49.90660147 -43.828125 44.76953125 C-46.35371403 38.79995718 -45.91264639 32.98198785 -44.140625 26.83203125 C-38.36718347 16.96130864 -28.32692777 7.09902594 -17.23828125 3.578125 C-11.5305976 2.11769173 -5.71910885 1.3486551 0 0 Z " fill="#ED8D9D" transform="translate(335.203125,250.48046875)"/>
<path d="M0 0 C10.79942387 0.91520541 19.30568597 5.56159526 26.6875 13.3125 C27.20699219 13.79976563 27.72648437 14.28703125 28.26171875 14.7890625 C31.37697894 17.73083362 33.53748283 20.05743648 34.6875 24.3125 C34.6875 25.3025 34.6875 26.2925 34.6875 27.3125 C8.9475 27.3125 -16.7925 27.3125 -43.3125 27.3125 C-35.62019231 11.92788462 -35.62019231 11.92788462 -26.3125 7.3125 C-25.64734375 6.961875 -24.9821875 6.61125 -24.296875 6.25 C-16.2123984 2.0534778 -8.95290894 0.84461405 0 0 Z " fill="#E9C5CC" transform="translate(174.3125,433.6875)"/>
<path d="M0 0 C4.91588652 0.35969901 7.63318912 1.87544151 11.38671875 4.84375 C13.11455327 6.2024156 13.11455327 6.2024156 16 7 C16.33 6.01 16.66 5.02 17 4 C21.31458569 1.11720332 26.01352845 1.61081198 31 2 C35.02440534 3.04984487 37.59985059 4.57121513 40 8 C41.32830248 12.87895717 41.77023252 17.36124275 39.375 21.9375 C37.07635284 24.90154503 35.3613893 26.41267728 32 28 C33.02234947 30.67383708 34.11012565 33.21067517 35.4375 35.75 C37.07485543 39.15569929 38.22972267 42.54378728 39.3515625 46.14453125 C39.84612225 47.99086829 39.84612225 47.99086829 41 49 C41.29063605 51.24288833 41.50742384 53.49553999 41.6875 55.75 C41.79449219 56.98234375 41.90148437 58.2146875 42.01171875 59.484375 C42.00024302 62.92709539 41.51828189 64.95180187 40 68 C38.35 68 36.7 68 35 68 C34.8040625 66.741875 34.608125 65.48375 34.40625 64.1875 C31.73588493 48.42677635 26.34793832 36.01646062 17 23 C16.45859375 22.12021484 16.45859375 22.12021484 15.90625 21.22265625 C12.64420452 16.08493462 8.17922078 12.65511133 3.42578125 8.91796875 C1 7 1 7 -1 5 C-0.625 2.375 -0.625 2.375 0 0 Z " fill="#583A31" transform="translate(142,287)"/>
<path d="M0 0 C7.26451958 6.54970415 10.79562532 16.32486477 11.9375 25.8125 C11.97293141 29.2411937 11.97293141 29.2411937 13.375 30.4375 C13.52854338 33.24261953 13.60665776 36.00613671 13.625 38.8125 C13.645625 39.59367187 13.66625 40.37484375 13.6875 41.1796875 C13.7275846 47.03203903 13.7275846 47.03203903 11.85449219 49.18603516 C11.12214355 49.80551025 11.12214355 49.80551025 10.375 50.4375 C10.31554199 49.86418945 10.25608398 49.29087891 10.19482422 48.70019531 C8.63510431 30.30209495 8.63510431 30.30209495 -1.0703125 15.25390625 C-8.04093145 10.29773223 -14.43045354 11.35950084 -22.625 12.4375 C-25.99446003 13.31907622 -28.71123604 14.34253638 -31.00390625 17.08984375 C-32.625 18.4375 -32.625 18.4375 -34.88671875 18.29296875 C-35.68722656 18.07253906 -36.48773438 17.85210937 -37.3125 17.625 C-38.12074219 17.41230469 -38.92898438 17.19960938 -39.76171875 16.98046875 C-40.37660156 16.80128906 -40.99148438 16.62210937 -41.625 16.4375 C-40.82791106 8.46661065 -38.1609004 3.23088414 -32.625 -2.5625 C-21.44478781 -9.4609288 -9.9991938 -7.56517952 0 0 Z " fill="#FAF8F8" transform="translate(409.625,299.5625)"/>
<path d="M0 0 C11.33382915 0.43094407 21.26635641 3.51401978 30 11 C33.68553007 15.02748647 36.32434885 18.94280303 36.625 24.5 C36.3391249 28.78812645 34.83067471 32.26556775 32.875 36.0546875 C31.79489381 38.10048811 31.79489381 38.10048811 32 41 C31.34 41 30.68 41 30 41 C29.67 41.66 29.34 42.32 29 43 C28.34 43 27.68 43 27 43 C25.65117592 43.63474075 24.3153341 44.29848848 23 45 C22.92265625 44.08734375 22.92265625 44.08734375 22.84375 43.15625 C21.15011033 30.06903437 14.16882013 18.80546124 6.078125 8.6484375 C3.8812622 5.84867626 1.94068431 2.98096104 0 0 Z " fill="#FEB1C1" transform="translate(342,251)"/>
<path d="M0 0 C10.79942387 0.91520541 19.30568597 5.56159526 26.6875 13.3125 C27.20699219 13.79976563 27.72648437 14.28703125 28.26171875 14.7890625 C31.37697894 17.73083362 33.53748283 20.05743648 34.6875 24.3125 C34.6875 25.3025 34.6875 26.2925 34.6875 27.3125 C31.7175 27.3125 28.7475 27.3125 25.6875 27.3125 C25.5225 26.631875 25.3575 25.95125 25.1875 25.25 C23.2746566 21.504015 20.69231781 19.49545268 17.46484375 16.86328125 C15.6875 15.3125 15.6875 15.3125 14.6875 13.3125 C5.08913426 7.79897335 -4.85892604 8.5404121 -15.3515625 10.6796875 C-17.51828872 11.21444054 -17.51828872 11.21444054 -19.3125 13.3125 C-20.055 13.580625 -20.7975 13.84875 -21.5625 14.125 C-26.701165 16.34396898 -29.85739263 19.43347974 -32.6875 24.125 C-34.1726475 26.37463326 -34.73074221 27.18853666 -37.40234375 27.7578125 C-39.625 27.75 -39.625 27.75 -43.3125 27.3125 C-39.09902688 18.24008554 -35.56652492 11.90127269 -26.3125 7.3125 C-25.64734375 6.961875 -24.9821875 6.61125 -24.296875 6.25 C-16.2123984 2.0534778 -8.95290894 0.84461405 0 0 Z " fill="#5B3D33" transform="translate(174.3125,433.6875)"/>
<path d="M0 0 C5.16508328 1.75417923 7.5641361 4.1282722 10 9 C10.65552736 14.24421886 9.74899292 17.52015969 7 22 C4.97568392 24.4643848 3.00599525 25.91450171 0 27 C-4.50249158 27.32745393 -8.03482424 27.25050516 -12 25 C-16.65474138 19.82806514 -17.40022463 16.54182336 -17.35546875 9.703125 C-17 7 -17 7 -14.6875 3.9375 C-9.35825472 0.09548596 -6.46315585 -0.697224 0 0 Z " fill="#583A31" transform="translate(274,259)"/>
<path d="M0 0 C2.5 -0.3125 2.5 -0.3125 5 0 C5.66 0.66 6.32 1.32 7 2 C6.76834083 7.49363173 4.31486131 11.77700296 1.75 16.5 C1.36714844 17.23347656 0.98429687 17.96695312 0.58984375 18.72265625 C-5.23859127 29.61929563 -5.23859127 29.61929563 -10 32 C-20.86406458 32.64379642 -31.23813814 27.48047972 -39.375 20.5625 C-40.24125 19.716875 -41.1075 18.87125 -42 18 C-41.67 16.35 -41.34 14.7 -41 13 C-38.7734375 12.296875 -38.7734375 12.296875 -36 12 C-33.7890625 13.328125 -33.7890625 13.328125 -31.625 15.25 C-25.37779711 20.43362951 -20.0775314 22.29144461 -12 23 C-8.67169216 17.06451768 -5.49144215 11.15501988 -2.859375 4.875 C-2 3 -2 3 0 0 Z " fill="#5A3C33" transform="translate(247,297)"/>
<path d="M0 0 C0.33 1.65 0.66 3.3 1 5 C-0.423125 5.8353125 -0.423125 5.8353125 -1.875 6.6875 C-5.22063306 9.16326846 -6.09719129 10.02764168 -7 14 C-7.48347039 19.99503287 -6.76961752 23.67381247 -4 29 C-3.34 29.66 -2.68 30.32 -2 31 C-2 31.99 -2 32.98 -2 34 C-7.65737201 33.38998771 -9.64208154 30.59077958 -13.12890625 26.37890625 C-13.74636719 25.59386719 -14.36382812 24.80882812 -15 24 C-15.46277344 23.45214844 -15.92554688 22.90429688 -16.40234375 22.33984375 C-20.35186399 16.84424797 -19.89880089 9.44545501 -19 3 C-14.28511002 -3.51235537 -6.68444756 -1.97047207 0 0 Z " fill="#FAF9F9" transform="translate(370,323)"/>
<path d="M0 0 C0.91644287 0.00523682 1.83288574 0.01047363 2.77709961 0.01586914 C3.76645508 0.0190918 4.75581055 0.02231445 5.77514648 0.02563477 C6.81606445 0.03401367 7.85698242 0.04239258 8.92944336 0.05102539 C10.49662109 0.05779297 10.49662109 0.05779297 12.09545898 0.06469727 C14.68600996 0.07652627 17.27644895 0.0930085 19.86694336 0.11352539 C20.19694336 1.43352539 20.52694336 2.75352539 20.86694336 4.11352539 C15.00225189 7.75914441 10.6732041 8.61126215 3.86694336 8.11352539 C0.30444336 7.11352539 0.30444336 7.11352539 -2.13305664 6.11352539 C-2.51524431 4.45737882 -2.84700766 2.78895515 -3.13305664 1.11352539 C-2.13305664 0.11352539 -2.13305664 0.11352539 0 0 Z " fill="#5F4138" transform="translate(389.133056640625,363.886474609375)"/>
<path d="M0 0 C0.66 0.33 1.32 0.66 2 1 C0.90344712 2.31886772 -0.20253423 3.62990057 -1.3125 4.9375 C-1.92738281 5.66839844 -2.54226562 6.39929688 -3.17578125 7.15234375 C-5 9 -5 9 -8 10 C-8 10.99 -8 11.98 -8 13 C-8.66 13 -9.32 13 -10 13 C-8.04643572 7.30210418 -4.98086349 3.37987165 0 0 Z " fill="#9E8C87" transform="translate(181,5)"/>
<path d="M0 0 C-1.38188453 3.21043882 -2.92421903 5.04936365 -5.625 7.25 C-6.57246094 8.03117187 -6.57246094 8.03117187 -7.5390625 8.828125 C-8.02117187 9.21484375 -8.50328125 9.6015625 -9 10 C-9 7 -9 7 -7.5390625 5.17578125 C-6.90742187 4.56089844 -6.27578125 3.94601563 -5.625 3.3125 C-4.68527344 2.37857422 -4.68527344 2.37857422 -3.7265625 1.42578125 C-2 0 -2 0 0 0 Z " fill="#96847E" transform="translate(82,36)"/>
<path d="M0 0 C0.33 0 0.66 0 1 0 C1.144375 0.7425 1.28875 1.485 1.4375 2.25 C1.93059024 4.91958229 1.93059024 4.91958229 2.6875 7.125 C3 9 3 9 1 12 C-0.26237731 9.47524538 -0.09856404 7.68799534 -0.0625 4.875 C-0.05347656 3.96492188 -0.04445313 3.05484375 -0.03515625 2.1171875 C-0.02355469 1.41851562 -0.01195312 0.71984375 0 0 Z " fill="#EFDEE1" transform="translate(419,343)"/>
</svg>
