<?xml version="1.0" encoding="UTF-8"?>
<svg version="1.1" xmlns="http://www.w3.org/2000/svg" width="433" height="459">
<path d="M0 0 C3.07798723 2.74523186 4.93493387 5.44808626 7 9 C8.15822266 10.55847656 8.15822266 10.55847656 9.33984375 12.1484375 C12.10467029 15.99687903 14.14443971 20.0186766 16.125 24.3125 C16.45886719 25.00794922 16.79273438 25.70339844 17.13671875 26.41992188 C31.12027119 56.3337566 33.84275371 91.48591363 33 124 C33.57065186 123.99274902 34.14130371 123.98549805 34.72924805 123.97802734 C49.66480146 123.86917896 62.93194679 127.37223329 77 132 C78.23878906 132.40347656 79.47757812 132.80695313 80.75390625 133.22265625 C98.55128713 139.3063496 118.4784555 147.15077958 132.99609375 159.3671875 C135.93782095 161.7641504 139.13166678 163.73172371 142.34765625 165.73828125 C142.89292969 166.15464844 143.43820312 166.57101563 144 167 C144 167.66 144 168.32 144 169 C144.5775 169.26039063 145.155 169.52078125 145.75 169.7890625 C151.06220642 172.64806248 156.00846308 177.50952096 160 182 C160 182.66 160 183.32 160 184 C160.66 184 161.32 184 162 184 C162 184.66 162 185.32 162 186 C162.58265625 186.2371875 163.1653125 186.474375 163.765625 186.71875 C166.47552837 188.2726806 167.86530802 190.01929431 169.75 192.5 C170.36359375 193.2940625 170.9771875 194.088125 171.609375 194.90625 C173 197 173 197 173 199 C173.66 199 174.32 199 175 199 C181.81017388 207.30759163 186.36157372 217.65413622 191.1875 227.1875 C191.68709229 228.16698608 191.68709229 228.16698608 192.19677734 229.16625977 C203.11873929 250.97449098 209.38809638 279.9395487 205.0625 304.125 C204.06502815 310.53237127 203.76242445 316.83484179 203.5625 323.3125 C203.12118293 336.31600813 201.16244659 348.54911539 197.6484375 361.09375 C196.94431281 364.24958598 196.60440577 367.34655446 196.27294922 370.55908203 C193.63083058 394.18690145 187.06375367 418.94521262 174 439 C173.50887813 440.08271337 173.50887813 440.08271337 173.00783461 441.18729973 C171.5838763 443.9364451 170.26920334 445.87969096 168 448 C163.41347966 449.35903269 158.84497807 449.20844514 154.10310364 449.12939453 C152.66618079 449.13833526 151.22927794 449.1512064 149.79242152 449.16766357 C145.84737533 449.20136214 141.90434161 449.17891979 137.95935237 449.14720392 C133.70347899 449.12273458 129.44789626 449.150095 125.19204712 449.17086792 C116.85493337 449.20319873 108.51858176 449.18709256 100.18149731 449.15410411 C93.40345774 449.12831389 86.62562438 449.12083044 79.8475399 449.12646484 C78.88292772 449.1272665 77.91831554 449.12806815 76.92447269 449.12889409 C74.96483189 449.13062704 73.00519113 449.13241354 71.04555043 449.13425303 C53.71112204 449.14870392 36.37706043 449.11783882 19.04272461 449.06347656 C2.23137741 449.01075764 -14.57945824 448.99653267 -31.39086914 449.02246094 C-49.69950781 449.05065493 -68.00790621 449.05656821 -86.31654721 449.02465248 C-88.27051848 449.02128232 -90.22448976 449.01792724 -92.17846107 449.0145874 C-93.1398178 449.0129175 -94.10117452 449.01124759 -95.09166327 449.00952709 C-101.85680927 448.99919125 -108.62184218 449.00432759 -115.38698387 449.01519775 C-123.63879611 449.02787931 -131.89011415 449.01503772 -140.14182117 448.97012842 C-144.34994675 448.94781061 -148.55731149 448.93644969 -152.7654705 448.95556259 C-156.62327519 448.97274128 -160.47955966 448.9572296 -164.33717362 448.91637778 C-165.72746336 448.90722186 -167.11789184 448.90965239 -168.50812378 448.9252913 C-178.33669069 449.02648401 -184.26156876 447.03054594 -192 441 C-193.72914492 439.72913708 -195.45830858 438.45829966 -197.1875 437.1875 C-199.41796875 435.48046875 -199.41796875 435.48046875 -201 434 C-201 433.34 -201 432.68 -201 432 C-201.99 431.67 -202.98 431.34 -204 431 C-205.75171171 428.84472199 -207.358439 426.71327423 -208.9375 424.4375 C-209.38625488 423.79707764 -209.83500977 423.15665527 -210.29736328 422.49682617 C-213.29239122 418.16353584 -216.02728674 413.90248544 -218 409 C-218.32226562 408.20851563 -218.64453125 407.41703125 -218.9765625 406.6015625 C-223.70931284 394.28196047 -226.71438938 382.20609118 -227 369 C-227.04664795 367.50364014 -227.04664795 367.50364014 -227.09423828 365.97705078 C-227.53933048 350.49723605 -227.21104345 335.95791467 -223 321 C-222.75862305 320.13826172 -222.51724609 319.27652344 -222.26855469 318.38867188 C-217.12926302 300.61124785 -209.63496597 280.40171882 -194.125 269.0625 C-190.18530485 265.89086468 -189.71076345 262.14422346 -188.73046875 257.34375 C-186.4577751 246.94040366 -181.97161379 237.35228641 -177 228 C-176.57332031 227.1440625 -176.14664063 226.288125 -175.70703125 225.40625 C-168.92902179 212.20801458 -159.90118006 200.41836142 -149.640625 189.76171875 C-147.44657329 187.46705224 -145.38986899 185.13761982 -143.375 182.6875 C-142.59125 181.800625 -141.8075 180.91375 -141 180 C-140.34 180 -139.68 180 -139 180 C-138.62875 179.10474609 -138.62875 179.10474609 -138.25 178.19140625 C-136.80680911 175.66131223 -135.38486231 174.58147678 -133 172.9375 C-130.22079739 171.01147172 -128.92530434 169.88795651 -127 167 C-127.49628906 166.39414063 -127.99257812 165.78828125 -128.50390625 165.1640625 C-153.69627569 134.09188008 -168.83113625 96.32301467 -166 56 C-164.84437845 45.74132452 -162.44331841 36.59274284 -155.0078125 28.953125 C-144.52568915 20.71425762 -132.82965199 20.52378981 -120 22 C-111.49427342 23.94272579 -104.48113555 29.40039821 -98 35 C-97.34773437 35.50917969 -96.69546875 36.01835938 -96.0234375 36.54296875 C-88.20136721 42.85360315 -82.032447 51.35938345 -77 60 C-76.38382813 60.98355469 -75.76765625 61.96710938 -75.1328125 62.98046875 C-71.05573789 69.49268325 -67.26919718 76.0372387 -64 83 C-64.0721875 82.08605469 -64.144375 81.17210938 -64.21875 80.23046875 C-66.2584327 52.04740621 -66.73277113 25.97888842 -52 1 C-51.34 1 -50.68 1 -50 1 C-49.75894531 0.39414063 -49.51789063 -0.21171875 -49.26953125 -0.8359375 C-46.45364268 -5.63594448 -39.1677438 -8.3680809 -34 -10 C-20.70878473 -12.8667327 -10.10354439 -8.47319973 0 0 Z M-63 88 C-62 90 -62 90 -62 90 Z " fill="#ECC8CF" transform="translate(227,11)"/>
<path d="M0 0 C5.65987105 5.33481089 9.19327605 11.09853591 12.5625 18.0546875 C12.92988281 18.74433594 13.29726562 19.43398438 13.67578125 20.14453125 C16.5482293 25.5678019 18.5796181 31.25683131 20.5625 37.0546875 C20.80025146 37.73660156 21.03800293 38.41851562 21.28295898 39.12109375 C25.91670795 52.6348646 27.92829176 66.68471201 29.8125 80.8046875 C30.0753479 82.72112061 30.0753479 82.72112061 30.34350586 84.67626953 C31.8057353 96.14280026 32.01301985 107.46713434 31.0625 118.9921875 C30.9696875 120.15621094 30.876875 121.32023438 30.78125 122.51953125 C30.7090625 123.35613281 30.636875 124.19273437 30.5625 125.0546875 C33.44488472 126.01548241 35.69881464 126.30309287 38.7109375 126.51953125 C39.71640625 126.59751953 40.721875 126.67550781 41.7578125 126.75585938 C43.86954844 126.91281272 45.98153099 127.06648426 48.09375 127.21679688 C49.10179687 127.29607422 50.10984375 127.37535156 51.1484375 127.45703125 C52.0667334 127.52398193 52.9850293 127.59093262 53.93115234 127.65991211 C56.72597523 128.07921333 58.9639155 128.96859596 61.5625 130.0546875 C62.655625 130.1990625 63.74875 130.3434375 64.875 130.4921875 C68.3903338 131.02842486 71.13812762 131.93493855 74.40625 133.2421875 C76.7034984 134.10781733 79.01046635 134.77120978 81.375 135.4296875 C87.03829195 137.0851113 92.23704655 139.54376492 97.5625 142.0546875 C101.04045738 143.58688705 104.5469726 145.04831018 108.0625 146.4921875 C110.60735445 147.62828324 112.86881484 148.77331588 115.25 150.1796875 C117.85056982 151.65170815 119.66637239 152.59130708 122.5625 153.0546875 C122.5625 153.7146875 122.5625 154.3746875 122.5625 155.0546875 C123.28179687 155.30992187 124.00109375 155.56515625 124.7421875 155.828125 C127.75462383 157.13824274 130.0608999 158.71169758 132.6875 160.6796875 C135.68138404 162.91186227 138.67325876 165.13299901 141.72265625 167.2890625 C142.72167969 167.99546875 143.72070312 168.701875 144.75 169.4296875 C145.67167969 170.07679688 146.59335937 170.72390625 147.54296875 171.390625 C148.54263672 172.21433594 148.54263672 172.21433594 149.5625 173.0546875 C149.5625 173.7146875 149.5625 174.3746875 149.5625 175.0546875 C150.12195313 175.28929687 150.68140625 175.52390625 151.2578125 175.765625 C158.16596113 179.62950474 163.74621365 186.82875319 168.2109375 193.265625 C169.56924973 195.15660934 169.56924973 195.15660934 171.515625 196.9609375 C173.72204419 199.21788538 175.2737347 201.50047859 176.9375 204.1796875 C177.84048828 205.63181641 177.84048828 205.63181641 178.76171875 207.11328125 C179.35597656 208.08394531 179.95023437 209.05460938 180.5625 210.0546875 C181.10519531 210.93253906 181.64789063 211.81039062 182.20703125 212.71484375 C185.2599482 217.71544442 188.10647899 222.73481911 190.5625 228.0546875 C191.02527344 229.04855469 191.48804688 230.04242188 191.96484375 231.06640625 C194.85936767 237.52568736 197.30024152 243.9619331 199.3125 250.7421875 C199.61015259 251.73786743 199.61015259 251.73786743 199.91381836 252.75366211 C202.77448915 262.78253493 203.85344139 272.31979189 203.6875 282.7421875 C203.67847656 283.83724609 203.66945313 284.93230469 203.66015625 286.06054688 C203.63688154 288.72550104 203.60419135 291.38996884 203.5625 294.0546875 C200.75500745 292.65094122 200.72005283 290.94856958 199.5625 288.0546875 C197.67784489 284.97641749 195.86659685 282.35878435 193.3125 279.8046875 C192.735 279.2271875 192.1575 278.6496875 191.5625 278.0546875 C191.5625 277.3946875 191.5625 276.7346875 191.5625 276.0546875 C190.716875 275.7865625 189.87125 275.5184375 189 275.2421875 C185.5625 274.0546875 185.5625 274.0546875 182.3125 272.4296875 C174.69031777 269.63488735 166.48305567 271.11096172 158.5625 272.0546875 C158.55992187 271.36503906 158.55734375 270.67539062 158.5546875 269.96484375 C158.24936687 262.54555236 156.66449098 257.54487345 151.5625 252.0546875 C149.05365693 249.99385212 146.46523157 248.49538148 143.5625 247.0546875 C142.86125 246.68601562 142.16 246.31734375 141.4375 245.9375 C135.66958306 243.11534064 129.89307939 241.95398476 123.5625 241.0546875 C123.5625 240.3946875 123.5625 239.7346875 123.5625 239.0546875 C122.923125 238.7865625 122.28375 238.5184375 121.625 238.2421875 C119.5625 237.0546875 119.5625 237.0546875 118.5625 234.0546875 C116.9148962 233.34221018 115.24486471 232.68068367 113.5625 232.0546875 C111.25 230.5546875 111.25 230.5546875 109.5625 229.0546875 C109.5625 228.3946875 109.5625 227.7346875 109.5625 227.0546875 C108.52996094 226.69117188 108.52996094 226.69117188 107.4765625 226.3203125 C104.04274005 224.82894725 101.03883213 222.87424265 97.9375 220.8046875 C92.76877015 217.41727133 87.54787681 214.2813447 82.078125 211.39453125 C79.67603971 210.11515974 77.34441818 208.74842688 75 207.3671875 C71.05320443 205.14844837 67.09989778 203.86198248 62.7265625 202.73046875 C60.5625 202.0546875 60.5625 202.0546875 57.5625 200.0546875 C54.89156162 199.50234314 54.89156162 199.50234314 51.85546875 199.203125 C50.15088501 199.00904053 50.15088501 199.00904053 48.41186523 198.81103516 C47.20344971 198.68519043 45.99503418 198.5593457 44.75 198.4296875 C43.51258057 198.29997559 42.27516113 198.17026367 41.00024414 198.03662109 C22.23460866 196.1487999 1.71520615 196.21323975 -16.4375 202.0546875 C-17.34113281 202.27769531 -18.24476563 202.50070313 -19.17578125 202.73046875 C-25.79819868 204.36848702 -31.48327124 206.74977621 -37.4375 210.0546875 C-38.38496094 210.5703125 -39.33242187 211.0859375 -40.30859375 211.6171875 C-67.10512599 226.67063604 -86.21943915 248.42000221 -96.78125 277.3671875 C-97.4375 279.0546875 -97.4375 279.0546875 -98.4375 280.0546875 C-100.04155891 280.08261116 -101.64577494 280.1014818 -103.25 280.1171875 C-116.3819378 281.10798041 -130.42803889 287.64122314 -140.4375 296.0546875 C-141.13359375 296.61542969 -141.8296875 297.17617188 -142.546875 297.75390625 C-145.9760748 300.4938198 -145.9760748 300.4938198 -148.4375 304.0546875 C-149.0975 304.0546875 -149.7575 304.0546875 -150.4375 304.0546875 C-150.70949219 304.62703125 -150.98148438 305.199375 -151.26171875 305.7890625 C-152.45444067 308.08733064 -153.79208695 310.16590213 -155.25 312.3046875 C-155.77851563 313.09617187 -156.30703125 313.88765625 -156.8515625 314.703125 C-157.83142023 316.1560175 -158.82378602 317.60066719 -159.8359375 319.03125 C-163.47867662 324.39601124 -164.93816958 329.79333277 -166.4375 336.0546875 C-166.80875 337.2303125 -167.18 338.4059375 -167.5625 339.6171875 C-173.13089534 361.49302635 -169.83473713 386.31043921 -159.4375 406.0546875 C-156.37248488 410.92308924 -153.14548635 415.54672913 -149 419.5546875 C-148.154375 420.3796875 -147.30875 421.2046875 -146.4375 422.0546875 C-146.4375 422.7146875 -146.4375 423.3746875 -146.4375 424.0546875 C-145.86257812 424.32796875 -145.28765625 424.60125 -144.6953125 424.8828125 C-142.43776423 426.05455036 -140.40865234 427.36599991 -138.3125 428.8046875 C-130.95228523 433.7598403 -123.43260187 438.20519401 -115.4375 442.0546875 C-115.4375 442.3846875 -115.4375 442.7146875 -115.4375 443.0546875 C-119.88491318 443.10434939 -124.3321768 443.14053043 -128.77978516 443.16455078 C-130.29088149 443.17457089 -131.80195862 443.18819071 -133.31298828 443.20556641 C-135.49256142 443.22999142 -137.67187684 443.24121057 -139.8515625 443.25 C-141.1607666 443.26047363 -142.4699707 443.27094727 -143.81884766 443.28173828 C-147.3955895 443.05731716 -150.10755451 442.32766017 -153.4375 441.0546875 C-154.91135396 440.71802035 -156.39048331 440.4031953 -157.875 440.1171875 C-164.89501548 438.58192535 -170.38777345 435.57793014 -176.2421875 431.51953125 C-178.14554306 430.24949863 -180.02432839 429.20791309 -182.0625 428.1796875 C-195.90933331 419.46131097 -204.6468697 400.17183353 -208.60546875 384.8046875 C-213.64224184 362.57235214 -213.6128811 338.0259389 -207.4375 316.0546875 C-207.23962891 315.3234668 -207.04175781 314.59224609 -206.83789062 313.83886719 C-203.62263786 302.12764717 -199.25631662 290.54732703 -191.4375 281.0546875 C-190.7775 281.0546875 -190.1175 281.0546875 -189.4375 281.0546875 C-189.23125 280.3534375 -189.025 279.6521875 -188.8125 278.9296875 C-187.0540622 275.25295391 -184.63321859 272.58173671 -181.4375 270.0546875 C-180.7775 270.0546875 -180.1175 270.0546875 -179.4375 270.0546875 C-179.09332031 269.18650391 -179.09332031 269.18650391 -178.7421875 268.30078125 C-174.07760638 260.2704395 -162.88770689 255.81165155 -154.4375 253.0546875 C-151.73033035 252.40123276 -149.05030995 251.85258382 -146.30078125 251.4140625 C-144.42969996 251.23368662 -144.42969996 251.23368662 -143.4375 250.0546875 C-140.57872091 249.81767511 -137.73866703 249.63249568 -134.875 249.4921875 C-134.06869141 249.44900391 -133.26238281 249.40582031 -132.43164062 249.36132812 C-130.43381195 249.25493488 -128.4356793 249.15427862 -126.4375 249.0546875 C-126.1075 247.4046875 -125.7775 245.7546875 -125.4375 244.0546875 C-128.25006281 244.02784438 -131.06237241 244.00792562 -133.875 243.9921875 C-134.67744141 243.98380859 -135.47988281 243.97542969 -136.30664062 243.96679688 C-138.35045221 243.9581732 -140.39433902 244.002406 -142.4375 244.0546875 C-142.7675 244.3846875 -143.0975 244.7146875 -143.4375 245.0546875 C-146.10808851 245.19583911 -148.76182238 245.09715857 -151.4375 245.0546875 C-151.4375 245.7146875 -151.4375 246.3746875 -151.4375 247.0546875 C-152.13875 247.22484375 -152.84 247.395 -153.5625 247.5703125 C-158.25493854 248.76892452 -162.63475438 249.98645706 -166.9375 252.2421875 C-170.4375 254.0546875 -170.4375 254.0546875 -173.4375 254.0546875 C-172.60955617 246.18922116 -169.0583803 238.99470807 -165.4375 232.0546875 C-164.90125 230.8996875 -164.365 229.7446875 -163.8125 228.5546875 C-161.43860263 223.76034576 -158.47398186 219.34359586 -155.52294922 214.890625 C-153.80979854 212.28807863 -152.4280521 210.02634379 -151.4375 207.0546875 C-150.7775 207.0546875 -150.1175 207.0546875 -149.4375 207.0546875 C-149.169375 206.4565625 -148.90125 205.8584375 -148.625 205.2421875 C-147.43177577 203.04414286 -146.19071129 201.80789879 -144.4375 200.0546875 C-143.921875 199.1678125 -143.40625 198.2809375 -142.875 197.3671875 C-142.400625 196.6040625 -141.92625 195.8409375 -141.4375 195.0546875 C-140.7775 195.0546875 -140.1175 195.0546875 -139.4375 195.0546875 C-139.04304688 194.18650391 -139.04304688 194.18650391 -138.640625 193.30078125 C-135.31408372 187.09051751 -129.85325451 182.41083787 -124.4375 178.0546875 C-123.65375 177.2709375 -122.87 176.4871875 -122.0625 175.6796875 C-119.4375 173.0546875 -119.4375 173.0546875 -117.34765625 171.39453125 C-112.9371112 167.98338494 -112.9371112 167.98338494 -110.5625 163.1171875 C-111.85501705 158.59337783 -114.44456451 155.62366915 -117.4375 152.0546875 C-118.900376 150.26672795 -120.35865835 148.47500085 -121.8125 146.6796875 C-122.50085938 145.84695312 -123.18921875 145.01421875 -123.8984375 144.15625 C-125.4375 142.0546875 -125.4375 142.0546875 -125.4375 140.0546875 C-126.0975 140.0546875 -126.7575 140.0546875 -127.4375 140.0546875 C-127.84097656 139.06726563 -128.24445313 138.07984375 -128.66015625 137.0625 C-130.14136656 133.6031572 -131.87391262 130.34350247 -133.69824219 127.05517578 C-137.50541762 120.17856389 -140.48384085 113.64647765 -142.5390625 106.01953125 C-143.44175574 103.04064354 -144.64169436 100.50577766 -146.0625 97.7421875 C-151.22900281 86.58254143 -150.63215384 73.85742354 -150.75 61.8046875 C-150.77670776 60.04717163 -150.77670776 60.04717163 -150.80395508 58.25415039 C-150.79487598 48.34187102 -150.15712277 38.16908908 -143.328125 30.45703125 C-137.13384381 25.86251276 -131.11353913 25.47441658 -123.625 25.4921875 C-122.64539307 25.4931543 -121.66578613 25.49412109 -120.65649414 25.49511719 C-113.2115128 25.67674761 -108.08772032 26.98333162 -102.4375 32.0546875 C-101.57125 32.6940625 -100.705 33.3334375 -99.8125 33.9921875 C-98.636875 35.013125 -98.636875 35.013125 -97.4375 36.0546875 C-96.76460938 36.61414062 -96.09171875 37.17359375 -95.3984375 37.75 C-94.66882813 38.36617187 -93.93921875 38.98234375 -93.1875 39.6171875 C-92.50171875 40.19597656 -91.8159375 40.77476563 -91.109375 41.37109375 C-89.4375 43.0546875 -89.4375 43.0546875 -88.4375 46.0546875 C-87.7775 46.0546875 -87.1175 46.0546875 -86.4375 46.0546875 C-84.82022911 48.21002962 -83.33537948 50.3580247 -81.875 52.6171875 C-81.43027344 53.29974609 -80.98554688 53.98230469 -80.52734375 54.68554688 C-79.6035428 56.11192703 -78.68416778 57.54118255 -77.76904297 58.97314453 C-76.93611004 60.27523219 -76.09749214 61.57372048 -75.25048828 62.86669922 C-69.50076081 71.66025281 -65.19876407 80.81178776 -61.11083984 90.48291016 C-58.60827642 96.40188894 -55.98250492 102.20495918 -53.0625 107.9296875 C-52.7320166 108.5791333 -52.4015332 109.2285791 -52.06103516 109.89770508 C-51.74827637 110.51154053 -51.43551758 111.12537598 -51.11328125 111.7578125 C-48.46212443 116.97360821 -46.07061663 122.1004675 -44.265625 127.671875 C-44.05574951 128.3117334 -43.84587402 128.9515918 -43.62963867 129.61083984 C-43.02695868 131.47145949 -42.45225225 133.34107039 -41.87890625 135.2109375 C-40.72871966 138.30111406 -40.72871966 138.30111406 -37.77734375 138.9609375 C-37.00519531 138.991875 -36.23304688 139.0228125 -35.4375 139.0546875 C-35.26705788 134.6231924 -35.45437984 131.94747893 -37.4375 128.0546875 C-37.82100029 126.44079046 -38.1524138 124.81384232 -38.4375 123.1796875 C-39.11578541 119.31588309 -40.19474043 115.77351557 -41.4375 112.0546875 C-43.93206684 101.85439062 -45.85946666 91.43515776 -47.4375 81.0546875 C-47.61104004 79.92998047 -47.78458008 78.80527344 -47.96337891 77.64648438 C-49.36588251 67.68034124 -49.74924131 57.89062688 -49.69824219 47.83203125 C-49.68733299 45.26539455 -49.69830842 42.69943069 -49.7109375 40.1328125 C-49.70961875 38.48697763 -49.70706229 36.84114318 -49.703125 35.1953125 C-49.70717346 34.4349469 -49.71122192 33.6745813 -49.71539307 32.89117432 C-49.68123763 29.05081607 -49.39300187 26.36471398 -47.4375 23.0546875 C-47.0971875 21.105625 -47.0971875 21.105625 -46.75 19.1171875 C-44.92886164 10.40173966 -40.13596859 1.89912707 -33.4375 -3.9453125 C-21.55930697 -9.90539522 -10.22170965 -8.15771059 0 0 Z " fill="#FEFDFD" transform="translate(220.4375,15.9453125)"/>
<path d="M0 0 C3.07798723 2.74523186 4.93493387 5.44808626 7 9 C8.15822266 10.55847656 8.15822266 10.55847656 9.33984375 12.1484375 C12.10467029 15.99687903 14.14443971 20.0186766 16.125 24.3125 C16.45886719 25.00794922 16.79273438 25.70339844 17.13671875 26.41992188 C31.12027119 56.3337566 33.84275371 91.48591363 33 124 C33.57065186 123.99274902 34.14130371 123.98549805 34.72924805 123.97802734 C49.66480146 123.86917896 62.93194679 127.37223329 77 132 C78.23878906 132.40347656 79.47757812 132.80695313 80.75390625 133.22265625 C98.55128713 139.3063496 118.4784555 147.15077958 132.99609375 159.3671875 C135.93782095 161.7641504 139.13166678 163.73172371 142.34765625 165.73828125 C142.89292969 166.15464844 143.43820312 166.57101563 144 167 C144 167.66 144 168.32 144 169 C144.5775 169.26039063 145.155 169.52078125 145.75 169.7890625 C151.06220642 172.64806248 156.00846308 177.50952096 160 182 C160 182.66 160 183.32 160 184 C160.66 184 161.32 184 162 184 C162 184.66 162 185.32 162 186 C162.58265625 186.2371875 163.1653125 186.474375 163.765625 186.71875 C166.47552837 188.2726806 167.86530802 190.01929431 169.75 192.5 C170.36359375 193.2940625 170.9771875 194.088125 171.609375 194.90625 C173 197 173 197 173 199 C173.66 199 174.32 199 175 199 C181.81017388 207.30759163 186.36157372 217.65413622 191.1875 227.1875 C191.68709229 228.16698608 191.68709229 228.16698608 192.19677734 229.16625977 C203.11873929 250.97449098 209.38809638 279.9395487 205.0625 304.125 C204.06502815 310.53237127 203.76242445 316.83484179 203.5625 323.3125 C203.12118293 336.31600813 201.16244659 348.54911539 197.6484375 361.09375 C196.94431281 364.24958598 196.60440577 367.34655446 196.27294922 370.55908203 C193.76277737 393.00693366 187.80392054 417.40912918 175.51953125 436.59765625 C173.95539007 438.99583679 173.95539007 438.99583679 172.63671875 441.62109375 C171.25274422 444.12004494 170.10098903 446.0595669 168 448 C164.54295584 448.74227825 161.47510285 448.55629117 158 448 C159.42104672 445.00152342 161.07047901 442.30364787 162.9375 439.5625 C166.45259327 434.39324519 169.31937057 429.50990379 171.5 423.625 C174.18838844 416.46403739 174.18838844 416.46403739 175.6875 413.0625 C177.97061148 407.73523987 179.34090555 402.54357902 180.4296875 396.875 C181.08929398 393.54986047 181.8156105 390.24411758 182.5625 386.9375 C182.93568359 385.28041016 182.93568359 385.28041016 183.31640625 383.58984375 C184 381 184 381 185 380 C186.35818957 373.84570352 187.07176841 367.65961214 187.4375 361.375 C188.34677419 347.65322581 188.34677419 347.65322581 192 344 C194.8327918 329.01516429 195.95610033 310.99521894 188.0390625 297.30078125 C183.89679467 291.39259924 178.89614204 285.59838738 172 283 C164.89661075 281.91359929 159.33036191 282.77022352 153 286 C152.071875 286.144375 151.14375 286.28875 150.1875 286.4375 C147.89261603 286.76551452 147.89261603 286.76551452 146.9375 288.625 C146.628125 289.40875 146.31875 290.1925 146 291 C145.34 292.093125 144.68 293.18625 144 294.3125 C141.98671733 297.78315893 140.95232828 301.11132619 140 305 C141.5778125 305.3403125 141.5778125 305.3403125 143.1875 305.6875 C147.18870307 306.84467075 149.48032229 308.61418308 152 312 C151.8125 314.8125 151.8125 314.8125 151 317 C147.58457791 317.39033395 146.34242241 317.26340185 143.5625 315.125 C142.716875 314.42375 141.87125 313.7225 141 313 C136.18524754 310.86011002 132.1827143 310.498447 127 311 C124.33333333 312.33333333 124.33333333 312.33333333 123 315 C122.02454996 324.75450043 124.78852846 331.58525088 130.75 339.25 C132 341 132 341 132 343 C133.32 343.66 134.64 344.32 136 345 C136 346.65 136 348.3 136 350 C133.50935112 350.68707555 131.62113708 351 129 351 C128.80664062 351.58007812 128.61328125 352.16015625 128.4140625 352.7578125 C126.94270833 357.171875 125.47135417 361.5859375 124 366 C123.34 366 122.68 366 122 366 C121.85111328 366.84111328 121.85111328 366.84111328 121.69921875 367.69921875 C119.40578851 375.24575737 111.06533857 386.10188217 104 390 C103.01 389.67 102.02 389.34 101 389 C100.22265625 386.87109375 100.22265625 386.87109375 100 384 C101.40142973 381.79948291 102.74679621 380.01428159 104.4375 378.0625 C112.60197552 368.02189544 119.65507782 356.96169585 122 344 C121.61952645 340.8466813 120.3753629 338.87848103 118.5625 336.3125 C114.37465101 329.7765507 112.83429513 321.70822342 114 314 C116.38579532 309.22840936 119.51169409 305.87929059 124 303 C127.05090528 302.60552943 129.94430292 302.69443029 133 303 C133.04125 302.05125 133.0825 301.1025 133.125 300.125 C134.17523974 292.74331498 139.38194042 285.65887868 145 281 C152.89305111 275.58320022 162.50579036 273.80770391 172 275 C178.26962151 276.69325545 182.73439546 279.00314897 187 284 C187.86625 284.825 188.7325 285.65 189.625 286.5 C193.00791453 290.06096267 194.9133479 293.24086626 196 298 C196.61895605 273.64487292 193.2613106 250.54432177 181 229 C180.53980469 228.12730469 180.07960938 227.25460938 179.60546875 226.35546875 C175.66446243 218.92058874 171.4740015 211.45975936 166.29296875 204.80859375 C165 203 165 203 165 201 C164.01 200.67 163.02 200.34 162 200 C160.54309639 198.36493461 159.15635814 196.66667675 157.8125 194.9375 C147.18808504 181.67411746 133.87039267 170.88027584 119.3125 162.125 C118.219375 161.42375 117.12625 160.7225 116 160 C116 159.34 116 158.68 116 158 C115.13375 157.9175 114.2675 157.835 113.375 157.75 C109.47227743 156.88272832 107.29164311 155.23831732 104 153 C102.11980041 152.25440361 100.23652643 151.51387569 98.328125 150.84375 C95.55346981 149.83817027 92.84546271 148.70648945 90.125 147.5625 C89.09761719 147.13324219 88.07023437 146.70398438 87.01171875 146.26171875 C85.13766238 145.47660824 83.26500096 144.68814883 81.39453125 143.89453125 C76.06510491 141.68311587 70.7500497 140.01859593 65.15234375 138.61328125 C63 138 63 138 62 137 C60.17369035 136.6301145 58.33854626 136.30326536 56.5 136 C51.11111111 135.11111111 51.11111111 135.11111111 50 134 C48.33072138 133.79653444 46.65408109 133.65271781 44.9765625 133.53515625 C43.955625 133.45716797 42.9346875 133.37917969 41.8828125 133.29882812 C39.71898844 133.14186007 37.55492256 132.98818907 35.390625 132.83789062 C34.36710937 132.75861328 33.34359375 132.67933594 32.2890625 132.59765625 C30.87681396 132.49723022 30.87681396 132.49723022 29.43603516 132.39477539 C27 132 27 132 24 130 C23.72290039 127.6027832 23.72290039 127.6027832 23.84765625 124.55078125 C23.87835205 123.40826904 23.90904785 122.26575684 23.94067383 121.08862305 C23.98087646 119.84250244 24.0210791 118.59638184 24.0625 117.3125 C24.4699253 91.31032517 21.94661216 62.22942085 12 38 C11.53980469 36.83597656 11.07960937 35.67195313 10.60546875 34.47265625 C7.98314568 28.16607763 5.27629439 22.37667828 1.29296875 16.81640625 C0 15 0 15 -1.375 12.375 C-5.8526432 5.83075224 -13.28518094 -0.01707462 -21 -2 C-28.8776423 -2 -35.65887535 -1.02153307 -42 4 C-48.24350356 10.73582283 -51.88136501 20.14025367 -54 29 C-54.33 29.99 -54.66 30.98 -55 32 C-55.10929675 34.68980222 -55.16405809 37.35277378 -55.16796875 40.04296875 C-55.17129715 40.84422684 -55.17462555 41.64548492 -55.17805481 42.47102356 C-55.18312218 44.17493111 -55.18546319 45.8788486 -55.18530273 47.58276367 C-55.18745388 50.1328288 -55.20551114 52.68243538 -55.22460938 55.23242188 C-55.27406419 69.29378875 -53.83362451 82.7591628 -51.0625 96.5625 C-50.88992676 97.44164063 -50.71735352 98.32078125 -50.53955078 99.2265625 C-50.19317735 100.98758783 -49.84461704 102.74818472 -49.49365234 104.50830078 C-49.03257826 106.83556194 -48.58569232 109.1649882 -48.14453125 111.49609375 C-47.88825617 112.83077438 -47.63176132 114.16541283 -47.375 115.5 C-47.04628906 117.21703125 -47.04628906 117.21703125 -46.7109375 118.96875 C-46.0437566 121.8134334 -45.12001329 124.30929077 -44 127 C-43.61728566 128.38827751 -43.26051908 129.78413141 -42.9375 131.1875 C-42.20364125 134.77663239 -42.20364125 134.77663239 -41 137 C-40.95977609 139.3329866 -40.95679753 141.66706666 -41 144 C-43.375 144.625 -43.375 144.625 -46 145 C-48.15419559 142.84580441 -48.57703928 141.69964147 -49.48046875 138.8515625 C-49.75358887 138.01761963 -50.02670898 137.18367676 -50.30810547 136.32446289 C-50.59830566 135.43364014 -50.88850586 134.54281738 -51.1875 133.625 C-53.54179913 126.63902038 -56.16971613 120.55049932 -60.12109375 114.30078125 C-62.60817434 109.93158563 -64.50297416 105.38504159 -66.4375 100.75 C-73.309374 84.35279938 -81.22165678 69.40981211 -91.71484375 54.99609375 C-93 53 -93 53 -93 51 C-93.66 51 -94.32 51 -95 51 C-97.35656594 48.76746385 -99.58383403 46.43759941 -101.8203125 44.0859375 C-104.24125004 41.76912631 -106.78439074 39.8371023 -109.5 37.875 C-110.4384375 37.19179688 -111.376875 36.50859375 -112.34375 35.8046875 C-116.37554479 33.06543869 -119.03237468 31.74735048 -123.95703125 31.734375 C-124.90513672 31.73179688 -125.85324219 31.72921875 -126.83007812 31.7265625 C-127.81427734 31.73429687 -128.79847656 31.74203125 -129.8125 31.75 C-130.78509766 31.74226563 -131.75769531 31.73453125 -132.75976562 31.7265625 C-138.20727091 31.74131539 -142.89181306 32.03851166 -148 34 C-149.3169667 35.88370471 -149.3169667 35.88370471 -150 38 C-150.47606689 38.42764648 -150.95213379 38.85529297 -151.44262695 39.29589844 C-157.4645287 45.88515603 -156.43922264 58.44738408 -156.3125 66.75 C-156.29977051 67.97920166 -156.28704102 69.20840332 -156.27392578 70.47485352 C-156.06227772 83.73259301 -155.58213687 94.97817399 -149.42578125 107.01171875 C-148.10701986 109.77569811 -147.38575449 112.1474736 -146.75 115.125 C-145.16527188 121.73781609 -141.77196143 127.46328072 -138.49121094 133.36376953 C-138.0584082 134.14864746 -137.62560547 134.93352539 -137.1796875 135.7421875 C-136.78507324 136.4419873 -136.39045898 137.14178711 -135.98388672 137.86279297 C-134.89605234 140.22579599 -134.41689847 142.43985167 -134 145 C-133.34 145 -132.68 145 -132 145 C-130.07114345 147.31462786 -128.31506748 149.72333229 -126.54321289 152.15869141 C-123.81033832 155.90792428 -120.98503277 159.53809119 -117.99609375 163.0859375 C-116.48750305 165.98479807 -116.46341059 167.78046355 -117 171 C-118.92760134 173.01426869 -120.59801377 174.50564098 -122.8125 176.125 C-126.36621097 178.82900151 -129.35075848 181.37296271 -132 185 C-132.66 185 -133.32 185 -134 185 C-134.33 185.99 -134.66 186.98 -135 188 C-136.64302953 189.68997323 -138.31471312 191.35216394 -140 193 C-141.54854217 194.79692988 -143.06579058 196.61532852 -144.5703125 198.44921875 C-146 200 -146 200 -149 202 C-150.19232613 204.05003955 -150.19232613 204.05003955 -151 206 C-151.66 206 -152.32 206 -153 206 C-153.309375 206.61875 -153.61875 207.2375 -153.9375 207.875 C-154.625 209.25 -155.3125 210.625 -156 212 C-156.66 212 -157.32 212 -158 212 C-158.12955078 213.05767578 -158.12955078 213.05767578 -158.26171875 214.13671875 C-159.16355799 217.63432807 -160.73149242 219.8666581 -162.8125 222.8125 C-165.97975317 227.42505943 -168.64335952 231.94236976 -171 237 C-171.31324219 237.58523437 -171.62648437 238.17046875 -171.94921875 238.7734375 C-175.38907467 245.21806875 -177.63766004 252.10661454 -180 259 C-179.16597656 258.57847656 -178.33195312 258.15695312 -177.47265625 257.72265625 C-170.82703453 254.48738794 -165.40950326 252.2511696 -158 252 C-158 251.34 -158 250.68 -158 250 C-155.94921875 249.77213542 -153.8984375 249.54427083 -151.84765625 249.31640625 C-149.98859771 249.18113386 -149.98859771 249.18113386 -149 248 C-146.13732433 247.92674832 -143.299281 247.90761795 -140.4375 247.9375 C-139.63119141 247.94201172 -138.82488281 247.94652344 -137.99414062 247.95117188 C-135.99606244 247.96299482 -133.99802217 247.98093086 -132 248 C-131.375 250.375 -131.375 250.375 -131 253 C-133.94960909 255.94960909 -137.22517252 255.38612077 -141.1875 255.5 C-146.80266566 255.66558164 -151.60108656 256.25366899 -157 258 C-157.92941406 258.24878906 -158.85882813 258.49757813 -159.81640625 258.75390625 C-165.92712375 260.55322136 -171.10777569 263.01381649 -176.4375 266.4375 C-177.30580444 266.99449585 -177.30580444 266.99449585 -178.19165039 267.56274414 C-183.4692839 271.08500252 -187.5973982 275.43773201 -191.75 280.1875 C-192.63945312 281.19876953 -192.63945312 281.19876953 -193.546875 282.23046875 C-195.06584716 283.94668032 -195.06584716 283.94668032 -196 286 C-196.66 286 -197.32 286 -198 286 C-198.27199219 286.56976563 -198.54398438 287.13953125 -198.82421875 287.7265625 C-200.0255483 290.04939903 -201.39271797 292.17976974 -202.8125 294.375 C-209.3149032 305.19651773 -212.35571791 317.74834761 -215 330 C-215.26925293 331.18577637 -215.26925293 331.18577637 -215.54394531 332.39550781 C-217.19818164 340.37076165 -217.39766158 348.25184303 -217.375 356.375 C-217.37468277 357.42548523 -217.37468277 357.42548523 -217.37435913 358.49719238 C-217.30087238 382.97002097 -211.72802201 408.15104269 -195 427 C-194.01 427.66 -193.02 428.32 -192 429 C-192 429.66 -192 430.32 -192 431 C-191.2265625 431.37125 -191.2265625 431.37125 -190.4375 431.75 C-186.13724087 433.95526109 -182.01535229 436.28709307 -178.0625 439.0625 C-172.44014362 442.61950097 -166.57710387 444.2453311 -160.078125 445.47265625 C-157.84697504 446.03883152 -156.03870024 446.94578438 -154 448 C-158.27010475 448.20588086 -162.53891171 448.32849124 -166.8125 448.4375 C-168.00810547 448.49615234 -169.20371094 448.55480469 -170.43554688 448.61523438 C-179.59581394 448.78995337 -184.84239546 446.59839336 -192 441 C-193.72889786 439.728801 -195.45802701 438.45791642 -197.1875 437.1875 C-199.41796875 435.48046875 -199.41796875 435.48046875 -201 434 C-201 433.34 -201 432.68 -201 432 C-201.99 431.67 -202.98 431.34 -204 431 C-205.75171171 428.84472199 -207.358439 426.71327423 -208.9375 424.4375 C-209.38625488 423.79707764 -209.83500977 423.15665527 -210.29736328 422.49682617 C-213.29239122 418.16353584 -216.02728674 413.90248544 -218 409 C-218.32226562 408.20851563 -218.64453125 407.41703125 -218.9765625 406.6015625 C-223.70931284 394.28196047 -226.71438938 382.20609118 -227 369 C-227.04664795 367.50364014 -227.04664795 367.50364014 -227.09423828 365.97705078 C-227.53933048 350.49723605 -227.21104345 335.95791467 -223 321 C-222.75862305 320.13826172 -222.51724609 319.27652344 -222.26855469 318.38867188 C-217.12926302 300.61124785 -209.63496597 280.40171882 -194.125 269.0625 C-190.18530485 265.89086468 -189.71076345 262.14422346 -188.73046875 257.34375 C-186.4577751 246.94040366 -181.97161379 237.35228641 -177 228 C-176.57332031 227.1440625 -176.14664063 226.288125 -175.70703125 225.40625 C-168.92902179 212.20801458 -159.90118006 200.41836142 -149.640625 189.76171875 C-147.44657329 187.46705224 -145.38986899 185.13761982 -143.375 182.6875 C-142.59125 181.800625 -141.8075 180.91375 -141 180 C-140.34 180 -139.68 180 -139 180 C-138.62875 179.10474609 -138.62875 179.10474609 -138.25 178.19140625 C-136.80680911 175.66131223 -135.38486231 174.58147678 -133 172.9375 C-130.22079739 171.01147172 -128.92530434 169.88795651 -127 167 C-127.49628906 166.39414063 -127.99257812 165.78828125 -128.50390625 165.1640625 C-153.69627569 134.09188008 -168.83113625 96.32301467 -166 56 C-164.84437845 45.74132452 -162.44331841 36.59274284 -155.0078125 28.953125 C-144.52568915 20.71425762 -132.82965199 20.52378981 -120 22 C-111.49427342 23.94272579 -104.48113555 29.40039821 -98 35 C-97.34773437 35.50917969 -96.69546875 36.01835938 -96.0234375 36.54296875 C-88.20136721 42.85360315 -82.032447 51.35938345 -77 60 C-76.38382813 60.98355469 -75.76765625 61.96710938 -75.1328125 62.98046875 C-71.05573789 69.49268325 -67.26919718 76.0372387 -64 83 C-64.0721875 82.08605469 -64.144375 81.17210938 -64.21875 80.23046875 C-66.2584327 52.04740621 -66.73277113 25.97888842 -52 1 C-51.34 1 -50.68 1 -50 1 C-49.75894531 0.39414063 -49.51789063 -0.21171875 -49.26953125 -0.8359375 C-46.45364268 -5.63594448 -39.1677438 -8.3680809 -34 -10 C-20.70878473 -12.8667327 -10.10354439 -8.47319973 0 0 Z M-63 88 C-62 90 -62 90 -62 90 Z " fill="#674C44" transform="translate(227,11)"/>
<path d="M0 0 C4.0011797 2.83027792 7.72334622 5.70430026 9.3359375 10.50390625 C10.87495801 19.72033943 9.1022371 25.90708536 3.67578125 33.5390625 C-6.16859452 45.91327785 -22.30525775 54.33287571 -38.01171875 56.2265625 C-39.65140625 56.38125 -39.65140625 56.38125 -41.32421875 56.5390625 C-41.65421875 56.8690625 -41.98421875 57.1990625 -42.32421875 57.5390625 C-45.02378606 57.66732923 -47.68652438 57.72429152 -50.38671875 57.7265625 C-51.12599609 57.73880859 -51.86527344 57.75105469 -52.62695312 57.76367188 C-58.59497732 57.77933598 -64.70750386 57.60417025 -69.56640625 53.76953125 C-74.98966082 46.98397589 -77.14234667 42.28775297 -76.32421875 33.5390625 C-74.36084648 20.13458452 -67.37711392 12.58849102 -56.90625 4.72265625 C-40.99777138 -6.80557561 -17.39835575 -10.93610933 0 0 Z " fill="#ED8D9D" transform="translate(148.32421875,327.4609375)"/>
<path d="M0 0 C2.18561911 1.92520492 3.38332296 3.52109521 5 6 C5.52980469 6.75410156 6.05960937 7.50820313 6.60546875 8.28515625 C8.27703655 11.53932886 8.3072692 13.67950082 8.1875 17.3125 C8.14689453 18.91544922 8.14689453 18.91544922 8.10546875 20.55078125 C8.07066406 21.35902344 8.03585937 22.16726563 8 23 C1.25 27 1.25 27 -1 27 C-1.37125 27.804375 -1.37125 27.804375 -1.75 28.625 C-3.29814886 31.56648283 -5.13010957 34.25359843 -7 37 C-7.66 37.99 -8.32 38.98 -9 40 C-10.859375 40.5703125 -10.859375 40.5703125 -13 41 C-14.42235528 41.61194355 -15.83852742 42.23835677 -17.25 42.875 C-31.36292356 48.5284226 -49.55646765 51.04069688 -64.125 45.9375 C-70.13546975 43.26280297 -75.6207665 39.77233732 -79.1875 34.1171875 C-81.23415165 28.7840856 -80.48322185 22.67706406 -78.9375 17.3125 C-71.91325782 5.30331176 -60.40757025 -3.39945072 -47 -7 C-46.21367187 -7.22300781 -45.42734375 -7.44601562 -44.6171875 -7.67578125 C-28.3509908 -11.62154184 -13.87578596 -8.93884864 0 0 Z " fill="#EC8D9D" transform="translate(371,266)"/>
<path d="M0 0 C1.06383911 0.01909424 1.06383911 0.01909424 2.14916992 0.03857422 C14.55129734 0.38224934 25.19428069 4.52842532 34.1875 13.3125 C40.1875 20.47647229 40.1875 20.47647229 40.1875 23.3125 C15.4375 23.3125 -9.3125 23.3125 -34.8125 23.3125 C-32.99137403 16.02799612 -26.767706 10.65483771 -20.8125 6.3125 C-18.50997517 5.24347061 -16.1752974 4.24074183 -13.8125 3.3125 C-12.91144531 2.79558594 -12.01039063 2.27867187 -11.08203125 1.74609375 C-7.28377212 0.0806683 -4.06631177 -0.10732626 0 0 Z " fill="#E9C5CC" transform="translate(165.8125,435.6875)"/>
<path d="M0 0 C2.61694604 0.36095807 3.92973396 0.94290884 6 2.625 C7.88001486 4.21957248 7.88001486 4.21957248 10.0625 3.875 C12.07315616 3.14064529 12.07315616 3.14064529 13.234375 1.484375 C16.53771958 -1.2927731 20.5517813 -0.64135518 24.6796875 -0.53515625 C29.1319681 0.18244662 31.56876827 1.63592029 34.66015625 4.87109375 C36.5829406 7.92624673 36.86989277 10.22477694 36.53515625 13.78515625 C35.34614441 18.70610306 33.27986694 22.14675537 29 25 C29.42371421 27.88125663 30.02403161 30.04621988 31.375 32.64453125 C33.2621601 36.54133539 34.51696269 40.40383735 35.6875 44.5625 C35.90881592 45.34737793 36.13013184 46.13225586 36.3581543 46.94091797 C38.15773269 53.7497964 38.56024107 59.9534123 38 67 C35.625 67.625 35.625 67.625 33 68 C30.69346345 65.69346345 30.67504862 65.01978203 30.32421875 61.88671875 C30.22149658 61.0570459 30.11877441 60.22737305 30.01293945 59.37255859 C29.90554443 58.48648926 29.79814941 57.60041992 29.6875 56.6875 C27.81114282 43.09390396 24.07613218 33.40224637 15 23 C13.16218554 20.61778324 11.35093125 18.21739074 9.54296875 15.8125 C7.94055891 13.76248395 7.94055891 13.76248395 5 12 C5 11.34 5 10.68 5 10 C4.401875 9.9175 3.80375 9.835 3.1875 9.75 C0.3211374 8.76724711 -0.56592275 7.64172124 -2 5 C-1.75203633 2.83031791 -1.55766393 1.55766393 0 0 Z " fill="#583A31" transform="translate(147,293)"/>
<path d="M0 0 C9.14258236 7.02256326 15.23219455 16.88153521 17 28.1875 C17.13341797 28.92484375 17.26683594 29.6621875 17.40429688 30.421875 C18.07042841 34.39729103 18.31818264 37.67049038 17.1875 41.5625 C16.1975 41.0675 16.1975 41.0675 15.1875 40.5625 C14.78090918 38.76103555 14.43800397 36.94506011 14.125 35.125 C12.44211238 27.92979679 8.80005805 23.27991323 3.1875 18.5625 C-4.53894889 14.18775151 -10.70285076 15.43450299 -19.0234375 17.55078125 C-21.7552431 18.54173034 -23.02486375 19.37960665 -25 21.4375 C-25.928125 22.13875 -26.85625 22.84 -27.8125 23.5625 C-31.05656913 23.08369046 -33.85942393 21.96028934 -36.8125 20.5625 C-35.81553347 14.65940872 -34.51326818 10.41975824 -30.8125 5.5625 C-30.1525 4.5725 -29.4925 3.5825 -28.8125 2.5625 C-27.0078125 1.4296875 -27.0078125 1.4296875 -24.9375 0.4375 C-24.25945312 0.10492188 -23.58140625 -0.22765625 -22.8828125 -0.5703125 C-15.64741858 -3.60098694 -6.8064965 -4.23359404 0 0 Z " fill="#FAF9F9" transform="translate(403.8125,295.4375)"/>
<path d="M0 0 C3.77094609 1.4809271 5.74446912 3.61670367 8 7 C8.60321137 11.18331003 8.45950776 14.91169214 6.8125 18.8125 C4.16515816 22.00756774 1.69265524 24.45103073 -2.3125 25.75 C-3.6428125 25.87375 -3.6428125 25.87375 -5 26 C-6.299375 26.12375 -7.59875 26.2475 -8.9375 26.375 C-12.14118858 26.33866327 -13.8672329 25.74885593 -16.375 23.75 C-20.07650647 19.87223132 -20.88496269 18.44947014 -21.3125 13.0625 C-21.14792546 7.84451904 -19.32355725 5.25568252 -15.5625 1.6875 C-10.37757829 -0.76851555 -5.64201438 -0.78060747 0 0 Z " fill="#56382F" transform="translate(276,263)"/>
<path d="M0 0 C1.06383911 0.01909424 1.06383911 0.01909424 2.14916992 0.03857422 C14.55129734 0.38224934 25.19428069 4.52842532 34.1875 13.3125 C40.1875 20.47647229 40.1875 20.47647229 40.1875 23.3125 C37.05616899 23.82373772 34.30493467 23.9709022 31.1875 23.3125 C29.08284836 21.50482375 27.5562046 19.55425186 25.875 17.3515625 C23.34498378 14.29445957 20.75112705 13.02832043 17.1875 11.3125 C16.48367187 10.95671875 15.77984375 10.6009375 15.0546875 10.234375 C7.27644971 7.73347021 -4.44597852 7.7512695 -12 10.9375 C-13.97527827 12.01123884 -13.97527827 12.01123884 -15.8125 13.3125 C-16.53824219 13.79460937 -17.26398438 14.27671875 -18.01171875 14.7734375 C-20.89107613 16.81018222 -23.29066972 18.53879963 -25.27734375 21.484375 C-26.8125 23.3125 -26.8125 23.3125 -28.85546875 23.703125 C-30.84114583 23.57291667 -32.82682292 23.44270833 -34.8125 23.3125 C-33.57943074 16.12226498 -26.46672429 10.43537188 -20.8125 6.3125 C-18.50997517 5.24347061 -16.1752974 4.24074183 -13.8125 3.3125 C-12.91144531 2.79558594 -12.01039063 2.27867187 -11.08203125 1.74609375 C-7.28377212 0.0806683 -4.06631177 -0.10732626 0 0 Z " fill="#593C32" transform="translate(165.8125,435.6875)"/>
<path d="M0 0 C0.5775 0.2475 1.155 0.495 1.75 0.75 C3.13054168 5.27043221 2.2674003 7.87565272 0.5 12.1875 C0.06171875 13.27933594 -0.3765625 14.37117188 -0.828125 15.49609375 C-7.12169043 29.89867617 -7.12169043 29.89867617 -14.25 32.75 C-24.45498824 33.46392922 -35.01794898 27.81667165 -42.66796875 21.53125 C-44.25 19.75 -44.25 19.75 -44.8125 16.3125 C-44.626875 15.466875 -44.44125 14.62125 -44.25 13.75 C-39.56017339 13.94540944 -37.04440606 14.64821275 -33.375 17.625 C-27.70989551 22.2031949 -21.41034715 23.83200678 -14.25 24.75 C-13.97929687 23.91726563 -13.70859375 23.08453125 -13.4296875 22.2265625 C-12.16219986 18.49125124 -10.80296392 14.80109174 -9.375 11.125 C-9.13136719 10.47015625 -8.88773438 9.8153125 -8.63671875 9.140625 C-4.85483637 -0.53942626 -4.85483637 -0.53942626 0 0 Z " fill="#5B3D34" transform="translate(250.25,300.25)"/>
<path d="M0 0 C6.98528391 0 12.132592 1.64569377 18.3125 4.6875 C18.99376953 5.01427734 19.67503906 5.34105469 20.37695312 5.67773438 C25.11300277 8.113284 27.87030953 10.68490464 31 15 C31.59425781 15.81855469 32.18851562 16.63710938 32.80078125 17.48046875 C34.28818615 20.60547254 34.30099761 22.86973926 34.1875 26.3125 C34.14689453 27.91544922 34.14689453 27.91544922 34.10546875 29.55078125 C34.07066406 30.35902344 34.03585937 31.16726563 34 32 C30.91190305 33.76462683 29.76687864 34 26 34 C25.75507813 33.50113281 25.51015625 33.00226563 25.2578125 32.48828125 C19.36225578 21.16474645 11.21036811 11.82212567 2.0546875 3.046875 C1.37664062 2.37140625 0.69859375 1.6959375 0 1 C0 0.67 0 0.34 0 0 Z " fill="#FEB2C1" transform="translate(345,257)"/>
<path d="M0 0 C4.01642465 0.80470919 7.58547713 2.56558884 11.203125 4.44140625 C10.51191317 8.42851841 8.84465511 9.67224407 5.703125 12.171875 C2.87111881 14.56875524 1.36648783 16.81080322 0.9921875 20.546875 C0.91861803 24.93897211 1.31880766 29.13035923 2.203125 33.44140625 C1.213125 33.44140625 0.223125 33.44140625 -0.796875 33.44140625 C-2.27720948 31.46762694 -3.52691394 29.54464001 -4.796875 27.44140625 C-5.23644531 26.79171875 -5.67601562 26.14203125 -6.12890625 25.47265625 C-8.8099415 21.45496653 -10.48893679 18.36841757 -10.796875 13.44140625 C-10.87035156 12.79042969 -10.94382812 12.13945312 -11.01953125 11.46875 C-11.30004159 7.6207236 -10.94668857 5.6661266 -8.796875 2.44140625 C-5.69160075 0.37122342 -3.73165438 -0.22076581 0 0 Z " fill="#FAF9F9" transform="translate(359.796875,320.55859375)"/>
<path d="M0 0 C1.66857236 0.32365904 3.33471558 0.65982842 5 1 C7.6068127 1.21881019 10.20220189 1.41012853 12.8125 1.5625 C13.85180664 1.62727539 13.85180664 1.62727539 14.91210938 1.69335938 C16.60788686 1.79861453 18.30392052 1.89972863 20 2 C20.33 3.32 20.66 4.64 21 6 C17.5035251 9.28720957 14.77435915 9.43247133 10.0625 9.4375 C8.85722656 9.45683594 7.65195312 9.47617187 6.41015625 9.49609375 C2.47791758 8.92404987 0.83215688 7.71392643 -2 5 C-1.125 1.125 -1.125 1.125 0 0 Z " fill="#5F4138" transform="translate(385,364)"/>
<path d="M0 0 C-1.55603771 3.81936528 -3.95604931 6.26044438 -7 9 C-7.66 9 -8.32 9 -9 9 C-9.268125 9.680625 -9.53625 10.36125 -9.8125 11.0625 C-11.16053306 14.39710809 -12.57536298 17.69743237 -14 21 C-15 18 -15 18 -13.78515625 15.08203125 C-13.21667969 14.00308594 -12.64820313 12.92414062 -12.0625 11.8125 C-11.49660156 10.72582031 -10.93070313 9.63914062 -10.34765625 8.51953125 C-9.90292969 7.68808594 -9.45820313 6.85664063 -9 6 C-8.34 6 -7.68 6 -7 6 C-6.731875 5.38125 -6.46375 4.7625 -6.1875 4.125 C-4.67436553 1.41728569 -3.21502868 0 0 0 Z " fill="#AEA09B" transform="translate(184,6)"/>
<path d="M0 0 C-2.9826906 1.52448631 -5.818202 2.93940067 -9 4 C-9.433125 4.928125 -9.433125 4.928125 -9.875 5.875 C-11.35958123 8.67920898 -13.23974247 9.54723288 -16 11 C-14.84349173 6.08483986 -11.94144386 4.08988635 -8.0703125 1.234375 C-5.15021804 -0.50666245 -3.14693743 -1.57346872 0 0 Z " fill="#AFA09C" transform="translate(84,36)"/>
<path d="M0 0 C2.39073445 3.82517513 2.55966552 7.59665524 3 12 C-0.35693737 9.76204175 -0.91970563 8.7810303 -2 5 C-1.51612903 1.51612903 -1.51612903 1.51612903 0 0 Z M0 5 C1 7 1 7 1 7 Z " fill="#CEC5C3" transform="translate(164,94)"/>
<path d="M0 0 C1.61949011 2.57213134 2.04408751 3.67669159 1.625 6.75 C1.41875 7.4925 1.2125 8.235 1 9 C0.34 8.67 -0.32 8.34 -1 8 C-0.67 5.36 -0.34 2.72 0 0 Z " fill="#EFE9E9" transform="translate(420,328)"/>
</svg>
