<?xml version="1.0" standalone="no"?>
<!DOCTYPE svg PUBLIC "-//W3C//DTD SVG 20010904//EN"
 "http://www.w3.org/TR/2001/REC-SVG-20010904/DTD/svg10.dtd">
<svg version="1.0" xmlns="http://www.w3.org/2000/svg"
 width="64.000000pt" height="64.000000pt" viewBox="0 0 64.000000 64.000000"
 preserveAspectRatio="xMidYMid meet">

<g transform="translate(0.000000,64.000000) scale(0.100000,-0.100000)"
fill="#000000" stroke="none">
<path d="M200 603 c-6 -15 -12 -32 -14 -38 -2 -5 -42 -23 -90 -39 -98 -33
-105 -44 -55 -101 26 -30 37 -35 74 -35 43 0 43 0 49 -42 6 -44 -9 -292 -19
-309 -4 -5 -15 -9 -26 -9 -26 0 -20 -24 7 -28 32 -4 44 12 54 74 16 91 15 310
0 329 -8 9 -29 15 -55 15 -35 0 -48 5 -65 27 l-21 27 82 30 c73 26 83 33 96
65 14 33 16 34 29 16 14 -19 54 -119 54 -135 0 -5 -14 -17 -31 -26 -24 -12
-28 -19 -20 -27 9 -9 18 -8 38 3 44 25 48 41 28 104 -35 111 -93 161 -115 99z"/>
<path d="M330 381 c0 -5 22 -36 50 -68 123 -143 146 -273 48 -273 -36 0 -52
23 -44 65 7 37 -3 45 -24 20 -8 -10 -10 -29 -6 -55 l6 -40 -40 0 c-40 0 -53
-13 -24 -24 24 -9 115 -7 155 4 76 21 91 105 36 202 -58 103 -157 209 -157
169z"/>
<path d="M578 72 c-7 -11 -23 -24 -35 -31 -29 -15 -30 -31 -3 -31 24 0 70 42
70 65 0 21 -16 19 -32 -3z"/>
</g>
</svg>
